{"glyphs":{"0":{"ha":910,"x_min":106,"x_max":804,"o":"m 360 -3 q 228 23 286 -3 q 138 102 171 49 q 106 240 106 156 l 106 782 q 138 919 106 864 q 228 1002 171 974 q 360 1031 286 1031 l 558 1031 q 699 999 644 1031 q 778 913 753 968 q 804 782 804 857 l 804 240 q 737 56 804 114 q 558 -3 669 -3 l 360 -3 m 381 96 l 533 96 q 656 138 618 96 q 693 254 693 181 l 693 774 q 653 892 693 853 q 538 931 614 931 l 378 931 q 260 890 303 931 q 217 774 217 849 l 217 254 q 260 135 217 175 q 381 96 304 96 z "},"1":{"ha":503,"x_min":61,"x_max":382,"o":"m 271 0 l 271 924 l 61 867 l 61 938 l 281 1032 l 382 1032 l 382 0 l 271 0 z "},"2":{"ha":824,"x_min":75,"x_max":757,"o":"m 75 0 l 75 90 l 453 453 q 545 554 511 507 q 594 649 579 601 q 610 754 610 697 q 591 843 610 804 q 525 904 572 882 q 389 926 478 926 l 111 926 l 111 1011 q 252 1024 175 1018 q 413 1031 329 1031 q 597 997 529 1031 q 692 905 664 964 q 719 767 719 846 q 701 636 719 696 q 642 519 682 576 q 538 401 601 463 l 225 101 l 757 101 l 757 0 l 75 0 z "},"3":{"ha":813,"x_min":60,"x_max":714,"o":"m 431 -8 q 226 -3 321 -8 q 60 10 131 1 l 60 94 l 394 94 q 501 107 454 94 q 576 153 549 119 q 603 250 603 188 l 603 318 q 576 404 603 372 q 508 450 549 436 q 425 465 468 464 l 163 475 l 163 556 l 421 567 q 542 599 496 569 q 589 700 589 629 l 589 768 q 538 885 589 844 q 386 926 488 926 l 94 926 l 94 1011 q 241 1025 158 1019 q 426 1031 324 1031 q 578 999 518 1029 q 668 916 639 969 q 697 790 697 863 l 697 703 q 683 622 697 656 q 645 565 668 588 q 597 531 622 543 q 550 515 571 519 q 601 495 574 510 q 655 456 629 481 q 697 393 681 431 q 714 304 714 356 l 714 233 q 640 53 714 115 q 431 -8 565 -8 z "},"4":{"ha":826,"x_min":36,"x_max":793,"o":"m 543 1 l 543 261 l 61 261 l 36 321 l 421 1022 l 535 1022 l 164 356 l 543 356 l 543 628 l 567 722 l 653 722 l 653 356 l 793 356 l 793 279 l 653 261 l 653 1 l 543 1 z "},"5":{"ha":875,"x_min":115,"x_max":788,"o":"m 469 -7 q 282 -3 375 -7 q 115 8 189 1 l 115 93 l 471 93 q 579 113 533 93 q 651 172 625 133 q 676 261 676 210 l 676 372 q 635 485 676 444 q 507 526 593 526 l 397 526 q 297 499 335 526 q 249 410 260 471 l 144 410 l 174 1022 l 753 1022 l 753 922 l 269 922 l 251 547 q 310 598 268 575 q 418 621 353 621 l 540 621 q 675 591 621 621 q 758 509 729 561 q 788 392 788 457 l 788 240 q 747 102 788 157 q 636 20 707 47 q 469 -7 565 -7 z "},"6":{"ha":865,"x_min":99,"x_max":776,"o":"m 381 -4 q 264 19 317 -4 q 175 99 211 42 q 119 256 139 156 q 99 511 99 356 q 123 747 99 649 q 194 908 147 846 q 308 1001 242 971 q 461 1031 375 1031 q 590 1026 519 1031 q 715 1015 661 1021 l 715 931 l 463 931 q 277 840 344 931 q 210 563 210 749 q 302 572 251 568 q 403 576 353 575 q 492 576 453 576 q 647 556 583 576 q 744 488 711 535 q 776 363 776 440 l 776 219 q 744 89 776 138 q 658 18 713 40 q 539 -4 604 -4 l 381 -4 m 399 96 l 518 96 q 593 108 560 96 q 647 149 626 119 q 667 236 667 179 l 667 344 q 643 432 667 403 q 575 472 619 461 q 467 482 531 482 l 210 482 q 222 291 210 367 q 259 173 235 215 q 319 113 283 131 q 399 96 354 96 z "},"7":{"ha":754,"x_min":46,"x_max":700,"o":"m 203 0 l 560 911 l 46 911 l 46 1022 l 664 1022 l 700 965 l 326 0 l 203 0 z "},"8":{"ha":893,"x_min":114,"x_max":781,"o":"m 363 -3 q 262 8 307 -3 q 183 43 217 19 q 132 106 150 67 q 114 200 114 144 l 114 347 q 134 433 114 397 q 185 490 154 468 q 244 518 215 511 q 177 565 201 538 q 143 628 153 593 q 133 699 133 663 l 133 815 q 163 940 133 893 q 244 1008 193 986 q 358 1029 296 1029 l 550 1029 q 661 1008 614 1029 q 735 940 708 986 q 761 815 761 893 l 761 699 q 755 649 761 675 q 735 599 749 622 q 703 557 722 575 q 657 532 683 539 q 728 496 701 524 q 767 431 754 468 q 781 356 781 394 l 781 200 q 751 82 781 126 q 670 17 722 38 q 550 -3 618 -3 l 363 -3 m 378 92 l 528 92 q 636 123 601 92 q 671 215 671 154 l 671 344 q 637 444 671 414 q 522 474 603 474 l 378 474 q 329 467 356 474 q 278 445 303 460 q 239 406 254 431 q 224 344 224 381 l 224 215 q 267 119 224 147 q 378 92 311 92 m 378 568 l 521 568 q 599 588 571 568 q 640 636 628 607 q 653 696 653 665 l 653 792 q 622 903 653 872 q 529 935 590 935 l 378 935 q 274 901 306 935 q 242 792 242 868 l 242 696 q 274 603 242 639 q 378 568 307 568 z "},"9":{"ha":865,"x_min":92,"x_max":768,"o":"m 407 -7 q 278 -2 349 -7 q 153 8 207 3 l 153 93 l 406 93 q 592 184 525 93 q 658 461 658 275 q 566 452 617 456 q 465 448 515 449 q 376 447 415 447 q 220 468 283 447 q 124 536 157 489 q 92 661 92 583 l 92 804 q 124 935 92 886 q 209 1006 156 983 q 328 1028 263 1028 l 486 1028 q 603 1005 551 1028 q 692 925 656 982 q 749 768 729 868 q 768 513 768 668 q 744 276 768 375 q 673 115 719 178 q 560 23 626 53 q 407 -7 493 -7 m 401 542 l 658 542 q 646 733 658 657 q 609 851 633 808 q 549 910 585 893 q 468 928 514 928 l 349 928 q 274 916 308 928 q 220 874 240 904 q 200 788 200 844 l 200 679 q 224 592 200 621 q 293 552 249 563 q 401 542 338 542 z "},"A":{"ha":936,"x_min":47,"x_max":889,"o":"m 47 0 l 397 1022 l 539 1022 l 889 0 l 775 0 l 672 292 l 261 292 l 161 0 l 47 0 m 289 392 l 644 392 l 468 925 l 289 392 z "},"Á":{"ha":936,"x_min":47,"x_max":889,"o":"m 47 0 l 397 1022 l 539 1022 l 889 0 l 775 0 l 672 292 l 261 292 l 161 0 l 47 0 m 289 392 l 644 392 l 468 925 l 289 392 z "},"Ă":{"ha":936,"x_min":47,"x_max":889,"o":"m 47 0 l 397 1022 l 539 1022 l 889 0 l 775 0 l 672 292 l 261 292 l 161 0 l 47 0 m 289 392 l 644 392 l 468 925 l 289 392 z "},"Ắ":{"ha":936,"x_min":47,"x_max":889,"o":"m 47 0 l 397 1022 l 539 1022 l 889 0 l 775 0 l 672 292 l 261 292 l 161 0 l 47 0 m 289 392 l 644 392 l 468 925 l 289 392 m 331 1242 q 369 1158 331 1182 q 458 1135 408 1133 q 551 1158 515 1135 q 588 1242 588 1182 l 643 1242 q 617 1149 643 1183 q 550 1101 592 1115 q 458 1086 508 1086 q 367 1101 408 1086 q 301 1151 326 1117 q 276 1242 276 1185 l 331 1242 m 418 1251 l 563 1440 l 657 1440 l 483 1251 l 418 1251 z "},"Ặ":{"ha":936,"x_min":47,"x_max":889,"o":"m 47 0 l 397 1022 l 539 1022 l 889 0 l 775 0 l 672 292 l 261 292 l 161 0 l 47 0 m 289 392 l 644 392 l 468 925 l 289 392 z "},"Ằ":{"ha":936,"x_min":47,"x_max":889,"o":"m 47 0 l 397 1022 l 539 1022 l 889 0 l 775 0 l 672 292 l 261 292 l 161 0 l 47 0 m 289 392 l 644 392 l 468 925 l 289 392 m 331 1242 q 369 1158 331 1182 q 458 1135 408 1133 q 551 1158 515 1135 q 588 1242 588 1182 l 643 1242 q 617 1149 643 1183 q 550 1101 592 1115 q 458 1086 508 1086 q 367 1101 408 1086 q 301 1151 326 1117 q 276 1242 276 1185 l 331 1242 m 449 1251 l 275 1440 l 369 1440 l 513 1251 l 449 1251 z "},"Ẳ":{"ha":936,"x_min":47,"x_max":889,"o":"m 47 0 l 397 1022 l 539 1022 l 889 0 l 775 0 l 672 292 l 261 292 l 161 0 l 47 0 m 289 392 l 644 392 l 468 925 l 289 392 m 458 1086 q 367 1101 408 1086 q 301 1151 326 1117 q 276 1242 276 1185 l 331 1242 q 369 1158 331 1182 q 458 1135 408 1133 q 551 1158 515 1135 q 588 1242 588 1182 l 643 1242 q 617 1149 643 1183 q 550 1101 592 1115 q 458 1086 508 1086 m 435 1193 l 435 1244 q 497 1281 481 1258 q 514 1326 514 1303 q 499 1371 514 1354 q 447 1388 485 1388 q 422 1385 435 1388 q 397 1379 410 1383 l 397 1426 q 428 1434 413 1432 q 461 1436 444 1436 q 547 1406 519 1436 q 574 1329 574 1376 q 541 1249 574 1285 q 435 1193 508 1214 z "},"Ẵ":{"ha":936,"x_min":47,"x_max":889,"o":"m 47 0 l 397 1022 l 539 1022 l 889 0 l 775 0 l 672 292 l 261 292 l 161 0 l 47 0 m 289 392 l 644 392 l 468 925 l 289 392 m 331 1242 q 369 1158 331 1182 q 458 1135 408 1133 q 551 1158 515 1135 q 588 1242 588 1182 l 643 1242 q 617 1149 643 1183 q 550 1101 592 1115 q 458 1086 508 1086 q 367 1101 408 1086 q 301 1151 326 1117 q 276 1242 276 1185 l 331 1242 m 243 1290 q 262 1361 244 1336 q 305 1396 279 1386 q 357 1406 331 1406 q 429 1392 396 1406 q 494 1363 463 1378 q 556 1347 525 1347 q 610 1363 589 1347 q 631 1408 631 1379 l 686 1408 q 671 1342 685 1368 q 632 1304 657 1317 q 571 1292 607 1292 q 501 1306 535 1292 q 436 1335 468 1321 q 372 1350 404 1350 q 321 1335 342 1350 q 300 1290 300 1321 l 243 1290 z "},"Â":{"ha":936,"x_min":47,"x_max":889,"o":"m 47 0 l 397 1022 l 539 1022 l 889 0 l 775 0 l 672 292 l 261 292 l 161 0 l 47 0 m 289 392 l 644 392 l 468 925 l 289 392 z "},"Ấ":{"ha":936,"x_min":47,"x_max":889,"o":"m 47 0 l 397 1022 l 539 1022 l 889 0 l 775 0 l 672 292 l 261 292 l 161 0 l 47 0 m 289 392 l 644 392 l 468 925 l 289 392 m 432 1235 l 511 1235 l 664 1099 l 597 1099 l 469 1183 l 331 1099 l 264 1099 l 432 1235 m 706 1385 l 800 1385 l 649 1206 l 585 1206 l 706 1385 z "},"Ậ":{"ha":936,"x_min":47,"x_max":889,"o":"m 47 0 l 397 1022 l 539 1022 l 889 0 l 775 0 l 672 292 l 261 292 l 161 0 l 47 0 m 289 392 l 644 392 l 468 925 l 289 392 z "},"Ầ":{"ha":936,"x_min":47,"x_max":889,"o":"m 47 0 l 397 1022 l 539 1022 l 889 0 l 775 0 l 672 292 l 261 292 l 161 0 l 47 0 m 289 392 l 644 392 l 468 925 l 289 392 m 432 1235 l 511 1235 l 664 1099 l 597 1099 l 469 1183 l 331 1099 l 264 1099 l 432 1235 m 136 1385 l 231 1385 l 351 1206 l 288 1206 l 136 1385 z "},"Ẩ":{"ha":936,"x_min":47,"x_max":889,"o":"m 47 0 l 397 1022 l 539 1022 l 889 0 l 775 0 l 672 292 l 261 292 l 161 0 l 47 0 m 289 392 l 644 392 l 468 925 l 289 392 m 264 1099 l 432 1235 l 511 1235 l 664 1099 l 597 1099 l 469 1183 l 331 1099 l 264 1099 m 617 1171 l 617 1221 q 671 1253 656 1233 q 686 1292 686 1272 q 673 1330 686 1317 q 628 1343 660 1343 q 603 1340 617 1343 q 579 1335 590 1338 l 579 1376 q 610 1384 594 1382 q 642 1386 625 1386 q 717 1362 693 1386 q 742 1296 742 1338 q 712 1222 742 1254 q 617 1171 682 1189 z "},"Ẫ":{"ha":936,"x_min":47,"x_max":889,"o":"m 47 0 l 397 1022 l 539 1022 l 889 0 l 775 0 l 672 292 l 261 292 l 161 0 l 47 0 m 289 392 l 644 392 l 468 925 l 289 392 m 243 1300 q 262 1371 244 1346 q 305 1406 279 1396 q 357 1415 331 1415 q 429 1401 396 1415 q 493 1372 463 1386 q 556 1357 524 1357 q 610 1372 589 1357 q 631 1418 631 1388 l 686 1418 q 671 1352 685 1378 q 632 1313 657 1326 q 571 1300 607 1300 q 499 1315 533 1300 q 433 1344 465 1331 q 367 1358 400 1358 q 320 1344 340 1358 q 300 1300 300 1329 l 243 1300 m 511 1235 l 664 1099 l 597 1099 l 469 1183 l 331 1099 l 264 1099 l 432 1235 l 511 1235 z "},"Ȁ":{"ha":936,"x_min":47,"x_max":889,"o":"m 47 0 l 397 1022 l 539 1022 l 889 0 l 775 0 l 672 292 l 261 292 l 161 0 l 47 0 m 289 392 l 644 392 l 468 925 l 289 392 m 558 1099 l 385 1288 l 479 1288 l 624 1099 l 558 1099 m 356 1099 l 182 1288 l 276 1288 l 421 1099 l 356 1099 z "},"Ä":{"ha":936,"x_min":47,"x_max":889,"o":"m 47 0 l 397 1022 l 539 1022 l 889 0 l 775 0 l 672 292 l 261 292 l 161 0 l 47 0 m 289 392 l 644 392 l 468 925 l 289 392 m 596 1129 q 574 1151 574 1129 l 574 1260 q 596 1282 574 1282 l 647 1282 q 663 1276 657 1282 q 668 1260 668 1269 l 668 1151 q 647 1129 668 1129 l 596 1129 m 268 1129 q 246 1151 246 1129 l 246 1260 q 268 1282 246 1282 l 319 1282 q 336 1276 331 1282 q 342 1260 342 1269 l 342 1151 q 319 1129 342 1129 l 268 1129 z "},"Ạ":{"ha":936,"x_min":47,"x_max":889,"o":"m 47 0 l 397 1022 l 539 1022 l 889 0 l 775 0 l 672 292 l 261 292 l 161 0 l 47 0 m 289 392 l 644 392 l 468 925 l 289 392 z "},"À":{"ha":936,"x_min":47,"x_max":889,"o":"m 47 0 l 397 1022 l 539 1022 l 889 0 l 775 0 l 672 292 l 261 292 l 161 0 l 47 0 m 289 392 l 644 392 l 468 925 l 289 392 z "},"Ả":{"ha":936,"x_min":47,"x_max":889,"o":"m 47 0 l 397 1022 l 539 1022 l 889 0 l 775 0 l 672 292 l 261 292 l 161 0 l 47 0 m 289 392 l 644 392 l 468 925 l 289 392 z "},"Ȃ":{"ha":936,"x_min":47,"x_max":889,"o":"m 47 0 l 397 1022 l 539 1022 l 889 0 l 775 0 l 672 292 l 261 292 l 161 0 l 47 0 m 289 392 l 644 392 l 468 925 l 289 392 z "},"Ā":{"ha":936,"x_min":47,"x_max":889,"o":"m 47 0 l 397 1022 l 539 1022 l 889 0 l 775 0 l 672 292 l 261 292 l 161 0 l 47 0 m 289 392 l 644 392 l 468 925 l 289 392 z "},"Ą":{"ha":936,"x_min":47,"x_max":889,"o":"m 47 0 l 397 1022 l 539 1022 l 889 0 l 775 0 l 672 292 l 261 292 l 161 0 l 47 0 m 289 392 l 644 392 l 468 925 l 289 392 z "},"Å":{"ha":936,"x_min":47,"x_max":889,"o":"m 47 0 l 397 1022 l 539 1022 l 889 0 l 775 0 l 672 292 l 261 292 l 161 0 l 47 0 m 289 392 l 644 392 l 468 925 l 289 392 z "},"Ǻ":{"ha":936,"x_min":47,"x_max":889,"o":"m 47 0 l 397 1022 l 539 1022 l 889 0 l 775 0 l 672 292 l 261 292 l 161 0 l 47 0 m 289 392 l 644 392 l 468 925 l 289 392 z "},"Ã":{"ha":936,"x_min":47,"x_max":889,"o":"m 47 0 l 397 1022 l 539 1022 l 889 0 l 775 0 l 672 292 l 261 292 l 161 0 l 47 0 m 289 392 l 644 392 l 468 925 l 289 392 z "},"Æ":{"ha":1339,"x_min":47,"x_max":1258,"o":"m 882 -6 q 727 30 783 -7 q 667 164 671 67 l 667 290 l 336 290 l 157 0 l 47 0 l 542 835 q 622 942 579 900 q 721 1003 664 983 q 856 1022 778 1022 q 1067 1017 964 1021 q 1258 1008 1171 1013 l 1258 921 l 868 921 q 790 898 811 921 q 768 828 768 875 l 768 557 l 1199 550 l 1199 465 l 768 458 l 768 218 q 784 146 768 172 q 830 108 800 119 q 900 97 860 97 l 1258 97 l 1258 10 q 1077 0 1169 4 q 882 -6 985 -4 m 388 385 l 667 385 l 667 854 l 388 385 z "},"Ǽ":{"ha":1339,"x_min":47,"x_max":1258,"o":"m 882 -6 q 727 30 783 -7 q 667 164 671 67 l 667 290 l 336 290 l 157 0 l 47 0 l 542 835 q 622 942 579 900 q 721 1003 664 983 q 856 1022 778 1022 q 1067 1017 964 1021 q 1258 1008 1171 1013 l 1258 921 l 868 921 q 790 898 811 921 q 768 828 768 875 l 768 557 l 1199 550 l 1199 465 l 768 458 l 768 218 q 784 146 768 172 q 830 108 800 119 q 900 97 860 97 l 1258 97 l 1258 10 q 1077 0 1169 4 q 882 -6 985 -4 m 388 385 l 667 385 l 667 854 l 388 385 z "},"B":{"ha":838,"x_min":107,"x_max":776,"o":"m 107 0 l 107 1022 l 476 1022 q 674 957 608 1022 q 740 760 740 892 q 721 649 740 696 q 669 572 701 601 q 596 531 636 542 q 655 508 624 524 q 714 463 686 492 q 759 389 742 433 q 776 283 776 344 q 742 113 776 175 q 643 26 707 51 q 490 0 579 0 l 107 0 m 218 99 l 488 99 q 584 116 543 99 q 648 177 625 133 q 671 301 671 221 q 647 399 671 358 q 581 460 622 439 q 488 482 539 482 l 218 482 l 218 99 m 218 569 l 483 569 q 591 617 549 569 q 635 744 633 664 q 592 883 638 843 q 476 922 547 922 l 218 922 l 218 569 z "},"Ḃ":{"ha":838,"x_min":107,"x_max":776,"o":"m 107 0 l 107 1022 l 476 1022 q 674 957 608 1022 q 740 760 740 892 q 721 649 740 696 q 669 572 701 601 q 596 531 636 542 q 655 508 624 524 q 714 463 686 492 q 759 389 742 433 q 776 283 776 344 q 742 113 776 175 q 643 26 707 51 q 490 0 579 0 l 107 0 m 218 99 l 488 99 q 584 116 543 99 q 648 177 625 133 q 671 301 671 221 q 647 399 671 358 q 581 460 622 439 q 488 482 539 482 l 218 482 l 218 99 m 218 569 l 483 569 q 591 617 549 569 q 635 744 633 664 q 592 883 638 843 q 476 922 547 922 l 218 922 l 218 569 z "},"C":{"ha":807,"x_min":82,"x_max":743,"o":"m 442 -8 q 282 13 350 -8 q 169 88 214 33 q 103 246 125 143 q 82 514 82 349 q 104 770 82 669 q 172 928 126 871 q 286 1008 217 985 q 450 1031 356 1031 q 546 1025 493 1031 q 650 1012 599 1019 q 743 993 701 1004 l 743 911 q 676 919 719 915 q 578 927 633 924 q 467 931 524 931 q 340 914 393 931 q 255 852 288 897 q 207 725 222 807 q 192 513 192 643 q 206 297 192 381 q 253 168 221 213 q 336 107 285 124 q 464 90 388 90 q 635 96 568 90 q 743 108 701 101 l 743 25 q 651 8 701 15 q 547 -4 600 0 q 442 -8 493 -8 z "},"Ć":{"ha":807,"x_min":82,"x_max":743,"o":"m 442 -8 q 282 13 350 -8 q 169 88 214 33 q 103 246 125 143 q 82 514 82 349 q 104 770 82 669 q 172 928 126 871 q 286 1008 217 985 q 450 1031 356 1031 q 546 1025 493 1031 q 650 1012 599 1019 q 743 993 701 1004 l 743 911 q 676 919 719 915 q 578 927 633 924 q 467 931 524 931 q 340 914 393 931 q 255 852 288 897 q 207 725 222 807 q 192 513 192 643 q 206 297 192 381 q 253 168 221 213 q 336 107 285 124 q 464 90 388 90 q 635 96 568 90 q 743 108 701 101 l 743 25 q 651 8 701 15 q 547 -4 600 0 q 442 -8 493 -8 z "},"Č":{"ha":807,"x_min":82,"x_max":743,"o":"m 442 -8 q 282 13 350 -8 q 169 88 214 33 q 103 246 125 143 q 82 514 82 349 q 104 770 82 669 q 172 928 126 871 q 286 1008 217 985 q 450 1031 356 1031 q 546 1025 493 1031 q 650 1012 599 1019 q 743 993 701 1004 l 743 911 q 676 919 719 915 q 578 927 633 924 q 467 931 524 931 q 340 914 393 931 q 255 852 288 897 q 207 725 222 807 q 192 513 192 643 q 206 297 192 381 q 253 168 221 213 q 336 107 285 124 q 464 90 388 90 q 635 96 568 90 q 743 108 701 101 l 743 25 q 651 8 701 15 q 547 -4 600 0 q 442 -8 493 -8 z "},"Ç":{"ha":807,"x_min":82,"x_max":743,"o":"m 442 -8 q 282 13 350 -8 q 169 88 214 33 q 103 246 125 143 q 82 514 82 349 q 104 770 82 669 q 172 928 126 871 q 286 1008 217 985 q 450 1031 356 1031 q 546 1025 493 1031 q 650 1012 599 1019 q 743 993 701 1004 l 743 911 q 676 919 719 915 q 578 927 633 924 q 467 931 524 931 q 340 914 393 931 q 255 852 288 897 q 207 725 222 807 q 192 513 192 643 q 206 297 192 381 q 253 168 221 213 q 336 107 285 124 q 464 90 388 90 q 635 96 568 90 q 743 108 701 101 l 743 25 q 651 8 701 15 q 547 -4 600 0 q 442 -8 493 -8 z "},"Ḉ":{"ha":807,"x_min":82,"x_max":743,"o":"m 442 -8 q 282 13 350 -8 q 169 88 214 33 q 103 246 125 143 q 82 514 82 349 q 104 770 82 669 q 172 928 126 871 q 286 1008 217 985 q 450 1031 356 1031 q 546 1025 493 1031 q 650 1012 599 1019 q 743 993 701 1004 l 743 911 q 676 919 719 915 q 578 927 633 924 q 467 931 524 931 q 340 914 393 931 q 255 852 288 897 q 207 725 222 807 q 192 513 192 643 q 206 297 192 381 q 253 168 221 213 q 336 107 285 124 q 464 90 388 90 q 635 96 568 90 q 743 108 701 101 l 743 25 q 651 8 701 15 q 547 -4 600 0 q 442 -8 493 -8 z "},"Ĉ":{"ha":807,"x_min":82,"x_max":743,"o":"m 442 -8 q 282 13 350 -8 q 169 88 214 33 q 103 246 125 143 q 82 514 82 349 q 104 770 82 669 q 172 928 126 871 q 286 1008 217 985 q 450 1031 356 1031 q 546 1025 493 1031 q 650 1012 599 1019 q 743 993 701 1004 l 743 911 q 676 919 719 915 q 578 927 633 924 q 467 931 524 931 q 340 914 393 931 q 255 852 288 897 q 207 725 222 807 q 192 513 192 643 q 206 297 192 381 q 253 168 221 213 q 336 107 285 124 q 464 90 388 90 q 635 96 568 90 q 743 108 701 101 l 743 25 q 651 8 701 15 q 547 -4 600 0 q 442 -8 493 -8 z "},"Ċ":{"ha":807,"x_min":82,"x_max":743,"o":"m 442 -8 q 282 13 350 -8 q 169 88 214 33 q 103 246 125 143 q 82 514 82 349 q 104 770 82 669 q 172 928 126 871 q 286 1008 217 985 q 450 1031 356 1031 q 546 1025 493 1031 q 650 1012 599 1019 q 743 993 701 1004 l 743 911 q 676 919 719 915 q 578 927 633 924 q 467 931 524 931 q 340 914 393 931 q 255 852 288 897 q 207 725 222 807 q 192 513 192 643 q 206 297 192 381 q 253 168 221 213 q 336 107 285 124 q 464 90 388 90 q 635 96 568 90 q 743 108 701 101 l 743 25 q 651 8 701 15 q 547 -4 600 0 q 442 -8 493 -8 z "},"D":{"ha":929,"x_min":107,"x_max":847,"o":"m 107 0 l 107 1022 l 511 1022 q 668 988 604 1022 q 772 889 732 954 q 829 728 811 824 q 847 511 847 633 q 810 236 847 350 q 697 61 772 122 q 511 0 622 0 l 107 0 m 218 99 l 503 99 q 636 149 585 99 q 713 292 688 200 q 738 511 738 385 q 724 703 738 625 q 681 831 710 782 q 608 901 653 879 q 503 922 564 922 l 218 922 l 218 99 z "},"Ð":{"ha":929,"x_min":21,"x_max":847,"o":"m 21 479 l 21 556 l 451 556 l 451 479 l 21 479 m 107 0 l 107 1022 l 511 1022 q 668 988 604 1022 q 772 889 732 954 q 829 728 811 824 q 847 511 847 633 q 810 236 847 350 q 697 61 772 122 q 511 0 622 0 l 107 0 m 218 99 l 503 99 q 636 149 585 99 q 713 292 688 200 q 738 511 738 385 q 724 703 738 625 q 681 831 710 782 q 608 901 653 879 q 503 922 564 922 l 218 922 l 218 99 z "},"Ď":{"ha":929,"x_min":107,"x_max":847,"o":"m 107 0 l 107 1022 l 511 1022 q 668 988 604 1022 q 772 889 732 954 q 829 728 811 824 q 847 511 847 633 q 810 236 847 350 q 697 61 772 122 q 511 0 622 0 l 107 0 m 218 99 l 503 99 q 636 149 585 99 q 713 292 688 200 q 738 511 738 385 q 724 703 738 625 q 681 831 710 782 q 608 901 653 879 q 503 922 564 922 l 218 922 l 218 99 z "},"Đ":{"ha":929,"x_min":21,"x_max":847,"o":"m 21 479 l 21 556 l 451 556 l 451 479 l 21 479 m 107 0 l 107 1022 l 511 1022 q 668 988 604 1022 q 772 889 732 954 q 829 728 811 824 q 847 511 847 633 q 810 236 847 350 q 697 61 772 122 q 511 0 622 0 l 107 0 m 218 99 l 503 99 q 636 149 585 99 q 713 292 688 200 q 738 511 738 385 q 724 703 738 625 q 681 831 710 782 q 608 901 653 879 q 503 922 564 922 l 218 922 l 218 99 z "},"Ḋ":{"ha":929,"x_min":107,"x_max":847,"o":"m 107 0 l 107 1022 l 511 1022 q 668 988 604 1022 q 772 889 732 954 q 829 728 811 824 q 847 511 847 633 q 810 236 847 350 q 697 61 772 122 q 511 0 622 0 l 107 0 m 218 99 l 503 99 q 636 149 585 99 q 713 292 688 200 q 738 511 738 385 q 724 703 738 625 q 681 831 710 782 q 608 901 653 879 q 503 922 564 922 l 218 922 l 218 99 z "},"Ḍ":{"ha":929,"x_min":107,"x_max":847,"o":"m 107 0 l 107 1022 l 511 1022 q 668 988 604 1022 q 772 889 732 954 q 829 728 811 824 q 847 511 847 633 q 810 236 847 350 q 697 61 772 122 q 511 0 622 0 l 107 0 m 218 99 l 503 99 q 636 149 585 99 q 713 292 688 200 q 738 511 738 385 q 724 703 738 625 q 681 831 710 782 q 608 901 653 879 q 503 922 564 922 l 218 922 l 218 99 z "},"Ḏ":{"ha":929,"x_min":107,"x_max":847,"o":"m 107 0 l 107 1022 l 511 1022 q 668 988 604 1022 q 772 889 732 954 q 829 728 811 824 q 847 511 847 633 q 810 236 847 350 q 697 61 772 122 q 511 0 622 0 l 107 0 m 218 99 l 503 99 q 636 149 585 99 q 713 292 688 200 q 738 511 738 385 q 724 703 738 625 q 681 831 710 782 q 608 901 653 879 q 503 922 564 922 l 218 922 l 218 99 z "},"E":{"ha":815,"x_min":107,"x_max":736,"o":"m 324 -6 q 253 1 290 -6 q 182 26 215 7 q 128 85 149 46 q 107 193 107 125 l 107 817 q 124 916 107 876 q 171 978 142 956 q 236 1012 200 1001 q 308 1022 272 1022 q 468 1019 394 1021 q 608 1015 542 1017 q 736 1010 674 1013 l 736 921 l 336 921 q 250 892 282 921 q 218 799 218 863 l 218 557 l 675 550 l 675 465 l 218 458 l 218 218 q 235 140 218 167 q 282 106 253 114 q 342 97 311 97 l 736 97 l 736 8 q 602 1 672 4 q 462 -3 532 -1 q 324 -6 392 -4 z "},"É":{"ha":815,"x_min":107,"x_max":736,"o":"m 324 -6 q 253 1 290 -6 q 182 26 215 7 q 128 85 149 46 q 107 193 107 125 l 107 817 q 124 916 107 876 q 171 978 142 956 q 236 1012 200 1001 q 308 1022 272 1022 q 468 1019 394 1021 q 608 1015 542 1017 q 736 1010 674 1013 l 736 921 l 336 921 q 250 892 282 921 q 218 799 218 863 l 218 557 l 675 550 l 675 465 l 218 458 l 218 218 q 235 140 218 167 q 282 106 253 114 q 342 97 311 97 l 736 97 l 736 8 q 602 1 672 4 q 462 -3 532 -1 q 324 -6 392 -4 z "},"Ĕ":{"ha":815,"x_min":107,"x_max":736,"o":"m 324 -6 q 253 1 290 -6 q 182 26 215 7 q 128 85 149 46 q 107 193 107 125 l 107 817 q 124 916 107 876 q 171 978 142 956 q 236 1012 200 1001 q 308 1022 272 1022 q 468 1019 394 1021 q 608 1015 542 1017 q 736 1010 674 1013 l 736 921 l 336 921 q 250 892 282 921 q 218 799 218 863 l 218 557 l 675 550 l 675 465 l 218 458 l 218 218 q 235 140 218 167 q 282 106 253 114 q 342 97 311 97 l 736 97 l 736 8 q 602 1 672 4 q 462 -3 532 -1 q 324 -6 392 -4 z "},"Ě":{"ha":815,"x_min":107,"x_max":736,"o":"m 324 -6 q 253 1 290 -6 q 182 26 215 7 q 128 85 149 46 q 107 193 107 125 l 107 817 q 124 916 107 876 q 171 978 142 956 q 236 1012 200 1001 q 308 1022 272 1022 q 468 1019 394 1021 q 608 1015 542 1017 q 736 1010 674 1013 l 736 921 l 336 921 q 250 892 282 921 q 218 799 218 863 l 218 557 l 675 550 l 675 465 l 218 458 l 218 218 q 235 140 218 167 q 282 106 253 114 q 342 97 311 97 l 736 97 l 736 8 q 602 1 672 4 q 462 -3 532 -1 q 324 -6 392 -4 z "},"Ḝ":{"ha":815,"x_min":107,"x_max":736,"o":"m 324 -6 q 253 1 290 -6 q 182 26 215 7 q 128 85 149 46 q 107 193 107 125 l 107 817 q 124 916 107 876 q 171 978 142 956 q 236 1012 200 1001 q 308 1022 272 1022 q 468 1019 394 1021 q 608 1015 542 1017 q 736 1010 674 1013 l 736 921 l 336 921 q 250 892 282 921 q 218 799 218 863 l 218 557 l 675 550 l 675 465 l 218 458 l 218 218 q 235 140 218 167 q 282 106 253 114 q 342 97 311 97 l 736 97 l 736 8 q 602 1 672 4 q 462 -3 532 -1 q 324 -6 392 -4 z "},"Ê":{"ha":815,"x_min":107,"x_max":736,"o":"m 324 -6 q 253 1 290 -6 q 182 26 215 7 q 128 85 149 46 q 107 193 107 125 l 107 817 q 124 916 107 876 q 171 978 142 956 q 236 1012 200 1001 q 308 1022 272 1022 q 468 1019 394 1021 q 608 1015 542 1017 q 736 1010 674 1013 l 736 921 l 336 921 q 250 892 282 921 q 218 799 218 863 l 218 557 l 675 550 l 675 465 l 218 458 l 218 218 q 235 140 218 167 q 282 106 253 114 q 342 97 311 97 l 736 97 l 736 8 q 602 1 672 4 q 462 -3 532 -1 q 324 -6 392 -4 z "},"Ế":{"ha":815,"x_min":107,"x_max":764,"o":"m 324 -6 q 253 1 290 -6 q 182 26 215 7 q 128 85 149 46 q 107 193 107 125 l 107 817 q 124 916 107 876 q 171 978 142 956 q 236 1012 200 1001 q 308 1022 272 1022 q 468 1019 394 1021 q 608 1015 542 1017 q 736 1010 674 1013 l 736 921 l 336 921 q 250 892 282 921 q 218 799 218 863 l 218 557 l 675 550 l 675 465 l 218 458 l 218 218 q 235 140 218 167 q 282 106 253 114 q 342 97 311 97 l 736 97 l 736 8 q 602 1 672 4 q 462 -3 532 -1 q 324 -6 392 -4 m 396 1235 l 475 1235 l 628 1099 l 561 1099 l 433 1183 l 294 1099 l 228 1099 l 396 1235 m 669 1385 l 764 1385 l 613 1206 l 549 1206 l 669 1385 z "},"Ệ":{"ha":815,"x_min":107,"x_max":736,"o":"m 324 -6 q 253 1 290 -6 q 182 26 215 7 q 128 85 149 46 q 107 193 107 125 l 107 817 q 124 916 107 876 q 171 978 142 956 q 236 1012 200 1001 q 308 1022 272 1022 q 468 1019 394 1021 q 608 1015 542 1017 q 736 1010 674 1013 l 736 921 l 336 921 q 250 892 282 921 q 218 799 218 863 l 218 557 l 675 550 l 675 465 l 218 458 l 218 218 q 235 140 218 167 q 282 106 253 114 q 342 97 311 97 l 736 97 l 736 8 q 602 1 672 4 q 462 -3 532 -1 q 324 -6 392 -4 z "},"Ề":{"ha":815,"x_min":100,"x_max":736,"o":"m 324 -6 q 253 1 290 -6 q 182 26 215 7 q 128 85 149 46 q 107 193 107 125 l 107 817 q 124 916 107 876 q 171 978 142 956 q 236 1012 200 1001 q 308 1022 272 1022 q 468 1019 394 1021 q 608 1015 542 1017 q 736 1010 674 1013 l 736 921 l 336 921 q 250 892 282 921 q 218 799 218 863 l 218 557 l 675 550 l 675 465 l 218 458 l 218 218 q 235 140 218 167 q 282 106 253 114 q 342 97 311 97 l 736 97 l 736 8 q 602 1 672 4 q 462 -3 532 -1 q 324 -6 392 -4 m 396 1235 l 475 1235 l 628 1099 l 561 1099 l 433 1183 l 294 1099 l 228 1099 l 396 1235 m 100 1385 l 194 1385 l 315 1206 l 251 1206 l 100 1385 z "},"Ể":{"ha":815,"x_min":107,"x_max":736,"o":"m 324 -6 q 253 1 290 -6 q 182 26 215 7 q 128 85 149 46 q 107 193 107 125 l 107 817 q 124 916 107 876 q 171 978 142 956 q 236 1012 200 1001 q 308 1022 272 1022 q 468 1019 394 1021 q 608 1015 542 1017 q 736 1010 674 1013 l 736 921 l 336 921 q 250 892 282 921 q 218 799 218 863 l 218 557 l 675 550 l 675 465 l 218 458 l 218 218 q 235 140 218 167 q 282 106 253 114 q 342 97 311 97 l 736 97 l 736 8 q 602 1 672 4 q 462 -3 532 -1 q 324 -6 392 -4 m 228 1099 l 396 1235 l 475 1235 l 628 1099 l 561 1099 l 433 1183 l 294 1099 l 228 1099 m 581 1171 l 581 1221 q 635 1253 619 1233 q 650 1292 650 1272 q 637 1330 650 1317 q 592 1343 624 1343 q 567 1340 581 1343 q 543 1335 554 1338 l 543 1376 q 574 1384 558 1382 q 606 1386 589 1386 q 681 1362 657 1386 q 706 1296 706 1338 q 676 1222 706 1254 q 581 1171 646 1189 z "},"Ễ":{"ha":815,"x_min":107,"x_max":736,"o":"m 324 -6 q 253 1 290 -6 q 182 26 215 7 q 128 85 149 46 q 107 193 107 125 l 107 817 q 124 916 107 876 q 171 978 142 956 q 236 1012 200 1001 q 308 1022 272 1022 q 468 1019 394 1021 q 608 1015 542 1017 q 736 1010 674 1013 l 736 921 l 336 921 q 250 892 282 921 q 218 799 218 863 l 218 557 l 675 550 l 675 465 l 218 458 l 218 218 q 235 140 218 167 q 282 106 253 114 q 342 97 311 97 l 736 97 l 736 8 q 602 1 672 4 q 462 -3 532 -1 q 324 -6 392 -4 m 207 1300 q 226 1371 208 1346 q 269 1406 243 1396 q 321 1415 294 1415 q 393 1401 360 1415 q 457 1372 426 1386 q 519 1357 488 1357 q 574 1372 553 1357 q 594 1418 594 1388 l 650 1418 q 635 1352 649 1378 q 596 1313 621 1326 q 535 1300 571 1300 q 463 1315 497 1300 q 397 1344 429 1331 q 331 1358 364 1358 q 284 1344 304 1358 q 264 1300 264 1329 l 207 1300 m 475 1235 l 628 1099 l 561 1099 l 433 1183 l 294 1099 l 228 1099 l 396 1235 l 475 1235 z "},"Ȅ":{"ha":815,"x_min":107,"x_max":736,"o":"m 324 -6 q 253 1 290 -6 q 182 26 215 7 q 128 85 149 46 q 107 193 107 125 l 107 817 q 124 916 107 876 q 171 978 142 956 q 236 1012 200 1001 q 308 1022 272 1022 q 468 1019 394 1021 q 608 1015 542 1017 q 736 1010 674 1013 l 736 921 l 336 921 q 250 892 282 921 q 218 799 218 863 l 218 557 l 675 550 l 675 465 l 218 458 l 218 218 q 235 140 218 167 q 282 106 253 114 q 342 97 311 97 l 736 97 l 736 8 q 602 1 672 4 q 462 -3 532 -1 q 324 -6 392 -4 m 524 1099 l 350 1288 l 444 1288 l 589 1099 l 524 1099 m 321 1099 l 147 1288 l 242 1288 l 386 1099 l 321 1099 z "},"Ë":{"ha":815,"x_min":107,"x_max":736,"o":"m 324 -6 q 253 1 290 -6 q 182 26 215 7 q 128 85 149 46 q 107 193 107 125 l 107 817 q 124 916 107 876 q 171 978 142 956 q 236 1012 200 1001 q 308 1022 272 1022 q 468 1019 394 1021 q 608 1015 542 1017 q 736 1010 674 1013 l 736 921 l 336 921 q 250 892 282 921 q 218 799 218 863 l 218 557 l 675 550 l 675 465 l 218 458 l 218 218 q 235 140 218 167 q 282 106 253 114 q 342 97 311 97 l 736 97 l 736 8 q 602 1 672 4 q 462 -3 532 -1 q 324 -6 392 -4 m 560 1129 q 538 1151 538 1129 l 538 1260 q 560 1282 538 1282 l 611 1282 q 626 1276 621 1282 q 632 1260 632 1269 l 632 1151 q 611 1129 632 1129 l 560 1129 m 232 1129 q 210 1151 210 1129 l 210 1260 q 232 1282 210 1282 l 283 1282 q 300 1276 294 1282 q 306 1260 306 1269 l 306 1151 q 283 1129 306 1129 l 232 1129 z "},"Ė":{"ha":815,"x_min":107,"x_max":736,"o":"m 324 -6 q 253 1 290 -6 q 182 26 215 7 q 128 85 149 46 q 107 193 107 125 l 107 817 q 124 916 107 876 q 171 978 142 956 q 236 1012 200 1001 q 308 1022 272 1022 q 468 1019 394 1021 q 608 1015 542 1017 q 736 1010 674 1013 l 736 921 l 336 921 q 250 892 282 921 q 218 799 218 863 l 218 557 l 675 550 l 675 465 l 218 458 l 218 218 q 235 140 218 167 q 282 106 253 114 q 342 97 311 97 l 736 97 l 736 8 q 602 1 672 4 q 462 -3 532 -1 q 324 -6 392 -4 z "},"Ẹ":{"ha":815,"x_min":107,"x_max":736,"o":"m 324 -6 q 253 1 290 -6 q 182 26 215 7 q 128 85 149 46 q 107 193 107 125 l 107 817 q 124 916 107 876 q 171 978 142 956 q 236 1012 200 1001 q 308 1022 272 1022 q 468 1019 394 1021 q 608 1015 542 1017 q 736 1010 674 1013 l 736 921 l 336 921 q 250 892 282 921 q 218 799 218 863 l 218 557 l 675 550 l 675 465 l 218 458 l 218 218 q 235 140 218 167 q 282 106 253 114 q 342 97 311 97 l 736 97 l 736 8 q 602 1 672 4 q 462 -3 532 -1 q 324 -6 392 -4 z "},"È":{"ha":815,"x_min":107,"x_max":736,"o":"m 324 -6 q 253 1 290 -6 q 182 26 215 7 q 128 85 149 46 q 107 193 107 125 l 107 817 q 124 916 107 876 q 171 978 142 956 q 236 1012 200 1001 q 308 1022 272 1022 q 468 1019 394 1021 q 608 1015 542 1017 q 736 1010 674 1013 l 736 921 l 336 921 q 250 892 282 921 q 218 799 218 863 l 218 557 l 675 550 l 675 465 l 218 458 l 218 218 q 235 140 218 167 q 282 106 253 114 q 342 97 311 97 l 736 97 l 736 8 q 602 1 672 4 q 462 -3 532 -1 q 324 -6 392 -4 z "},"Ẻ":{"ha":815,"x_min":107,"x_max":736,"o":"m 324 -6 q 253 1 290 -6 q 182 26 215 7 q 128 85 149 46 q 107 193 107 125 l 107 817 q 124 916 107 876 q 171 978 142 956 q 236 1012 200 1001 q 308 1022 272 1022 q 468 1019 394 1021 q 608 1015 542 1017 q 736 1010 674 1013 l 736 921 l 336 921 q 250 892 282 921 q 218 799 218 863 l 218 557 l 675 550 l 675 465 l 218 458 l 218 218 q 235 140 218 167 q 282 106 253 114 q 342 97 311 97 l 736 97 l 736 8 q 602 1 672 4 q 462 -3 532 -1 q 324 -6 392 -4 z "},"Ȇ":{"ha":815,"x_min":107,"x_max":736,"o":"m 324 -6 q 253 1 290 -6 q 182 26 215 7 q 128 85 149 46 q 107 193 107 125 l 107 817 q 124 916 107 876 q 171 978 142 956 q 236 1012 200 1001 q 308 1022 272 1022 q 468 1019 394 1021 q 608 1015 542 1017 q 736 1010 674 1013 l 736 921 l 336 921 q 250 892 282 921 q 218 799 218 863 l 218 557 l 675 550 l 675 465 l 218 458 l 218 218 q 235 140 218 167 q 282 106 253 114 q 342 97 311 97 l 736 97 l 736 8 q 602 1 672 4 q 462 -3 532 -1 q 324 -6 392 -4 z "},"Ē":{"ha":815,"x_min":107,"x_max":736,"o":"m 324 -6 q 253 1 290 -6 q 182 26 215 7 q 128 85 149 46 q 107 193 107 125 l 107 817 q 124 916 107 876 q 171 978 142 956 q 236 1012 200 1001 q 308 1022 272 1022 q 468 1019 394 1021 q 608 1015 542 1017 q 736 1010 674 1013 l 736 921 l 336 921 q 250 892 282 921 q 218 799 218 863 l 218 557 l 675 550 l 675 465 l 218 458 l 218 218 q 235 140 218 167 q 282 106 253 114 q 342 97 311 97 l 736 97 l 736 8 q 602 1 672 4 q 462 -3 532 -1 q 324 -6 392 -4 z "},"Ḗ":{"ha":815,"x_min":107,"x_max":736,"o":"m 324 -6 q 253 1 290 -6 q 182 26 215 7 q 128 85 149 46 q 107 193 107 125 l 107 817 q 124 916 107 876 q 171 978 142 956 q 236 1012 200 1001 q 308 1022 272 1022 q 468 1019 394 1021 q 608 1015 542 1017 q 736 1010 674 1013 l 736 921 l 336 921 q 250 892 282 921 q 218 799 218 863 l 218 557 l 675 550 l 675 465 l 218 458 l 218 218 q 235 140 218 167 q 282 106 253 114 q 342 97 311 97 l 736 97 l 736 8 q 602 1 672 4 q 462 -3 532 -1 q 324 -6 392 -4 z "},"Ḕ":{"ha":815,"x_min":107,"x_max":736,"o":"m 324 -6 q 253 1 290 -6 q 182 26 215 7 q 128 85 149 46 q 107 193 107 125 l 107 817 q 124 916 107 876 q 171 978 142 956 q 236 1012 200 1001 q 308 1022 272 1022 q 468 1019 394 1021 q 608 1015 542 1017 q 736 1010 674 1013 l 736 921 l 336 921 q 250 892 282 921 q 218 799 218 863 l 218 557 l 675 550 l 675 465 l 218 458 l 218 218 q 235 140 218 167 q 282 106 253 114 q 342 97 311 97 l 736 97 l 736 8 q 602 1 672 4 q 462 -3 532 -1 q 324 -6 392 -4 z "},"Ę":{"ha":815,"x_min":107,"x_max":771,"o":"m 324 -6 q 253 1 290 -6 q 182 26 215 7 q 128 85 149 46 q 107 193 107 125 l 107 817 q 124 916 107 876 q 171 978 142 956 q 236 1012 200 1001 q 308 1022 272 1022 q 468 1019 394 1021 q 608 1015 542 1017 q 736 1010 674 1013 l 736 921 l 336 921 q 250 892 282 921 q 218 799 218 863 l 218 557 l 675 550 l 675 465 l 218 458 l 218 218 q 235 140 218 167 q 282 106 253 114 q 342 97 311 97 l 736 97 l 736 8 q 602 1 672 4 q 462 -3 532 -1 q 324 -6 392 -4 z "},"Ẽ":{"ha":815,"x_min":107,"x_max":736,"o":"m 324 -6 q 253 1 290 -6 q 182 26 215 7 q 128 85 149 46 q 107 193 107 125 l 107 817 q 124 916 107 876 q 171 978 142 956 q 236 1012 200 1001 q 308 1022 272 1022 q 468 1019 394 1021 q 608 1015 542 1017 q 736 1010 674 1013 l 736 921 l 336 921 q 250 892 282 921 q 218 799 218 863 l 218 557 l 675 550 l 675 465 l 218 458 l 218 218 q 235 140 218 167 q 282 106 253 114 q 342 97 311 97 l 736 97 l 736 8 q 602 1 672 4 q 462 -3 532 -1 q 324 -6 392 -4 z "},"F":{"ha":788,"x_min":107,"x_max":736,"o":"m 107 0 l 107 817 q 124 916 107 876 q 171 978 142 956 q 236 1012 200 1001 q 308 1022 272 1022 q 441 1019 369 1021 q 588 1016 513 1018 q 736 1008 664 1014 l 736 921 l 335 921 q 249 890 279 921 q 218 800 218 860 l 218 535 l 675 528 l 675 443 l 218 436 l 218 0 l 107 0 z "},"Ḟ":{"ha":788,"x_min":107,"x_max":736,"o":"m 107 0 l 107 817 q 124 916 107 876 q 171 978 142 956 q 236 1012 200 1001 q 308 1022 272 1022 q 441 1019 369 1021 q 588 1016 513 1018 q 736 1008 664 1014 l 736 921 l 335 921 q 249 890 279 921 q 218 800 218 860 l 218 535 l 675 528 l 675 443 l 218 436 l 218 0 l 107 0 z "},"G":{"ha":907,"x_min":82,"x_max":799,"o":"m 410 -7 q 249 23 313 -8 q 149 118 185 54 q 97 281 113 182 q 82 514 82 379 q 98 740 82 643 q 153 902 114 838 q 259 999 192 967 q 428 1031 326 1031 q 540 1026 482 1031 q 654 1014 599 1022 q 757 994 710 1006 l 757 911 q 679 920 729 915 q 567 928 629 925 q 444 931 506 931 q 290 890 344 931 q 213 756 235 849 q 192 513 192 664 q 203 310 192 390 q 243 182 215 229 q 319 115 271 135 q 440 94 367 94 q 575 111 506 94 q 693 147 644 128 l 693 449 l 446 449 l 446 531 q 510 538 472 535 q 590 542 547 540 q 675 544 632 544 q 743 544 711 544 q 799 539 775 543 l 799 0 l 718 0 l 701 72 q 574 21 651 47 q 410 -7 497 -6 z "},"Ğ":{"ha":907,"x_min":82,"x_max":799,"o":"m 410 -7 q 249 23 313 -8 q 149 118 185 54 q 97 281 113 182 q 82 514 82 379 q 98 740 82 643 q 153 902 114 838 q 259 999 192 967 q 428 1031 326 1031 q 540 1026 482 1031 q 654 1014 599 1022 q 757 994 710 1006 l 757 911 q 679 920 729 915 q 567 928 629 925 q 444 931 506 931 q 290 890 344 931 q 213 756 235 849 q 192 513 192 664 q 203 310 192 390 q 243 182 215 229 q 319 115 271 135 q 440 94 367 94 q 575 111 506 94 q 693 147 644 128 l 693 449 l 446 449 l 446 531 q 510 538 472 535 q 590 542 547 540 q 675 544 632 544 q 743 544 711 544 q 799 539 775 543 l 799 0 l 718 0 l 701 72 q 574 21 651 47 q 410 -7 497 -6 z "},"Ǧ":{"ha":907,"x_min":82,"x_max":799,"o":"m 410 -7 q 249 23 313 -8 q 149 118 185 54 q 97 281 113 182 q 82 514 82 379 q 98 740 82 643 q 153 902 114 838 q 259 999 192 967 q 428 1031 326 1031 q 540 1026 482 1031 q 654 1014 599 1022 q 757 994 710 1006 l 757 911 q 679 920 729 915 q 567 928 629 925 q 444 931 506 931 q 290 890 344 931 q 213 756 235 849 q 192 513 192 664 q 203 310 192 390 q 243 182 215 229 q 319 115 271 135 q 440 94 367 94 q 575 111 506 94 q 693 147 644 128 l 693 449 l 446 449 l 446 531 q 510 538 472 535 q 590 542 547 540 q 675 544 632 544 q 743 544 711 544 q 799 539 775 543 l 799 0 l 718 0 l 701 72 q 574 21 651 47 q 410 -7 497 -6 z "},"Ĝ":{"ha":907,"x_min":82,"x_max":799,"o":"m 410 -7 q 249 23 313 -8 q 149 118 185 54 q 97 281 113 182 q 82 514 82 379 q 98 740 82 643 q 153 902 114 838 q 259 999 192 967 q 428 1031 326 1031 q 540 1026 482 1031 q 654 1014 599 1022 q 757 994 710 1006 l 757 911 q 679 920 729 915 q 567 928 629 925 q 444 931 506 931 q 290 890 344 931 q 213 756 235 849 q 192 513 192 664 q 203 310 192 390 q 243 182 215 229 q 319 115 271 135 q 440 94 367 94 q 575 111 506 94 q 693 147 644 128 l 693 449 l 446 449 l 446 531 q 510 538 472 535 q 590 542 547 540 q 675 544 632 544 q 743 544 711 544 q 799 539 775 543 l 799 0 l 718 0 l 701 72 q 574 21 651 47 q 410 -7 497 -6 z "},"Ģ":{"ha":907,"x_min":82,"x_max":799,"o":"m 410 -7 q 249 23 313 -8 q 149 118 185 54 q 97 281 113 182 q 82 514 82 379 q 98 740 82 643 q 153 902 114 838 q 259 999 192 967 q 428 1031 326 1031 q 540 1026 482 1031 q 654 1014 599 1022 q 757 994 710 1006 l 757 911 q 679 920 729 915 q 567 928 629 925 q 444 931 506 931 q 290 890 344 931 q 213 756 235 849 q 192 513 192 664 q 203 310 192 390 q 243 182 215 229 q 319 115 271 135 q 440 94 367 94 q 575 111 506 94 q 693 147 644 128 l 693 449 l 446 449 l 446 531 q 510 538 472 535 q 590 542 547 540 q 675 544 632 544 q 743 544 711 544 q 799 539 775 543 l 799 0 l 718 0 l 701 72 q 574 21 651 47 q 410 -7 497 -6 m 357 -281 l 357 -236 l 399 -229 q 452 -213 431 -224 q 483 -174 474 -203 q 493 -87 493 -146 l 561 -87 q 549 -199 561 -157 q 503 -261 536 -242 q 410 -281 471 -281 l 357 -281 z "},"Ġ":{"ha":907,"x_min":82,"x_max":799,"o":"m 410 -7 q 249 23 313 -8 q 149 118 185 54 q 97 281 113 182 q 82 514 82 379 q 98 740 82 643 q 153 902 114 838 q 259 999 192 967 q 428 1031 326 1031 q 540 1026 482 1031 q 654 1014 599 1022 q 757 994 710 1006 l 757 911 q 679 920 729 915 q 567 928 629 925 q 444 931 506 931 q 290 890 344 931 q 213 756 235 849 q 192 513 192 664 q 203 310 192 390 q 243 182 215 229 q 319 115 271 135 q 440 94 367 94 q 575 111 506 94 q 693 147 644 128 l 693 449 l 446 449 l 446 531 q 510 538 472 535 q 590 542 547 540 q 675 544 632 544 q 743 544 711 544 q 799 539 775 543 l 799 0 l 718 0 l 701 72 q 574 21 651 47 q 410 -7 497 -6 z "},"Ḡ":{"ha":907,"x_min":82,"x_max":799,"o":"m 410 -7 q 249 23 313 -8 q 149 118 185 54 q 97 281 113 182 q 82 514 82 379 q 98 740 82 643 q 153 902 114 838 q 259 999 192 967 q 428 1031 326 1031 q 540 1026 482 1031 q 654 1014 599 1022 q 757 994 710 1006 l 757 911 q 679 920 729 915 q 567 928 629 925 q 444 931 506 931 q 290 890 344 931 q 213 756 235 849 q 192 513 192 664 q 203 310 192 390 q 243 182 215 229 q 319 115 271 135 q 440 94 367 94 q 575 111 506 94 q 693 147 644 128 l 693 449 l 446 449 l 446 531 q 510 538 472 535 q 590 542 547 540 q 675 544 632 544 q 743 544 711 544 q 799 539 775 543 l 799 0 l 718 0 l 701 72 q 574 21 651 47 q 410 -7 497 -6 z "},"H":{"ha":947,"x_min":107,"x_max":839,"o":"m 107 0 l 107 1022 l 218 1022 l 218 549 l 729 549 l 729 1022 l 839 1022 l 839 0 l 729 0 l 729 449 l 218 449 l 218 0 l 107 0 z "},"Ħ":{"ha":947,"x_min":21,"x_max":926,"o":"m 21 729 l 21 793 l 926 793 l 926 729 l 21 729 m 107 0 l 107 1022 l 218 1022 l 218 549 l 729 549 l 729 1022 l 839 1022 l 839 0 l 729 0 l 729 449 l 218 449 l 218 0 l 107 0 z "},"Ḫ":{"ha":947,"x_min":107,"x_max":839,"o":"m 107 0 l 107 1022 l 218 1022 l 218 549 l 729 549 l 729 1022 l 839 1022 l 839 0 l 729 0 l 729 449 l 218 449 l 218 0 l 107 0 z "},"Ĥ":{"ha":947,"x_min":107,"x_max":839,"o":"m 107 0 l 107 1022 l 218 1022 l 218 549 l 729 549 l 729 1022 l 839 1022 l 839 0 l 729 0 l 729 449 l 218 449 l 218 0 l 107 0 z "},"Ḥ":{"ha":947,"x_min":107,"x_max":839,"o":"m 107 0 l 107 1022 l 218 1022 l 218 549 l 729 549 l 729 1022 l 839 1022 l 839 0 l 729 0 l 729 449 l 218 449 l 218 0 l 107 0 z "},"I":{"ha":325,"x_min":107,"x_max":218,"o":"m 107 0 l 107 1022 l 218 1022 l 218 0 l 107 0 z "},"Í":{"ha":325,"x_min":107,"x_max":374,"o":"m 107 0 l 107 1022 l 218 1022 l 218 0 l 107 0 z "},"Ĭ":{"ha":325,"x_min":-29,"x_max":336,"o":"m 107 0 l 107 1022 l 218 1022 l 218 0 l 107 0 z "},"Î":{"ha":325,"x_min":-42,"x_max":358,"o":"m 107 0 l 107 1022 l 218 1022 l 218 0 l 107 0 z "},"Ȉ":{"ha":325,"x_min":-122,"x_max":318,"o":"m 107 0 l 107 1022 l 218 1022 l 218 0 l 107 0 m 253 1099 l 79 1288 l 174 1288 l 318 1099 l 253 1099 m 50 1099 l -124 1288 l -29 1288 l 115 1099 l 50 1099 z "},"Ï":{"ha":325,"x_min":-60,"x_max":363,"o":"m 107 0 l 107 1022 l 218 1022 l 218 0 l 107 0 m 290 1129 q 268 1151 268 1129 l 268 1260 q 290 1282 268 1282 l 342 1282 q 357 1276 351 1282 q 363 1260 363 1269 l 363 1151 q 342 1129 363 1129 l 290 1129 m -37 1129 q -60 1151 -60 1129 l -60 1260 q -37 1282 -60 1282 l 14 1282 q 31 1276 25 1282 q 36 1260 36 1269 l 36 1151 q 14 1129 36 1129 l -37 1129 z "},"Ḯ":{"ha":325,"x_min":-60,"x_max":369,"o":"m 107 0 l 107 1022 l 218 1022 l 218 0 l 107 0 m 290 1129 q 268 1151 268 1129 l 268 1260 q 290 1282 268 1282 l 342 1282 q 357 1276 351 1282 q 363 1260 363 1269 l 363 1151 q 342 1129 363 1129 l 290 1129 m -37 1129 q -60 1151 -60 1129 l -60 1260 q -37 1282 -60 1282 l 14 1282 q 31 1276 25 1282 q 36 1260 36 1269 l 36 1151 q 14 1129 36 1129 l -37 1129 z "},"İ":{"ha":325,"x_min":107,"x_max":218,"o":"m 107 0 l 107 1022 l 218 1022 l 218 0 l 107 0 z "},"Ị":{"ha":325,"x_min":107,"x_max":218,"o":"m 107 0 l 107 1022 l 218 1022 l 218 0 l 107 0 z "},"Ì":{"ha":325,"x_min":-36,"x_max":218,"o":"m 107 0 l 107 1022 l 218 1022 l 218 0 l 107 0 z "},"Ỉ":{"ha":325,"x_min":93,"x_max":269,"o":"m 107 0 l 107 1022 l 218 1022 l 218 0 l 107 0 z "},"Ȋ":{"ha":325,"x_min":-25,"x_max":340,"o":"m 107 0 l 107 1022 l 218 1022 l 218 0 l 107 0 z "},"Ī":{"ha":325,"x_min":-31,"x_max":338,"o":"m 107 0 l 107 1022 l 218 1022 l 218 0 l 107 0 z "},"Į":{"ha":325,"x_min":71,"x_max":253,"o":"m 107 0 l 107 1022 l 218 1022 l 218 0 l 107 0 z "},"Ĩ":{"ha":325,"x_min":-76,"x_max":414,"o":"m 107 0 l 107 1022 l 218 1022 l 218 0 l 107 0 z "},"J":{"ha":535,"x_min":38,"x_max":426,"o":"m 194 -8 q 111 1 156 -8 q 38 24 67 11 l 38 108 q 105 97 67 103 q 174 90 143 90 q 250 103 218 90 q 299 147 282 115 q 317 238 317 179 l 317 1022 l 426 1022 l 426 224 q 401 89 426 140 q 324 15 375 38 q 194 -8 274 -8 z "},"Ĵ":{"ha":535,"x_min":38,"x_max":568,"o":"m 194 -8 q 111 1 156 -8 q 38 24 67 11 l 38 108 q 105 97 67 103 q 174 90 143 90 q 250 103 218 90 q 299 147 282 115 q 317 238 317 179 l 317 1022 l 426 1022 l 426 224 q 401 89 426 140 q 324 15 375 38 q 194 -8 274 -8 z "},"K":{"ha":840,"x_min":107,"x_max":799,"o":"m 107 0 l 107 1022 l 218 1022 l 218 560 l 397 560 l 678 1022 l 794 1022 l 485 511 l 799 0 l 681 0 l 397 460 l 218 460 l 218 0 l 107 0 z "},"Ķ":{"ha":840,"x_min":107,"x_max":799,"o":"m 107 0 l 107 1022 l 218 1022 l 218 560 l 397 560 l 678 1022 l 794 1022 l 485 511 l 799 0 l 681 0 l 397 460 l 218 460 l 218 0 l 107 0 m 292 -281 l 292 -236 l 333 -229 q 387 -213 365 -224 q 418 -174 408 -203 q 428 -87 428 -146 l 496 -87 q 483 -199 496 -157 q 438 -261 471 -242 q 344 -281 406 -281 l 292 -281 z "},"L":{"ha":739,"x_min":107,"x_max":703,"o":"m 313 0 q 206 19 253 0 q 133 83 160 38 q 107 206 107 128 l 107 1022 l 218 1022 l 218 221 q 235 145 218 171 q 279 110 251 119 q 336 101 307 101 l 703 101 l 703 0 l 313 0 z "},"Ĺ":{"ha":739,"x_min":107,"x_max":703,"o":"m 313 0 q 206 19 253 0 q 133 83 160 38 q 107 206 107 128 l 107 1022 l 218 1022 l 218 221 q 235 145 218 171 q 279 110 251 119 q 336 101 307 101 l 703 101 l 703 0 l 313 0 z "},"Ľ":{"ha":739,"x_min":107,"x_max":703,"o":"m 313 0 q 206 19 253 0 q 133 83 160 38 q 107 206 107 128 l 107 1022 l 218 1022 l 218 221 q 235 145 218 171 q 279 110 251 119 q 336 101 307 101 l 703 101 l 703 0 l 313 0 m 347 808 l 339 1004 l 339 1088 l 440 1088 l 440 1004 l 432 808 l 347 808 z "},"Ļ":{"ha":739,"x_min":107,"x_max":703,"o":"m 313 0 q 206 19 253 0 q 133 83 160 38 q 107 206 107 128 l 107 1022 l 218 1022 l 218 221 q 235 145 218 171 q 279 110 251 119 q 336 101 307 101 l 703 101 l 703 0 l 313 0 m 265 -281 l 265 -236 l 307 -229 q 360 -213 339 -224 q 392 -174 382 -203 q 401 -87 401 -146 l 469 -87 q 457 -199 469 -157 q 412 -261 444 -242 q 318 -281 379 -281 l 265 -281 z "},"Ŀ":{"ha":739,"x_min":107,"x_max":703,"o":"m 313 0 q 206 19 253 0 q 133 83 160 38 q 107 206 107 128 l 107 1022 l 218 1022 l 218 221 q 235 145 218 171 q 279 110 251 119 q 336 101 307 101 l 703 101 l 703 0 l 313 0 z "},"Ḷ":{"ha":739,"x_min":107,"x_max":703,"o":"m 313 0 q 206 19 253 0 q 133 83 160 38 q 107 206 107 128 l 107 1022 l 218 1022 l 218 221 q 235 145 218 171 q 279 110 251 119 q 336 101 307 101 l 703 101 l 703 0 l 313 0 z "},"Ḻ":{"ha":739,"x_min":107,"x_max":703,"o":"m 313 0 q 206 19 253 0 q 133 83 160 38 q 107 206 107 128 l 107 1022 l 218 1022 l 218 221 q 235 145 218 171 q 279 110 251 119 q 336 101 307 101 l 703 101 l 703 0 l 313 0 z "},"Ł":{"ha":739,"x_min":3,"x_max":703,"o":"m 3 436 l 3 501 l 121 553 l 206 575 l 406 663 l 406 599 l 206 511 l 121 488 l 3 436 m 313 0 q 206 19 253 0 q 133 83 160 38 q 107 206 107 128 l 107 1022 l 218 1022 l 218 221 q 235 145 218 171 q 279 110 251 119 q 336 101 307 101 l 703 101 l 703 0 l 313 0 z "},"M":{"ha":1160,"x_min":79,"x_max":1081,"o":"m 79 0 l 196 1022 l 308 1022 l 581 139 l 847 1022 l 961 1022 l 1081 0 l 974 0 l 871 896 l 889 893 l 631 0 l 529 0 l 264 892 l 285 894 l 186 0 l 79 0 z "},"Ṁ":{"ha":1160,"x_min":79,"x_max":1081,"o":"m 79 0 l 196 1022 l 308 1022 l 581 139 l 847 1022 l 961 1022 l 1081 0 l 974 0 l 871 896 l 889 893 l 631 0 l 529 0 l 264 892 l 285 894 l 186 0 l 79 0 z "},"Ṃ":{"ha":1160,"x_min":79,"x_max":1081,"o":"m 79 0 l 196 1022 l 308 1022 l 581 139 l 847 1022 l 961 1022 l 1081 0 l 974 0 l 871 896 l 889 893 l 631 0 l 529 0 l 264 892 l 285 894 l 186 0 l 79 0 z "},"N":{"ha":949,"x_min":126,"x_max":860,"o":"m 126 0 l 126 1022 l 217 1022 l 750 190 l 750 1022 l 860 1022 l 860 0 l 769 0 l 236 832 l 236 0 l 126 0 z "},"Ń":{"ha":949,"x_min":126,"x_max":860,"o":"m 126 0 l 126 1022 l 217 1022 l 750 190 l 750 1022 l 860 1022 l 860 0 l 769 0 l 236 832 l 236 0 l 126 0 z "},"Ň":{"ha":949,"x_min":126,"x_max":860,"o":"m 126 0 l 126 1022 l 217 1022 l 750 190 l 750 1022 l 860 1022 l 860 0 l 769 0 l 236 832 l 236 0 l 126 0 z "},"Ņ":{"ha":949,"x_min":126,"x_max":860,"o":"m 126 0 l 126 1022 l 217 1022 l 750 190 l 750 1022 l 860 1022 l 860 0 l 769 0 l 236 832 l 236 0 l 126 0 m 357 -281 l 357 -236 l 399 -229 q 452 -213 431 -224 q 483 -174 474 -203 q 493 -87 493 -146 l 561 -87 q 549 -199 561 -157 q 503 -261 536 -242 q 410 -281 471 -281 l 357 -281 z "},"Ṅ":{"ha":949,"x_min":126,"x_max":860,"o":"m 126 0 l 126 1022 l 217 1022 l 750 190 l 750 1022 l 860 1022 l 860 0 l 769 0 l 236 832 l 236 0 l 126 0 z "},"Ṇ":{"ha":949,"x_min":126,"x_max":860,"o":"m 126 0 l 126 1022 l 217 1022 l 750 190 l 750 1022 l 860 1022 l 860 0 l 769 0 l 236 832 l 236 0 l 126 0 z "},"Ŋ":{"ha":943,"x_min":126,"x_max":860,"o":"m 610 -337 q 526 -328 571 -337 q 453 -306 482 -318 l 453 -221 q 522 -233 483 -226 q 593 -239 561 -239 q 675 -226 640 -239 q 730 -182 710 -214 q 750 -92 750 -150 l 750 57 l 860 57 l 860 -106 q 832 -240 860 -189 q 749 -315 804 -292 q 610 -337 693 -337 m 126 0 l 126 1022 l 217 1022 l 750 190 l 750 1022 l 860 1022 l 860 0 l 769 0 l 236 832 l 236 0 l 126 0 z "},"Ṉ":{"ha":949,"x_min":126,"x_max":860,"o":"m 126 0 l 126 1022 l 217 1022 l 750 190 l 750 1022 l 860 1022 l 860 0 l 769 0 l 236 832 l 236 0 l 126 0 z "},"Ñ":{"ha":949,"x_min":126,"x_max":860,"o":"m 126 0 l 126 1022 l 217 1022 l 750 190 l 750 1022 l 860 1022 l 860 0 l 769 0 l 236 832 l 236 0 l 126 0 z "},"O":{"ha":953,"x_min":82,"x_max":871,"o":"m 476 -8 q 303 10 378 -8 q 180 82 229 29 q 106 238 131 135 q 82 507 82 340 q 107 777 82 674 q 182 935 132 881 q 306 1010 232 990 q 476 1031 379 1031 q 651 1010 576 1031 q 774 935 725 990 q 847 777 824 881 q 871 507 871 674 q 847 238 871 340 q 773 82 822 135 q 650 10 724 29 q 476 -8 576 -8 m 476 90 q 608 106 554 90 q 697 165 663 121 q 746 290 731 208 q 761 507 761 372 q 745 732 761 647 q 695 860 729 817 q 608 917 661 903 q 476 931 554 931 q 351 917 404 931 q 262 860 297 903 q 209 732 226 817 q 192 507 192 647 q 206 290 192 372 q 254 165 221 208 q 342 106 288 121 q 476 90 397 90 z "},"Ó":{"ha":953,"x_min":82,"x_max":871,"o":"m 476 -8 q 303 10 378 -8 q 180 82 229 29 q 106 238 131 135 q 82 507 82 340 q 107 777 82 674 q 182 935 132 881 q 306 1010 232 990 q 476 1031 379 1031 q 651 1010 576 1031 q 774 935 725 990 q 847 777 824 881 q 871 507 871 674 q 847 238 871 340 q 773 82 822 135 q 650 10 724 29 q 476 -8 576 -8 m 476 90 q 608 106 554 90 q 697 165 663 121 q 746 290 731 208 q 761 507 761 372 q 745 732 761 647 q 695 860 729 817 q 608 917 661 903 q 476 931 554 931 q 351 917 404 931 q 262 860 297 903 q 209 732 226 817 q 192 507 192 647 q 206 290 192 372 q 254 165 221 208 q 342 106 288 121 q 476 90 397 90 z "},"Ŏ":{"ha":953,"x_min":82,"x_max":871,"o":"m 476 -8 q 303 10 378 -8 q 180 82 229 29 q 106 238 131 135 q 82 507 82 340 q 107 777 82 674 q 182 935 132 881 q 306 1010 232 990 q 476 1031 379 1031 q 651 1010 576 1031 q 774 935 725 990 q 847 777 824 881 q 871 507 871 674 q 847 238 871 340 q 773 82 822 135 q 650 10 724 29 q 476 -8 576 -8 m 476 90 q 608 106 554 90 q 697 165 663 121 q 746 290 731 208 q 761 507 761 372 q 745 732 761 647 q 695 860 729 817 q 608 917 661 903 q 476 931 554 931 q 351 917 404 931 q 262 860 297 903 q 209 732 226 817 q 192 507 192 647 q 206 290 192 372 q 254 165 221 208 q 342 106 288 121 q 476 90 397 90 z "},"Ô":{"ha":953,"x_min":82,"x_max":871,"o":"m 476 -8 q 303 10 378 -8 q 180 82 229 29 q 106 238 131 135 q 82 507 82 340 q 107 777 82 674 q 182 935 132 881 q 306 1010 232 990 q 476 1031 379 1031 q 651 1010 576 1031 q 774 935 725 990 q 847 777 824 881 q 871 507 871 674 q 847 238 871 340 q 773 82 822 135 q 650 10 724 29 q 476 -8 576 -8 m 476 90 q 608 106 554 90 q 697 165 663 121 q 746 290 731 208 q 761 507 761 372 q 745 732 761 647 q 695 860 729 817 q 608 917 661 903 q 476 931 554 931 q 351 917 404 931 q 262 860 297 903 q 209 732 226 817 q 192 507 192 647 q 206 290 192 372 q 254 165 221 208 q 342 106 288 121 q 476 90 397 90 z "},"Ố":{"ha":953,"x_min":82,"x_max":871,"o":"m 476 -8 q 303 10 378 -8 q 180 82 229 29 q 106 238 131 135 q 82 507 82 340 q 107 777 82 674 q 182 935 132 881 q 306 1010 232 990 q 476 1031 379 1031 q 651 1010 576 1031 q 774 935 725 990 q 847 777 824 881 q 871 507 871 674 q 847 238 871 340 q 773 82 822 135 q 650 10 724 29 q 476 -8 576 -8 m 476 90 q 608 106 554 90 q 697 165 663 121 q 746 290 731 208 q 761 507 761 372 q 745 732 761 647 q 695 860 729 817 q 608 917 661 903 q 476 931 554 931 q 351 917 404 931 q 262 860 297 903 q 209 732 226 817 q 192 507 192 647 q 206 290 192 372 q 254 165 221 208 q 342 106 288 121 q 476 90 397 90 m 440 1235 l 519 1235 l 672 1099 l 606 1099 l 478 1183 l 339 1099 l 272 1099 l 440 1235 m 714 1385 l 808 1385 l 657 1206 l 593 1206 l 714 1385 z "},"Ộ":{"ha":953,"x_min":82,"x_max":871,"o":"m 476 -8 q 303 10 378 -8 q 180 82 229 29 q 106 238 131 135 q 82 507 82 340 q 107 777 82 674 q 182 935 132 881 q 306 1010 232 990 q 476 1031 379 1031 q 651 1010 576 1031 q 774 935 725 990 q 847 777 824 881 q 871 507 871 674 q 847 238 871 340 q 773 82 822 135 q 650 10 724 29 q 476 -8 576 -8 m 476 90 q 608 106 554 90 q 697 165 663 121 q 746 290 731 208 q 761 507 761 372 q 745 732 761 647 q 695 860 729 817 q 608 917 661 903 q 476 931 554 931 q 351 917 404 931 q 262 860 297 903 q 209 732 226 817 q 192 507 192 647 q 206 290 192 372 q 254 165 221 208 q 342 106 288 121 q 476 90 397 90 z "},"Ồ":{"ha":953,"x_min":82,"x_max":871,"o":"m 476 -8 q 303 10 378 -8 q 180 82 229 29 q 106 238 131 135 q 82 507 82 340 q 107 777 82 674 q 182 935 132 881 q 306 1010 232 990 q 476 1031 379 1031 q 651 1010 576 1031 q 774 935 725 990 q 847 777 824 881 q 871 507 871 674 q 847 238 871 340 q 773 82 822 135 q 650 10 724 29 q 476 -8 576 -8 m 476 90 q 608 106 554 90 q 697 165 663 121 q 746 290 731 208 q 761 507 761 372 q 745 732 761 647 q 695 860 729 817 q 608 917 661 903 q 476 931 554 931 q 351 917 404 931 q 262 860 297 903 q 209 732 226 817 q 192 507 192 647 q 206 290 192 372 q 254 165 221 208 q 342 106 288 121 q 476 90 397 90 m 440 1235 l 519 1235 l 672 1099 l 606 1099 l 478 1183 l 339 1099 l 272 1099 l 440 1235 m 144 1385 l 239 1385 l 360 1206 l 296 1206 l 144 1385 z "},"Ổ":{"ha":953,"x_min":82,"x_max":871,"o":"m 476 -8 q 303 10 378 -8 q 180 82 229 29 q 106 238 131 135 q 82 507 82 340 q 107 777 82 674 q 182 935 132 881 q 306 1010 232 990 q 476 1031 379 1031 q 651 1010 576 1031 q 774 935 725 990 q 847 777 824 881 q 871 507 871 674 q 847 238 871 340 q 773 82 822 135 q 650 10 724 29 q 476 -8 576 -8 m 476 90 q 608 106 554 90 q 697 165 663 121 q 746 290 731 208 q 761 507 761 372 q 745 732 761 647 q 695 860 729 817 q 608 917 661 903 q 476 931 554 931 q 351 917 404 931 q 262 860 297 903 q 209 732 226 817 q 192 507 192 647 q 206 290 192 372 q 254 165 221 208 q 342 106 288 121 q 476 90 397 90 m 272 1099 l 440 1235 l 519 1235 l 672 1099 l 606 1099 l 478 1183 l 339 1099 l 272 1099 m 625 1171 l 625 1221 q 679 1253 664 1233 q 694 1292 694 1272 q 681 1330 694 1317 q 636 1343 668 1343 q 612 1340 625 1343 q 588 1335 599 1338 l 588 1376 q 618 1384 603 1382 q 650 1386 633 1386 q 726 1362 701 1386 q 750 1296 750 1338 q 720 1222 750 1254 q 625 1171 690 1189 z "},"Ỗ":{"ha":953,"x_min":82,"x_max":871,"o":"m 476 -8 q 303 10 378 -8 q 180 82 229 29 q 106 238 131 135 q 82 507 82 340 q 107 777 82 674 q 182 935 132 881 q 306 1010 232 990 q 476 1031 379 1031 q 651 1010 576 1031 q 774 935 725 990 q 847 777 824 881 q 871 507 871 674 q 847 238 871 340 q 773 82 822 135 q 650 10 724 29 q 476 -8 576 -8 m 476 90 q 608 106 554 90 q 697 165 663 121 q 746 290 731 208 q 761 507 761 372 q 745 732 761 647 q 695 860 729 817 q 608 917 661 903 q 476 931 554 931 q 351 917 404 931 q 262 860 297 903 q 209 732 226 817 q 192 507 192 647 q 206 290 192 372 q 254 165 221 208 q 342 106 288 121 q 476 90 397 90 m 251 1300 q 270 1371 253 1346 q 313 1406 288 1396 q 365 1415 339 1415 q 438 1401 404 1415 q 501 1372 471 1386 q 564 1357 532 1357 q 618 1372 597 1357 q 639 1418 639 1388 l 694 1418 q 679 1352 693 1378 q 640 1313 665 1326 q 579 1300 615 1300 q 508 1315 542 1300 q 441 1344 474 1331 q 375 1358 408 1358 q 328 1344 349 1358 q 308 1300 308 1329 l 251 1300 m 519 1235 l 672 1099 l 606 1099 l 478 1183 l 339 1099 l 272 1099 l 440 1235 l 519 1235 z "},"Ȍ":{"ha":953,"x_min":82,"x_max":871,"o":"m 476 -8 q 303 10 378 -8 q 180 82 229 29 q 106 238 131 135 q 82 507 82 340 q 107 777 82 674 q 182 935 132 881 q 306 1010 232 990 q 476 1031 379 1031 q 651 1010 576 1031 q 774 935 725 990 q 847 777 824 881 q 871 507 871 674 q 847 238 871 340 q 773 82 822 135 q 650 10 724 29 q 476 -8 576 -8 m 476 90 q 608 106 554 90 q 697 165 663 121 q 746 290 731 208 q 761 507 761 372 q 745 732 761 647 q 695 860 729 817 q 608 917 661 903 q 476 931 554 931 q 351 917 404 931 q 262 860 297 903 q 209 732 226 817 q 192 507 192 647 q 206 290 192 372 q 254 165 221 208 q 342 106 288 121 q 476 90 397 90 m 568 1099 l 394 1288 l 489 1288 l 633 1099 l 568 1099 m 365 1099 l 192 1288 l 286 1288 l 431 1099 l 365 1099 z "},"Ö":{"ha":953,"x_min":82,"x_max":871,"o":"m 476 -8 q 303 10 378 -8 q 180 82 229 29 q 106 238 131 135 q 82 507 82 340 q 107 777 82 674 q 182 935 132 881 q 306 1010 232 990 q 476 1031 379 1031 q 651 1010 576 1031 q 774 935 725 990 q 847 777 824 881 q 871 507 871 674 q 847 238 871 340 q 773 82 822 135 q 650 10 724 29 q 476 -8 576 -8 m 476 90 q 608 106 554 90 q 697 165 663 121 q 746 290 731 208 q 761 507 761 372 q 745 732 761 647 q 695 860 729 817 q 608 917 661 903 q 476 931 554 931 q 351 917 404 931 q 262 860 297 903 q 209 732 226 817 q 192 507 192 647 q 206 290 192 372 q 254 165 221 208 q 342 106 288 121 q 476 90 397 90 m 604 1129 q 582 1151 582 1129 l 582 1260 q 604 1282 582 1282 l 656 1282 q 671 1276 665 1282 q 676 1260 676 1269 l 676 1151 q 656 1129 676 1129 l 604 1129 m 276 1129 q 254 1151 254 1129 l 254 1260 q 276 1282 254 1282 l 328 1282 q 344 1276 339 1282 q 350 1260 350 1269 l 350 1151 q 328 1129 350 1129 l 276 1129 z "},"Ȫ":{"ha":953,"x_min":82,"x_max":871,"o":"m 476 -8 q 303 10 378 -8 q 180 82 229 29 q 106 238 131 135 q 82 507 82 340 q 107 777 82 674 q 182 935 132 881 q 306 1010 232 990 q 476 1031 379 1031 q 651 1010 576 1031 q 774 935 725 990 q 847 777 824 881 q 871 507 871 674 q 847 238 871 340 q 773 82 822 135 q 650 10 724 29 q 476 -8 576 -8 m 476 90 q 608 106 554 90 q 697 165 663 121 q 746 290 731 208 q 761 507 761 372 q 745 732 761 647 q 695 860 729 817 q 608 917 661 903 q 476 931 554 931 q 351 917 404 931 q 262 860 297 903 q 209 732 226 817 q 192 507 192 647 q 206 290 192 372 q 254 165 221 208 q 342 106 288 121 q 476 90 397 90 m 624 1129 q 601 1151 601 1129 l 601 1260 q 624 1282 601 1282 l 675 1282 q 690 1276 685 1282 q 696 1260 696 1269 l 696 1151 q 675 1129 696 1129 l 624 1129 m 296 1129 q 274 1151 274 1129 l 274 1260 q 296 1282 274 1282 l 347 1282 q 364 1276 358 1282 q 369 1260 369 1269 l 369 1151 q 347 1129 369 1129 l 296 1129 z "},"Ȱ":{"ha":953,"x_min":82,"x_max":871,"o":"m 476 -8 q 303 10 378 -8 q 180 82 229 29 q 106 238 131 135 q 82 507 82 340 q 107 777 82 674 q 182 935 132 881 q 306 1010 232 990 q 476 1031 379 1031 q 651 1010 576 1031 q 774 935 725 990 q 847 777 824 881 q 871 507 871 674 q 847 238 871 340 q 773 82 822 135 q 650 10 724 29 q 476 -8 576 -8 m 476 90 q 608 106 554 90 q 697 165 663 121 q 746 290 731 208 q 761 507 761 372 q 745 732 761 647 q 695 860 729 817 q 608 917 661 903 q 476 931 554 931 q 351 917 404 931 q 262 860 297 903 q 209 732 226 817 q 192 507 192 647 q 206 290 192 372 q 254 165 221 208 q 342 106 288 121 q 476 90 397 90 z "},"Ọ":{"ha":953,"x_min":82,"x_max":871,"o":"m 476 -8 q 303 10 378 -8 q 180 82 229 29 q 106 238 131 135 q 82 507 82 340 q 107 777 82 674 q 182 935 132 881 q 306 1010 232 990 q 476 1031 379 1031 q 651 1010 576 1031 q 774 935 725 990 q 847 777 824 881 q 871 507 871 674 q 847 238 871 340 q 773 82 822 135 q 650 10 724 29 q 476 -8 576 -8 m 476 90 q 608 106 554 90 q 697 165 663 121 q 746 290 731 208 q 761 507 761 372 q 745 732 761 647 q 695 860 729 817 q 608 917 661 903 q 476 931 554 931 q 351 917 404 931 q 262 860 297 903 q 209 732 226 817 q 192 507 192 647 q 206 290 192 372 q 254 165 221 208 q 342 106 288 121 q 476 90 397 90 z "},"Ò":{"ha":953,"x_min":82,"x_max":871,"o":"m 476 -8 q 303 10 378 -8 q 180 82 229 29 q 106 238 131 135 q 82 507 82 340 q 107 777 82 674 q 182 935 132 881 q 306 1010 232 990 q 476 1031 379 1031 q 651 1010 576 1031 q 774 935 725 990 q 847 777 824 881 q 871 507 871 674 q 847 238 871 340 q 773 82 822 135 q 650 10 724 29 q 476 -8 576 -8 m 476 90 q 608 106 554 90 q 697 165 663 121 q 746 290 731 208 q 761 507 761 372 q 745 732 761 647 q 695 860 729 817 q 608 917 661 903 q 476 931 554 931 q 351 917 404 931 q 262 860 297 903 q 209 732 226 817 q 192 507 192 647 q 206 290 192 372 q 254 165 221 208 q 342 106 288 121 q 476 90 397 90 z "},"Ỏ":{"ha":953,"x_min":82,"x_max":871,"o":"m 476 -8 q 303 10 378 -8 q 180 82 229 29 q 106 238 131 135 q 82 507 82 340 q 107 777 82 674 q 182 935 132 881 q 306 1010 232 990 q 476 1031 379 1031 q 651 1010 576 1031 q 774 935 725 990 q 847 777 824 881 q 871 507 871 674 q 847 238 871 340 q 773 82 822 135 q 650 10 724 29 q 476 -8 576 -8 m 476 90 q 608 106 554 90 q 697 165 663 121 q 746 290 731 208 q 761 507 761 372 q 745 732 761 647 q 695 860 729 817 q 608 917 661 903 q 476 931 554 931 q 351 917 404 931 q 262 860 297 903 q 209 732 226 817 q 192 507 192 647 q 206 290 192 372 q 254 165 221 208 q 342 106 288 121 q 476 90 397 90 z "},"Ơ":{"ha":953,"x_min":82,"x_max":889,"o":"m 525 960 l 525 1022 l 700 1022 q 779 1056 749 1022 q 810 1179 810 1090 l 889 1179 q 865 1050 889 1099 q 803 981 842 1001 q 717 960 764 960 l 525 960 m 476 -8 q 303 10 378 -8 q 180 82 229 29 q 106 238 131 135 q 82 507 82 340 q 107 777 82 674 q 182 935 132 881 q 306 1010 232 990 q 476 1031 379 1031 q 651 1010 576 1031 q 774 935 725 990 q 847 777 824 881 q 871 507 871 674 q 847 238 871 340 q 773 82 822 135 q 650 10 724 29 q 476 -8 576 -8 m 476 90 q 608 106 554 90 q 697 165 663 121 q 746 290 731 208 q 761 507 761 372 q 745 732 761 647 q 695 860 729 817 q 608 917 661 903 q 476 931 554 931 q 351 917 404 931 q 262 860 297 903 q 209 732 226 817 q 192 507 192 647 q 206 290 192 372 q 254 165 221 208 q 342 106 288 121 q 476 90 397 90 z "},"Ớ":{"ha":953,"x_min":82,"x_max":889,"o":"m 525 960 l 525 1022 l 700 1022 q 779 1056 749 1022 q 810 1179 810 1090 l 889 1179 q 865 1050 889 1099 q 803 981 842 1001 q 717 960 764 960 l 525 960 m 476 -8 q 303 10 378 -8 q 180 82 229 29 q 106 238 131 135 q 82 507 82 340 q 107 777 82 674 q 182 935 132 881 q 306 1010 232 990 q 476 1031 379 1031 q 651 1010 576 1031 q 774 935 725 990 q 847 777 824 881 q 871 507 871 674 q 847 238 871 340 q 773 82 822 135 q 650 10 724 29 q 476 -8 576 -8 m 476 90 q 608 106 554 90 q 697 165 663 121 q 746 290 731 208 q 761 507 761 372 q 745 732 761 647 q 695 860 729 817 q 608 917 661 903 q 476 931 554 931 q 351 917 404 931 q 262 860 297 903 q 209 732 226 817 q 192 507 192 647 q 206 290 192 372 q 254 165 221 208 q 342 106 288 121 q 476 90 397 90 z "},"Ợ":{"ha":953,"x_min":82,"x_max":889,"o":"m 525 960 l 525 1022 l 700 1022 q 779 1056 749 1022 q 810 1179 810 1090 l 889 1179 q 865 1050 889 1099 q 803 981 842 1001 q 717 960 764 960 l 525 960 m 476 -8 q 303 10 378 -8 q 180 82 229 29 q 106 238 131 135 q 82 507 82 340 q 107 777 82 674 q 182 935 132 881 q 306 1010 232 990 q 476 1031 379 1031 q 651 1010 576 1031 q 774 935 725 990 q 847 777 824 881 q 871 507 871 674 q 847 238 871 340 q 773 82 822 135 q 650 10 724 29 q 476 -8 576 -8 m 476 90 q 608 106 554 90 q 697 165 663 121 q 746 290 731 208 q 761 507 761 372 q 745 732 761 647 q 695 860 729 817 q 608 917 661 903 q 476 931 554 931 q 351 917 404 931 q 262 860 297 903 q 209 732 226 817 q 192 507 192 647 q 206 290 192 372 q 254 165 221 208 q 342 106 288 121 q 476 90 397 90 z "},"Ờ":{"ha":953,"x_min":82,"x_max":889,"o":"m 525 960 l 525 1022 l 700 1022 q 779 1056 749 1022 q 810 1179 810 1090 l 889 1179 q 865 1050 889 1099 q 803 981 842 1001 q 717 960 764 960 l 525 960 m 476 -8 q 303 10 378 -8 q 180 82 229 29 q 106 238 131 135 q 82 507 82 340 q 107 777 82 674 q 182 935 132 881 q 306 1010 232 990 q 476 1031 379 1031 q 651 1010 576 1031 q 774 935 725 990 q 847 777 824 881 q 871 507 871 674 q 847 238 871 340 q 773 82 822 135 q 650 10 724 29 q 476 -8 576 -8 m 476 90 q 608 106 554 90 q 697 165 663 121 q 746 290 731 208 q 761 507 761 372 q 745 732 761 647 q 695 860 729 817 q 608 917 661 903 q 476 931 554 931 q 351 917 404 931 q 262 860 297 903 q 209 732 226 817 q 192 507 192 647 q 206 290 192 372 q 254 165 221 208 q 342 106 288 121 q 476 90 397 90 z "},"Ở":{"ha":953,"x_min":82,"x_max":889,"o":"m 525 960 l 525 1022 l 700 1022 q 779 1056 749 1022 q 810 1179 810 1090 l 889 1179 q 865 1050 889 1099 q 803 981 842 1001 q 717 960 764 960 l 525 960 m 476 -8 q 303 10 378 -8 q 180 82 229 29 q 106 238 131 135 q 82 507 82 340 q 107 777 82 674 q 182 935 132 881 q 306 1010 232 990 q 476 1031 379 1031 q 651 1010 576 1031 q 774 935 725 990 q 847 777 824 881 q 871 507 871 674 q 847 238 871 340 q 773 82 822 135 q 650 10 724 29 q 476 -8 576 -8 m 476 90 q 608 106 554 90 q 697 165 663 121 q 746 290 731 208 q 761 507 761 372 q 745 732 761 647 q 695 860 729 817 q 608 917 661 903 q 476 931 554 931 q 351 917 404 931 q 262 860 297 903 q 209 732 226 817 q 192 507 192 647 q 206 290 192 372 q 254 165 221 208 q 342 106 288 121 q 476 90 397 90 z "},"Ỡ":{"ha":953,"x_min":82,"x_max":889,"o":"m 525 960 l 525 1022 l 700 1022 q 779 1056 749 1022 q 810 1179 810 1090 l 889 1179 q 865 1050 889 1099 q 803 981 842 1001 q 717 960 764 960 l 525 960 m 476 -8 q 303 10 378 -8 q 180 82 229 29 q 106 238 131 135 q 82 507 82 340 q 107 777 82 674 q 182 935 132 881 q 306 1010 232 990 q 476 1031 379 1031 q 651 1010 576 1031 q 774 935 725 990 q 847 777 824 881 q 871 507 871 674 q 847 238 871 340 q 773 82 822 135 q 650 10 724 29 q 476 -8 576 -8 m 476 90 q 608 106 554 90 q 697 165 663 121 q 746 290 731 208 q 761 507 761 372 q 745 732 761 647 q 695 860 729 817 q 608 917 661 903 q 476 931 554 931 q 351 917 404 931 q 262 860 297 903 q 209 732 226 817 q 192 507 192 647 q 206 290 192 372 q 254 165 221 208 q 342 106 288 121 q 476 90 397 90 z "},"Ő":{"ha":953,"x_min":82,"x_max":871,"o":"m 476 -8 q 303 10 378 -8 q 180 82 229 29 q 106 238 131 135 q 82 507 82 340 q 107 777 82 674 q 182 935 132 881 q 306 1010 232 990 q 476 1031 379 1031 q 651 1010 576 1031 q 774 935 725 990 q 847 777 824 881 q 871 507 871 674 q 847 238 871 340 q 773 82 822 135 q 650 10 724 29 q 476 -8 576 -8 m 476 90 q 608 106 554 90 q 697 165 663 121 q 746 290 731 208 q 761 507 761 372 q 745 732 761 647 q 695 860 729 817 q 608 917 661 903 q 476 931 554 931 q 351 917 404 931 q 262 860 297 903 q 209 732 226 817 q 192 507 192 647 q 206 290 192 372 q 254 165 221 208 q 342 106 288 121 q 476 90 397 90 z "},"Ȏ":{"ha":953,"x_min":82,"x_max":871,"o":"m 476 -8 q 303 10 378 -8 q 180 82 229 29 q 106 238 131 135 q 82 507 82 340 q 107 777 82 674 q 182 935 132 881 q 306 1010 232 990 q 476 1031 379 1031 q 651 1010 576 1031 q 774 935 725 990 q 847 777 824 881 q 871 507 871 674 q 847 238 871 340 q 773 82 822 135 q 650 10 724 29 q 476 -8 576 -8 m 476 90 q 608 106 554 90 q 697 165 663 121 q 746 290 731 208 q 761 507 761 372 q 745 732 761 647 q 695 860 729 817 q 608 917 661 903 q 476 931 554 931 q 351 917 404 931 q 262 860 297 903 q 209 732 226 817 q 192 507 192 647 q 206 290 192 372 q 254 165 221 208 q 342 106 288 121 q 476 90 397 90 z "},"Ō":{"ha":953,"x_min":82,"x_max":871,"o":"m 476 -8 q 303 10 378 -8 q 180 82 229 29 q 106 238 131 135 q 82 507 82 340 q 107 777 82 674 q 182 935 132 881 q 306 1010 232 990 q 476 1031 379 1031 q 651 1010 576 1031 q 774 935 725 990 q 847 777 824 881 q 871 507 871 674 q 847 238 871 340 q 773 82 822 135 q 650 10 724 29 q 476 -8 576 -8 m 476 90 q 608 106 554 90 q 697 165 663 121 q 746 290 731 208 q 761 507 761 372 q 745 732 761 647 q 695 860 729 817 q 608 917 661 903 q 476 931 554 931 q 351 917 404 931 q 262 860 297 903 q 209 732 226 817 q 192 507 192 647 q 206 290 192 372 q 254 165 221 208 q 342 106 288 121 q 476 90 397 90 z "},"Ṓ":{"ha":953,"x_min":82,"x_max":871,"o":"m 476 -8 q 303 10 378 -8 q 180 82 229 29 q 106 238 131 135 q 82 507 82 340 q 107 777 82 674 q 182 935 132 881 q 306 1010 232 990 q 476 1031 379 1031 q 651 1010 576 1031 q 774 935 725 990 q 847 777 824 881 q 871 507 871 674 q 847 238 871 340 q 773 82 822 135 q 650 10 724 29 q 476 -8 576 -8 m 476 90 q 608 106 554 90 q 697 165 663 121 q 746 290 731 208 q 761 507 761 372 q 745 732 761 647 q 695 860 729 817 q 608 917 661 903 q 476 931 554 931 q 351 917 404 931 q 262 860 297 903 q 209 732 226 817 q 192 507 192 647 q 206 290 192 372 q 254 165 221 208 q 342 106 288 121 q 476 90 397 90 z "},"Ṑ":{"ha":953,"x_min":82,"x_max":871,"o":"m 476 -8 q 303 10 378 -8 q 180 82 229 29 q 106 238 131 135 q 82 507 82 340 q 107 777 82 674 q 182 935 132 881 q 306 1010 232 990 q 476 1031 379 1031 q 651 1010 576 1031 q 774 935 725 990 q 847 777 824 881 q 871 507 871 674 q 847 238 871 340 q 773 82 822 135 q 650 10 724 29 q 476 -8 576 -8 m 476 90 q 608 106 554 90 q 697 165 663 121 q 746 290 731 208 q 761 507 761 372 q 745 732 761 647 q 695 860 729 817 q 608 917 661 903 q 476 931 554 931 q 351 917 404 931 q 262 860 297 903 q 209 732 226 817 q 192 507 192 647 q 206 290 192 372 q 254 165 221 208 q 342 106 288 121 q 476 90 397 90 z "},"Ǫ":{"ha":953,"x_min":82,"x_max":871,"o":"m 476 -8 q 303 10 378 -8 q 180 82 229 29 q 106 238 131 135 q 82 507 82 340 q 107 777 82 674 q 182 935 132 881 q 306 1010 232 990 q 476 1031 379 1031 q 651 1010 576 1031 q 774 935 725 990 q 847 777 824 881 q 871 507 871 674 q 847 238 871 340 q 773 82 822 135 q 650 10 724 29 q 476 -8 576 -8 m 476 90 q 608 106 554 90 q 697 165 663 121 q 746 290 731 208 q 761 507 761 372 q 745 732 761 647 q 695 860 729 817 q 608 917 661 903 q 476 931 554 931 q 351 917 404 931 q 262 860 297 903 q 209 732 226 817 q 192 507 192 647 q 206 290 192 372 q 254 165 221 208 q 342 106 288 121 q 476 90 397 90 z "},"Ø":{"ha":953,"x_min":82,"x_max":871,"o":"m 100 0 l 774 1022 l 854 1022 l 181 0 l 100 0 m 476 -8 q 303 10 378 -8 q 180 82 229 29 q 106 238 131 135 q 82 507 82 340 q 107 777 82 674 q 182 935 132 881 q 306 1010 232 990 q 476 1031 379 1031 q 651 1010 576 1031 q 774 935 725 990 q 847 777 824 881 q 871 507 871 674 q 847 238 871 340 q 773 82 822 135 q 650 10 724 29 q 476 -8 576 -8 m 476 90 q 608 106 554 90 q 697 165 663 121 q 746 290 731 208 q 761 507 761 372 q 745 732 761 647 q 695 860 729 817 q 608 917 661 903 q 476 931 554 931 q 351 917 404 931 q 262 860 297 903 q 209 732 226 817 q 192 507 192 647 q 206 290 192 372 q 254 165 221 208 q 342 106 288 121 q 476 90 397 90 z "},"Ǿ":{"ha":953,"x_min":82,"x_max":871,"o":"m 100 0 l 774 1022 l 854 1022 l 181 0 l 100 0 m 476 -8 q 303 10 378 -8 q 180 82 229 29 q 106 238 131 135 q 82 507 82 340 q 107 777 82 674 q 182 935 132 881 q 306 1010 232 990 q 476 1031 379 1031 q 651 1010 576 1031 q 774 935 725 990 q 847 777 824 881 q 871 507 871 674 q 847 238 871 340 q 773 82 822 135 q 650 10 724 29 q 476 -8 576 -8 m 476 90 q 608 106 554 90 q 697 165 663 121 q 746 290 731 208 q 761 507 761 372 q 745 732 761 647 q 695 860 729 817 q 608 917 661 903 q 476 931 554 931 q 351 917 404 931 q 262 860 297 903 q 209 732 226 817 q 192 507 192 647 q 206 290 192 372 q 254 165 221 208 q 342 106 288 121 q 476 90 397 90 z "},"Õ":{"ha":953,"x_min":82,"x_max":871,"o":"m 476 -8 q 303 10 378 -8 q 180 82 229 29 q 106 238 131 135 q 82 507 82 340 q 107 777 82 674 q 182 935 132 881 q 306 1010 232 990 q 476 1031 379 1031 q 651 1010 576 1031 q 774 935 725 990 q 847 777 824 881 q 871 507 871 674 q 847 238 871 340 q 773 82 822 135 q 650 10 724 29 q 476 -8 576 -8 m 476 90 q 608 106 554 90 q 697 165 663 121 q 746 290 731 208 q 761 507 761 372 q 745 732 761 647 q 695 860 729 817 q 608 917 661 903 q 476 931 554 931 q 351 917 404 931 q 262 860 297 903 q 209 732 226 817 q 192 507 192 647 q 206 290 192 372 q 254 165 221 208 q 342 106 288 121 q 476 90 397 90 z "},"Ṍ":{"ha":953,"x_min":82,"x_max":871,"o":"m 476 -8 q 303 10 378 -8 q 180 82 229 29 q 106 238 131 135 q 82 507 82 340 q 107 777 82 674 q 182 935 132 881 q 306 1010 232 990 q 476 1031 379 1031 q 651 1010 576 1031 q 774 935 725 990 q 847 777 824 881 q 871 507 871 674 q 847 238 871 340 q 773 82 822 135 q 650 10 724 29 q 476 -8 576 -8 m 476 90 q 608 106 554 90 q 697 165 663 121 q 746 290 731 208 q 761 507 761 372 q 745 732 761 647 q 695 860 729 817 q 608 917 661 903 q 476 931 554 931 q 351 917 404 931 q 262 860 297 903 q 209 732 226 817 q 192 507 192 647 q 206 290 192 372 q 254 165 221 208 q 342 106 288 121 q 476 90 397 90 z "},"Ṏ":{"ha":953,"x_min":82,"x_max":871,"o":"m 476 -8 q 303 10 378 -8 q 180 82 229 29 q 106 238 131 135 q 82 507 82 340 q 107 777 82 674 q 182 935 132 881 q 306 1010 232 990 q 476 1031 379 1031 q 651 1010 576 1031 q 774 935 725 990 q 847 777 824 881 q 871 507 871 674 q 847 238 871 340 q 773 82 822 135 q 650 10 724 29 q 476 -8 576 -8 m 476 90 q 608 106 554 90 q 697 165 663 121 q 746 290 731 208 q 761 507 761 372 q 745 732 761 647 q 695 860 729 817 q 608 917 661 903 q 476 931 554 931 q 351 917 404 931 q 262 860 297 903 q 209 732 226 817 q 192 507 192 647 q 206 290 192 372 q 254 165 221 208 q 342 106 288 121 q 476 90 397 90 m 614 1347 q 592 1369 592 1347 l 592 1478 q 614 1500 592 1500 l 665 1500 q 681 1494 675 1500 q 686 1478 686 1488 l 686 1369 q 665 1347 686 1347 l 614 1347 m 286 1347 q 264 1369 264 1347 l 264 1478 q 286 1500 264 1500 l 338 1500 q 354 1494 349 1500 q 360 1478 360 1488 l 360 1369 q 338 1347 360 1347 l 286 1347 z "},"Ȭ":{"ha":953,"x_min":82,"x_max":871,"o":"m 476 -8 q 303 10 378 -8 q 180 82 229 29 q 106 238 131 135 q 82 507 82 340 q 107 777 82 674 q 182 935 132 881 q 306 1010 232 990 q 476 1031 379 1031 q 651 1010 576 1031 q 774 935 725 990 q 847 777 824 881 q 871 507 871 674 q 847 238 871 340 q 773 82 822 135 q 650 10 724 29 q 476 -8 576 -8 m 476 90 q 608 106 554 90 q 697 165 663 121 q 746 290 731 208 q 761 507 761 372 q 745 732 761 647 q 695 860 729 817 q 608 917 661 903 q 476 931 554 931 q 351 917 404 931 q 262 860 297 903 q 209 732 226 817 q 192 507 192 647 q 206 290 192 372 q 254 165 221 208 q 342 106 288 121 q 476 90 397 90 z "},"Œ":{"ha":1469,"x_min":82,"x_max":1389,"o":"m 476 -8 q 303 10 378 -8 q 180 82 229 29 q 106 238 131 135 q 82 507 82 340 q 107 777 82 674 q 182 935 132 881 q 306 1010 232 990 q 476 1031 379 1031 q 651 1010 576 1031 q 774 935 725 990 q 847 777 824 881 q 871 507 871 674 q 847 238 871 340 q 773 82 822 135 q 650 10 724 29 q 476 -8 576 -8 m 476 90 q 608 106 554 90 q 697 165 663 121 q 746 290 731 208 q 761 507 761 372 q 745 732 761 647 q 695 860 729 817 q 608 917 661 903 q 476 931 554 931 q 351 917 404 931 q 262 860 297 903 q 209 732 226 817 q 192 507 192 647 q 206 290 192 372 q 254 165 221 208 q 342 106 288 121 q 476 90 397 90 m 978 -6 q 907 1 944 -6 q 836 26 869 7 q 782 85 803 46 q 761 193 761 125 l 761 817 q 778 916 761 876 q 825 978 796 956 q 890 1012 854 1001 q 963 1022 926 1022 q 1122 1019 1049 1021 q 1262 1015 1196 1017 q 1390 1010 1328 1013 l 1390 921 l 990 921 q 904 892 936 921 q 872 799 872 863 l 872 557 l 1329 550 l 1329 465 l 872 458 l 872 218 q 890 140 872 167 q 936 106 907 114 q 996 97 965 97 l 1390 97 l 1390 8 q 1256 1 1326 4 q 1116 -3 1186 -1 q 978 -6 1046 -4 z "},"P":{"ha":839,"x_min":107,"x_max":781,"o":"m 107 0 l 107 1022 l 514 1022 q 605 1010 558 1022 q 692 965 651 999 q 756 866 732 931 q 781 696 781 801 q 755 522 781 588 q 688 420 729 456 q 600 372 647 385 q 508 360 553 360 q 447 361 488 360 q 362 365 407 363 q 278 369 317 367 q 218 374 239 372 l 218 0 l 107 0 m 218 458 l 494 458 q 583 479 543 458 q 647 551 624 500 q 669 694 669 603 q 647 834 669 785 q 586 903 624 883 q 504 922 549 922 l 218 922 l 218 458 z "},"Ṗ":{"ha":839,"x_min":107,"x_max":781,"o":"m 107 0 l 107 1022 l 514 1022 q 605 1010 558 1022 q 692 965 651 999 q 756 866 732 931 q 781 696 781 801 q 755 522 781 588 q 688 420 729 456 q 600 372 647 385 q 508 360 553 360 q 447 361 488 360 q 362 365 407 363 q 278 369 317 367 q 218 374 239 372 l 218 0 l 107 0 m 218 458 l 494 458 q 583 479 543 458 q 647 551 624 500 q 669 694 669 603 q 647 834 669 785 q 586 903 624 883 q 504 922 549 922 l 218 922 l 218 458 z "},"Þ":{"ha":778,"x_min":107,"x_max":719,"o":"m 107 0 l 107 1022 l 218 1022 l 218 835 l 453 835 q 545 823 499 835 q 631 780 592 811 q 695 689 671 749 q 719 531 719 629 q 694 369 719 432 q 628 275 669 307 q 539 231 586 243 q 449 218 492 218 q 400 219 432 218 q 332 224 368 221 q 265 228 296 226 q 218 233 233 231 l 218 0 l 107 0 m 218 318 l 435 318 q 523 336 483 318 q 585 401 563 354 q 608 531 608 449 q 585 656 608 613 q 525 717 563 700 q 444 735 488 735 l 218 735 l 218 318 z "},"Q":{"ha":953,"x_min":82,"x_max":871,"o":"m 703 -236 q 603 -215 651 -236 q 522 -153 556 -194 q 481 -49 488 -111 l 556 -49 q 614 -127 572 -103 q 701 -151 656 -151 q 739 -148 721 -151 q 774 -139 757 -144 l 774 -225 q 740 -233 757 -229 q 703 -236 722 -236 m 476 -8 q 303 10 378 -8 q 180 82 229 29 q 106 238 131 135 q 82 507 82 340 q 107 777 82 674 q 182 935 132 881 q 306 1010 232 990 q 476 1031 379 1031 q 651 1010 576 1031 q 774 935 725 990 q 847 777 824 881 q 871 507 871 674 q 847 238 871 340 q 773 82 822 135 q 650 10 724 29 q 476 -8 576 -8 m 476 90 q 608 106 554 90 q 697 165 663 121 q 746 290 731 208 q 761 507 761 372 q 745 732 761 647 q 695 860 729 817 q 608 917 661 903 q 476 931 554 931 q 351 917 404 931 q 262 860 297 903 q 209 732 226 817 q 192 507 192 647 q 206 290 192 372 q 254 165 221 208 q 342 106 288 121 q 476 90 397 90 z "},"R":{"ha":844,"x_min":107,"x_max":790,"o":"m 107 0 l 107 1022 l 510 1022 q 607 1010 560 1022 q 692 967 654 999 q 753 876 731 935 q 775 721 775 817 q 757 584 775 638 q 710 499 739 531 q 647 453 681 468 q 581 433 613 439 l 790 0 l 678 0 l 479 418 q 424 419 457 418 q 353 421 390 421 q 280 422 315 421 q 218 424 244 424 l 218 0 l 107 0 m 218 508 l 493 508 q 560 517 529 508 q 614 548 590 525 q 651 613 638 571 q 665 721 665 654 q 651 824 665 785 q 613 885 638 864 q 558 915 589 907 q 493 922 528 922 l 218 922 l 218 508 z "},"Ŕ":{"ha":844,"x_min":107,"x_max":790,"o":"m 107 0 l 107 1022 l 510 1022 q 607 1010 560 1022 q 692 967 654 999 q 753 876 731 935 q 775 721 775 817 q 757 584 775 638 q 710 499 739 531 q 647 453 681 468 q 581 433 613 439 l 790 0 l 678 0 l 479 418 q 424 419 457 418 q 353 421 390 421 q 280 422 315 421 q 218 424 244 424 l 218 0 l 107 0 m 218 508 l 493 508 q 560 517 529 508 q 614 548 590 525 q 651 613 638 571 q 665 721 665 654 q 651 824 665 785 q 613 885 638 864 q 558 915 589 907 q 493 922 528 922 l 218 922 l 218 508 z "},"Ř":{"ha":844,"x_min":107,"x_max":790,"o":"m 107 0 l 107 1022 l 510 1022 q 607 1010 560 1022 q 692 967 654 999 q 753 876 731 935 q 775 721 775 817 q 757 584 775 638 q 710 499 739 531 q 647 453 681 468 q 581 433 613 439 l 790 0 l 678 0 l 479 418 q 424 419 457 418 q 353 421 390 421 q 280 422 315 421 q 218 424 244 424 l 218 0 l 107 0 m 218 508 l 493 508 q 560 517 529 508 q 614 548 590 525 q 651 613 638 571 q 665 721 665 654 q 651 824 665 785 q 613 885 638 864 q 558 915 589 907 q 493 922 528 922 l 218 922 l 218 508 z "},"Ŗ":{"ha":844,"x_min":107,"x_max":790,"o":"m 107 0 l 107 1022 l 510 1022 q 607 1010 560 1022 q 692 967 654 999 q 753 876 731 935 q 775 721 775 817 q 757 584 775 638 q 710 499 739 531 q 647 453 681 468 q 581 433 613 439 l 790 0 l 678 0 l 479 418 q 424 419 457 418 q 353 421 390 421 q 280 422 315 421 q 218 424 244 424 l 218 0 l 107 0 m 218 508 l 493 508 q 560 517 529 508 q 614 548 590 525 q 651 613 638 571 q 665 721 665 654 q 651 824 665 785 q 613 885 638 864 q 558 915 589 907 q 493 922 528 922 l 218 922 l 218 508 m 296 -281 l 296 -236 l 338 -229 q 391 -213 369 -224 q 422 -174 413 -203 q 432 -87 432 -146 l 500 -87 q 488 -199 500 -157 q 442 -261 475 -242 q 349 -281 410 -281 l 296 -281 z "},"Ȑ":{"ha":844,"x_min":107,"x_max":790,"o":"m 107 0 l 107 1022 l 510 1022 q 607 1010 560 1022 q 692 967 654 999 q 753 876 731 935 q 775 721 775 817 q 757 584 775 638 q 710 499 739 531 q 647 453 681 468 q 581 433 613 439 l 790 0 l 678 0 l 479 418 q 424 419 457 418 q 353 421 390 421 q 280 422 315 421 q 218 424 244 424 l 218 0 l 107 0 m 218 508 l 493 508 q 560 517 529 508 q 614 548 590 525 q 651 613 638 571 q 665 721 665 654 q 651 824 665 785 q 613 885 638 864 q 558 915 589 907 q 493 922 528 922 l 218 922 l 218 508 m 499 1099 l 325 1288 l 419 1288 l 564 1099 l 499 1099 m 296 1099 l 122 1288 l 217 1288 l 361 1099 l 296 1099 z "},"Ṛ":{"ha":844,"x_min":107,"x_max":790,"o":"m 107 0 l 107 1022 l 510 1022 q 607 1010 560 1022 q 692 967 654 999 q 753 876 731 935 q 775 721 775 817 q 757 584 775 638 q 710 499 739 531 q 647 453 681 468 q 581 433 613 439 l 790 0 l 678 0 l 479 418 q 424 419 457 418 q 353 421 390 421 q 280 422 315 421 q 218 424 244 424 l 218 0 l 107 0 m 218 508 l 493 508 q 560 517 529 508 q 614 548 590 525 q 651 613 638 571 q 665 721 665 654 q 651 824 665 785 q 613 885 638 864 q 558 915 589 907 q 493 922 528 922 l 218 922 l 218 508 z "},"Ȓ":{"ha":844,"x_min":107,"x_max":790,"o":"m 107 0 l 107 1022 l 510 1022 q 607 1010 560 1022 q 692 967 654 999 q 753 876 731 935 q 775 721 775 817 q 757 584 775 638 q 710 499 739 531 q 647 453 681 468 q 581 433 613 439 l 790 0 l 678 0 l 479 418 q 424 419 457 418 q 353 421 390 421 q 280 422 315 421 q 218 424 244 424 l 218 0 l 107 0 m 218 508 l 493 508 q 560 517 529 508 q 614 548 590 525 q 651 613 638 571 q 665 721 665 654 q 651 824 665 785 q 613 885 638 864 q 558 915 589 907 q 493 922 528 922 l 218 922 l 218 508 z "},"Ṟ":{"ha":844,"x_min":107,"x_max":790,"o":"m 107 0 l 107 1022 l 510 1022 q 607 1010 560 1022 q 692 967 654 999 q 753 876 731 935 q 775 721 775 817 q 757 584 775 638 q 710 499 739 531 q 647 453 681 468 q 581 433 613 439 l 790 0 l 678 0 l 479 418 q 424 419 457 418 q 353 421 390 421 q 280 422 315 421 q 218 424 244 424 l 218 0 l 107 0 m 218 508 l 493 508 q 560 517 529 508 q 614 548 590 525 q 651 613 638 571 q 665 721 665 654 q 651 824 665 785 q 613 885 638 864 q 558 915 589 907 q 493 922 528 922 l 218 922 l 218 508 z "},"S":{"ha":803,"x_min":83,"x_max":721,"o":"m 397 -8 q 324 -6 367 -8 q 238 -1 282 -4 q 153 7 193 3 q 88 17 114 11 l 88 101 q 172 96 122 99 q 280 92 222 93 q 393 90 338 90 q 506 103 456 90 q 585 149 556 115 q 615 244 615 182 l 615 314 q 579 422 615 385 q 463 458 543 458 l 353 458 q 155 514 226 458 q 83 706 83 569 l 83 764 q 161 969 83 908 q 381 1031 239 1031 q 481 1026 425 1031 q 588 1015 536 1021 q 675 1001 640 1008 l 675 917 q 537 926 614 922 q 392 931 460 931 q 283 916 329 931 q 213 865 238 901 q 189 760 189 828 l 189 713 q 233 596 189 628 q 357 564 278 564 l 475 564 q 614 533 560 564 q 694 449 668 503 q 721 326 721 396 l 721 247 q 677 89 721 144 q 560 13 633 33 q 397 -8 488 -8 z "},"Ś":{"ha":803,"x_min":83,"x_max":721,"o":"m 397 -8 q 324 -6 367 -8 q 238 -1 282 -4 q 153 7 193 3 q 88 17 114 11 l 88 101 q 172 96 122 99 q 280 92 222 93 q 393 90 338 90 q 506 103 456 90 q 585 149 556 115 q 615 244 615 182 l 615 314 q 579 422 615 385 q 463 458 543 458 l 353 458 q 155 514 226 458 q 83 706 83 569 l 83 764 q 161 969 83 908 q 381 1031 239 1031 q 481 1026 425 1031 q 588 1015 536 1021 q 675 1001 640 1008 l 675 917 q 537 926 614 922 q 392 931 460 931 q 283 916 329 931 q 213 865 238 901 q 189 760 189 828 l 189 713 q 233 596 189 628 q 357 564 278 564 l 475 564 q 614 533 560 564 q 694 449 668 503 q 721 326 721 396 l 721 247 q 677 89 721 144 q 560 13 633 33 q 397 -8 488 -8 z "},"Ṥ":{"ha":803,"x_min":83,"x_max":721,"o":"m 397 -8 q 324 -6 367 -8 q 238 -1 282 -4 q 153 7 193 3 q 88 17 114 11 l 88 101 q 172 96 122 99 q 280 92 222 93 q 393 90 338 90 q 506 103 456 90 q 585 149 556 115 q 615 244 615 182 l 615 314 q 579 422 615 385 q 463 458 543 458 l 353 458 q 155 514 226 458 q 83 706 83 569 l 83 764 q 161 969 83 908 q 381 1031 239 1031 q 481 1026 425 1031 q 588 1015 536 1021 q 675 1001 640 1008 l 675 917 q 537 926 614 922 q 392 931 460 931 q 283 916 329 931 q 213 865 238 901 q 189 760 189 828 l 189 713 q 233 596 189 628 q 357 564 278 564 l 475 564 q 614 533 560 564 q 694 449 668 503 q 721 326 721 396 l 721 247 q 677 89 721 144 q 560 13 633 33 q 397 -8 488 -8 z "},"Š":{"ha":803,"x_min":83,"x_max":721,"o":"m 397 -8 q 324 -6 367 -8 q 238 -1 282 -4 q 153 7 193 3 q 88 17 114 11 l 88 101 q 172 96 122 99 q 280 92 222 93 q 393 90 338 90 q 506 103 456 90 q 585 149 556 115 q 615 244 615 182 l 615 314 q 579 422 615 385 q 463 458 543 458 l 353 458 q 155 514 226 458 q 83 706 83 569 l 83 764 q 161 969 83 908 q 381 1031 239 1031 q 481 1026 425 1031 q 588 1015 536 1021 q 675 1001 640 1008 l 675 917 q 537 926 614 922 q 392 931 460 931 q 283 916 329 931 q 213 865 238 901 q 189 760 189 828 l 189 713 q 233 596 189 628 q 357 564 278 564 l 475 564 q 614 533 560 564 q 694 449 668 503 q 721 326 721 396 l 721 247 q 677 89 721 144 q 560 13 633 33 q 397 -8 488 -8 z "},"Ṧ":{"ha":803,"x_min":83,"x_max":721,"o":"m 397 -8 q 324 -6 367 -8 q 238 -1 282 -4 q 153 7 193 3 q 88 17 114 11 l 88 101 q 172 96 122 99 q 280 92 222 93 q 393 90 338 90 q 506 103 456 90 q 585 149 556 115 q 615 244 615 182 l 615 314 q 579 422 615 385 q 463 458 543 458 l 353 458 q 155 514 226 458 q 83 706 83 569 l 83 764 q 161 969 83 908 q 381 1031 239 1031 q 481 1026 425 1031 q 588 1015 536 1021 q 675 1001 640 1008 l 675 917 q 537 926 614 922 q 392 931 460 931 q 283 916 329 931 q 213 865 238 901 q 189 760 189 828 l 189 713 q 233 596 189 628 q 357 564 278 564 l 475 564 q 614 533 560 564 q 694 449 668 503 q 721 326 721 396 l 721 247 q 677 89 721 144 q 560 13 633 33 q 397 -8 488 -8 z "},"Ş":{"ha":803,"x_min":83,"x_max":721,"o":"m 397 -8 q 324 -6 367 -8 q 238 -1 282 -4 q 153 7 193 3 q 88 17 114 11 l 88 101 q 172 96 122 99 q 280 92 222 93 q 393 90 338 90 q 506 103 456 90 q 585 149 556 115 q 615 244 615 182 l 615 314 q 579 422 615 385 q 463 458 543 458 l 353 458 q 155 514 226 458 q 83 706 83 569 l 83 764 q 161 969 83 908 q 381 1031 239 1031 q 481 1026 425 1031 q 588 1015 536 1021 q 675 1001 640 1008 l 675 917 q 537 926 614 922 q 392 931 460 931 q 283 916 329 931 q 213 865 238 901 q 189 760 189 828 l 189 713 q 233 596 189 628 q 357 564 278 564 l 475 564 q 614 533 560 564 q 694 449 668 503 q 721 326 721 396 l 721 247 q 677 89 721 144 q 560 13 633 33 q 397 -8 488 -8 z "},"Ŝ":{"ha":803,"x_min":83,"x_max":721,"o":"m 397 -8 q 324 -6 367 -8 q 238 -1 282 -4 q 153 7 193 3 q 88 17 114 11 l 88 101 q 172 96 122 99 q 280 92 222 93 q 393 90 338 90 q 506 103 456 90 q 585 149 556 115 q 615 244 615 182 l 615 314 q 579 422 615 385 q 463 458 543 458 l 353 458 q 155 514 226 458 q 83 706 83 569 l 83 764 q 161 969 83 908 q 381 1031 239 1031 q 481 1026 425 1031 q 588 1015 536 1021 q 675 1001 640 1008 l 675 917 q 537 926 614 922 q 392 931 460 931 q 283 916 329 931 q 213 865 238 901 q 189 760 189 828 l 189 713 q 233 596 189 628 q 357 564 278 564 l 475 564 q 614 533 560 564 q 694 449 668 503 q 721 326 721 396 l 721 247 q 677 89 721 144 q 560 13 633 33 q 397 -8 488 -8 z "},"Ș":{"ha":803,"x_min":83,"x_max":721,"o":"m 397 -8 q 324 -6 367 -8 q 238 -1 282 -4 q 153 7 193 3 q 88 17 114 11 l 88 101 q 172 96 122 99 q 280 92 222 93 q 393 90 338 90 q 506 103 456 90 q 585 149 556 115 q 615 244 615 182 l 615 314 q 579 422 615 385 q 463 458 543 458 l 353 458 q 155 514 226 458 q 83 706 83 569 l 83 764 q 161 969 83 908 q 381 1031 239 1031 q 481 1026 425 1031 q 588 1015 536 1021 q 675 1001 640 1008 l 675 917 q 537 926 614 922 q 392 931 460 931 q 283 916 329 931 q 213 865 238 901 q 189 760 189 828 l 189 713 q 233 596 189 628 q 357 564 278 564 l 475 564 q 614 533 560 564 q 694 449 668 503 q 721 326 721 396 l 721 247 q 677 89 721 144 q 560 13 633 33 q 397 -8 488 -8 m 279 -281 l 279 -236 l 321 -229 q 374 -213 353 -224 q 406 -174 396 -203 q 415 -87 415 -146 l 483 -87 q 471 -199 483 -157 q 426 -261 458 -242 q 332 -281 393 -281 l 279 -281 z "},"Ṡ":{"ha":803,"x_min":83,"x_max":721,"o":"m 397 -8 q 324 -6 367 -8 q 238 -1 282 -4 q 153 7 193 3 q 88 17 114 11 l 88 101 q 172 96 122 99 q 280 92 222 93 q 393 90 338 90 q 506 103 456 90 q 585 149 556 115 q 615 244 615 182 l 615 314 q 579 422 615 385 q 463 458 543 458 l 353 458 q 155 514 226 458 q 83 706 83 569 l 83 764 q 161 969 83 908 q 381 1031 239 1031 q 481 1026 425 1031 q 588 1015 536 1021 q 675 1001 640 1008 l 675 917 q 537 926 614 922 q 392 931 460 931 q 283 916 329 931 q 213 865 238 901 q 189 760 189 828 l 189 713 q 233 596 189 628 q 357 564 278 564 l 475 564 q 614 533 560 564 q 694 449 668 503 q 721 326 721 396 l 721 247 q 677 89 721 144 q 560 13 633 33 q 397 -8 488 -8 z "},"Ṣ":{"ha":803,"x_min":83,"x_max":721,"o":"m 397 -8 q 324 -6 367 -8 q 238 -1 282 -4 q 153 7 193 3 q 88 17 114 11 l 88 101 q 172 96 122 99 q 280 92 222 93 q 393 90 338 90 q 506 103 456 90 q 585 149 556 115 q 615 244 615 182 l 615 314 q 579 422 615 385 q 463 458 543 458 l 353 458 q 155 514 226 458 q 83 706 83 569 l 83 764 q 161 969 83 908 q 381 1031 239 1031 q 481 1026 425 1031 q 588 1015 536 1021 q 675 1001 640 1008 l 675 917 q 537 926 614 922 q 392 931 460 931 q 283 916 329 931 q 213 865 238 901 q 189 760 189 828 l 189 713 q 233 596 189 628 q 357 564 278 564 l 475 564 q 614 533 560 564 q 694 449 668 503 q 721 326 721 396 l 721 247 q 677 89 721 144 q 560 13 633 33 q 397 -8 488 -8 z "},"Ṩ":{"ha":803,"x_min":83,"x_max":721,"o":"m 397 -8 q 324 -6 367 -8 q 238 -1 282 -4 q 153 7 193 3 q 88 17 114 11 l 88 101 q 172 96 122 99 q 280 92 222 93 q 393 90 338 90 q 506 103 456 90 q 585 149 556 115 q 615 244 615 182 l 615 314 q 579 422 615 385 q 463 458 543 458 l 353 458 q 155 514 226 458 q 83 706 83 569 l 83 764 q 161 969 83 908 q 381 1031 239 1031 q 481 1026 425 1031 q 588 1015 536 1021 q 675 1001 640 1008 l 675 917 q 537 926 614 922 q 392 931 460 931 q 283 916 329 931 q 213 865 238 901 q 189 760 189 828 l 189 713 q 233 596 189 628 q 357 564 278 564 l 475 564 q 614 533 560 564 q 694 449 668 503 q 721 326 721 396 l 721 247 q 677 89 721 144 q 560 13 633 33 q 397 -8 488 -8 z "},"ẞ":{"ha":932,"x_min":107,"x_max":850,"o":"m 107 0 l 107 781 q 142 924 107 871 q 233 999 176 976 q 354 1022 289 1022 q 513 1020 439 1022 q 658 1017 588 1018 q 799 1013 728 1015 l 756 922 l 357 922 q 255 888 292 922 q 218 781 218 853 l 218 0 l 107 0 m 539 -8 q 474 -6 513 -8 q 398 2 435 -3 q 336 11 361 7 l 336 96 q 421 93 369 94 q 525 92 472 92 q 634 103 586 92 q 710 149 682 115 q 739 244 739 182 l 739 313 q 701 421 739 385 q 578 457 664 457 l 411 457 l 411 549 l 603 549 q 788 489 725 549 q 850 318 850 429 l 850 239 q 808 86 850 139 q 695 13 765 33 q 539 -8 625 -8 m 489 526 l 622 857 l 701 942 l 799 996 l 588 618 l 489 526 z "},"Ə":{"ha":849,"x_min":85,"x_max":767,"o":"m 418 -8 q 231 38 306 -8 q 121 187 157 83 q 85 463 85 290 l 85 542 l 654 542 q 638 738 654 661 q 587 856 622 814 q 492 915 551 899 q 343 931 432 931 q 208 924 260 931 q 124 914 156 918 l 124 997 q 231 1020 168 1010 q 376 1031 293 1031 q 548 1010 475 1031 q 669 936 621 990 q 742 782 718 882 q 767 521 767 682 q 742 258 767 361 q 672 96 718 154 q 561 15 625 38 q 418 -8 497 -8 m 417 90 q 514 106 471 90 q 588 162 557 122 q 635 272 618 201 q 653 451 651 343 l 194 451 q 216 240 196 319 q 285 126 236 161 q 417 90 333 90 z "},"T":{"ha":786,"x_min":22,"x_max":764,"o":"m 338 0 l 338 922 l 22 922 l 22 1022 l 764 1022 l 764 922 l 449 922 l 449 0 l 338 0 z "},"Ŧ":{"ha":786,"x_min":22,"x_max":764,"o":"m 90 507 l 90 571 l 696 571 l 696 507 l 90 507 m 338 0 l 338 922 l 22 922 l 22 1022 l 764 1022 l 764 922 l 449 922 l 449 0 l 338 0 z "},"Ť":{"ha":786,"x_min":22,"x_max":764,"o":"m 338 0 l 338 922 l 22 922 l 22 1022 l 764 1022 l 764 922 l 449 922 l 449 0 l 338 0 z "},"Ţ":{"ha":786,"x_min":22,"x_max":764,"o":"m 338 0 l 338 922 l 22 922 l 22 1022 l 764 1022 l 764 922 l 449 922 l 449 0 l 338 0 z "},"Ț":{"ha":786,"x_min":22,"x_max":764,"o":"m 338 0 l 338 922 l 22 922 l 22 1022 l 764 1022 l 764 922 l 449 922 l 449 0 l 338 0 m 231 -281 l 231 -236 l 272 -229 q 326 -213 304 -224 q 357 -174 347 -203 q 367 -87 367 -146 l 435 -87 q 422 -199 435 -157 q 377 -261 410 -242 q 283 -281 344 -281 l 231 -281 z "},"Ṫ":{"ha":786,"x_min":22,"x_max":764,"o":"m 338 0 l 338 922 l 22 922 l 22 1022 l 764 1022 l 764 922 l 449 922 l 449 0 l 338 0 z "},"Ṭ":{"ha":786,"x_min":22,"x_max":764,"o":"m 338 0 l 338 922 l 22 922 l 22 1022 l 764 1022 l 764 922 l 449 922 l 449 0 l 338 0 z "},"Ṯ":{"ha":786,"x_min":22,"x_max":764,"o":"m 338 0 l 338 922 l 22 922 l 22 1022 l 764 1022 l 764 922 l 449 922 l 449 0 l 338 0 z "},"U":{"ha":939,"x_min":93,"x_max":846,"o":"m 469 -8 q 314 7 383 -8 q 195 59 244 22 q 119 159 146 96 q 93 317 93 222 l 93 1022 l 204 1022 l 204 317 q 235 181 204 229 q 326 112 267 132 q 469 92 386 92 q 613 112 553 92 q 703 181 672 132 q 735 317 735 229 l 735 1022 l 846 1022 l 846 317 q 819 159 846 222 q 744 59 793 96 q 625 7 694 22 q 469 -8 556 -8 z "},"Ú":{"ha":939,"x_min":93,"x_max":846,"o":"m 469 -8 q 314 7 383 -8 q 195 59 244 22 q 119 159 146 96 q 93 317 93 222 l 93 1022 l 204 1022 l 204 317 q 235 181 204 229 q 326 112 267 132 q 469 92 386 92 q 613 112 553 92 q 703 181 672 132 q 735 317 735 229 l 735 1022 l 846 1022 l 846 317 q 819 159 846 222 q 744 59 793 96 q 625 7 694 22 q 469 -8 556 -8 z "},"Ŭ":{"ha":939,"x_min":93,"x_max":846,"o":"m 469 -8 q 314 7 383 -8 q 195 59 244 22 q 119 159 146 96 q 93 317 93 222 l 93 1022 l 204 1022 l 204 317 q 235 181 204 229 q 326 112 267 132 q 469 92 386 92 q 613 112 553 92 q 703 181 672 132 q 735 317 735 229 l 735 1022 l 846 1022 l 846 317 q 819 159 846 222 q 744 59 793 96 q 625 7 694 22 q 469 -8 556 -8 z "},"Û":{"ha":939,"x_min":93,"x_max":846,"o":"m 469 -8 q 314 7 383 -8 q 195 59 244 22 q 119 159 146 96 q 93 317 93 222 l 93 1022 l 204 1022 l 204 317 q 235 181 204 229 q 326 112 267 132 q 469 92 386 92 q 613 112 553 92 q 703 181 672 132 q 735 317 735 229 l 735 1022 l 846 1022 l 846 317 q 819 159 846 222 q 744 59 793 96 q 625 7 694 22 q 469 -8 556 -8 z "},"Ȕ":{"ha":939,"x_min":93,"x_max":846,"o":"m 469 -8 q 314 7 383 -8 q 195 59 244 22 q 119 159 146 96 q 93 317 93 222 l 93 1022 l 204 1022 l 204 317 q 235 181 204 229 q 326 112 267 132 q 469 92 386 92 q 613 112 553 92 q 703 181 672 132 q 735 317 735 229 l 735 1022 l 846 1022 l 846 317 q 819 159 846 222 q 744 59 793 96 q 625 7 694 22 q 469 -8 556 -8 m 556 1099 l 382 1288 l 476 1288 l 621 1099 l 556 1099 m 353 1099 l 179 1288 l 274 1288 l 418 1099 l 353 1099 z "},"Ü":{"ha":939,"x_min":93,"x_max":846,"o":"m 469 -8 q 314 7 383 -8 q 195 59 244 22 q 119 159 146 96 q 93 317 93 222 l 93 1022 l 204 1022 l 204 317 q 235 181 204 229 q 326 112 267 132 q 469 92 386 92 q 613 112 553 92 q 703 181 672 132 q 735 317 735 229 l 735 1022 l 846 1022 l 846 317 q 819 159 846 222 q 744 59 793 96 q 625 7 694 22 q 469 -8 556 -8 m 592 1129 q 569 1151 569 1129 l 569 1260 q 592 1282 569 1282 l 643 1282 q 658 1276 653 1282 q 664 1260 664 1269 l 664 1151 q 643 1129 664 1129 l 592 1129 m 264 1129 q 242 1151 242 1129 l 242 1260 q 264 1282 242 1282 l 315 1282 q 332 1276 326 1282 q 338 1260 338 1269 l 338 1151 q 315 1129 338 1129 l 264 1129 z "},"Ụ":{"ha":939,"x_min":93,"x_max":846,"o":"m 469 -8 q 314 7 383 -8 q 195 59 244 22 q 119 159 146 96 q 93 317 93 222 l 93 1022 l 204 1022 l 204 317 q 235 181 204 229 q 326 112 267 132 q 469 92 386 92 q 613 112 553 92 q 703 181 672 132 q 735 317 735 229 l 735 1022 l 846 1022 l 846 317 q 819 159 846 222 q 744 59 793 96 q 625 7 694 22 q 469 -8 556 -8 z "},"Ù":{"ha":939,"x_min":93,"x_max":846,"o":"m 469 -8 q 314 7 383 -8 q 195 59 244 22 q 119 159 146 96 q 93 317 93 222 l 93 1022 l 204 1022 l 204 317 q 235 181 204 229 q 326 112 267 132 q 469 92 386 92 q 613 112 553 92 q 703 181 672 132 q 735 317 735 229 l 735 1022 l 846 1022 l 846 317 q 819 159 846 222 q 744 59 793 96 q 625 7 694 22 q 469 -8 556 -8 z "},"Ủ":{"ha":939,"x_min":93,"x_max":846,"o":"m 469 -8 q 314 7 383 -8 q 195 59 244 22 q 119 159 146 96 q 93 317 93 222 l 93 1022 l 204 1022 l 204 317 q 235 181 204 229 q 326 112 267 132 q 469 92 386 92 q 613 112 553 92 q 703 181 672 132 q 735 317 735 229 l 735 1022 l 846 1022 l 846 317 q 819 159 846 222 q 744 59 793 96 q 625 7 694 22 q 469 -8 556 -8 z "},"Ư":{"ha":939,"x_min":93,"x_max":979,"o":"m 747 960 l 747 1022 l 790 1022 q 869 1056 839 1022 q 900 1179 900 1090 l 979 1179 q 956 1050 979 1099 q 893 981 932 1001 q 807 960 854 960 l 747 960 m 469 -8 q 314 7 383 -8 q 195 59 244 22 q 119 159 146 96 q 93 317 93 222 l 93 1022 l 204 1022 l 204 317 q 235 181 204 229 q 326 112 267 132 q 469 92 386 92 q 613 112 553 92 q 703 181 672 132 q 735 317 735 229 l 735 1022 l 846 1022 l 846 317 q 819 159 846 222 q 744 59 793 96 q 625 7 694 22 q 469 -8 556 -8 z "},"Ứ":{"ha":939,"x_min":93,"x_max":979,"o":"m 747 960 l 747 1022 l 790 1022 q 869 1056 839 1022 q 900 1179 900 1090 l 979 1179 q 956 1050 979 1099 q 893 981 932 1001 q 807 960 854 960 l 747 960 m 469 -8 q 314 7 383 -8 q 195 59 244 22 q 119 159 146 96 q 93 317 93 222 l 93 1022 l 204 1022 l 204 317 q 235 181 204 229 q 326 112 267 132 q 469 92 386 92 q 613 112 553 92 q 703 181 672 132 q 735 317 735 229 l 735 1022 l 846 1022 l 846 317 q 819 159 846 222 q 744 59 793 96 q 625 7 694 22 q 469 -8 556 -8 z "},"Ự":{"ha":939,"x_min":93,"x_max":979,"o":"m 747 960 l 747 1022 l 790 1022 q 869 1056 839 1022 q 900 1179 900 1090 l 979 1179 q 956 1050 979 1099 q 893 981 932 1001 q 807 960 854 960 l 747 960 m 469 -8 q 314 7 383 -8 q 195 59 244 22 q 119 159 146 96 q 93 317 93 222 l 93 1022 l 204 1022 l 204 317 q 235 181 204 229 q 326 112 267 132 q 469 92 386 92 q 613 112 553 92 q 703 181 672 132 q 735 317 735 229 l 735 1022 l 846 1022 l 846 317 q 819 159 846 222 q 744 59 793 96 q 625 7 694 22 q 469 -8 556 -8 z "},"Ừ":{"ha":939,"x_min":93,"x_max":979,"o":"m 747 960 l 747 1022 l 790 1022 q 869 1056 839 1022 q 900 1179 900 1090 l 979 1179 q 956 1050 979 1099 q 893 981 932 1001 q 807 960 854 960 l 747 960 m 469 -8 q 314 7 383 -8 q 195 59 244 22 q 119 159 146 96 q 93 317 93 222 l 93 1022 l 204 1022 l 204 317 q 235 181 204 229 q 326 112 267 132 q 469 92 386 92 q 613 112 553 92 q 703 181 672 132 q 735 317 735 229 l 735 1022 l 846 1022 l 846 317 q 819 159 846 222 q 744 59 793 96 q 625 7 694 22 q 469 -8 556 -8 z "},"Ử":{"ha":939,"x_min":93,"x_max":979,"o":"m 747 960 l 747 1022 l 790 1022 q 869 1056 839 1022 q 900 1179 900 1090 l 979 1179 q 956 1050 979 1099 q 893 981 932 1001 q 807 960 854 960 l 747 960 m 469 -8 q 314 7 383 -8 q 195 59 244 22 q 119 159 146 96 q 93 317 93 222 l 93 1022 l 204 1022 l 204 317 q 235 181 204 229 q 326 112 267 132 q 469 92 386 92 q 613 112 553 92 q 703 181 672 132 q 735 317 735 229 l 735 1022 l 846 1022 l 846 317 q 819 159 846 222 q 744 59 793 96 q 625 7 694 22 q 469 -8 556 -8 z "},"Ữ":{"ha":939,"x_min":93,"x_max":979,"o":"m 747 960 l 747 1022 l 790 1022 q 869 1056 839 1022 q 900 1179 900 1090 l 979 1179 q 956 1050 979 1099 q 893 981 932 1001 q 807 960 854 960 l 747 960 m 469 -8 q 314 7 383 -8 q 195 59 244 22 q 119 159 146 96 q 93 317 93 222 l 93 1022 l 204 1022 l 204 317 q 235 181 204 229 q 326 112 267 132 q 469 92 386 92 q 613 112 553 92 q 703 181 672 132 q 735 317 735 229 l 735 1022 l 846 1022 l 846 317 q 819 159 846 222 q 744 59 793 96 q 625 7 694 22 q 469 -8 556 -8 z "},"Ű":{"ha":939,"x_min":93,"x_max":846,"o":"m 469 -8 q 314 7 383 -8 q 195 59 244 22 q 119 159 146 96 q 93 317 93 222 l 93 1022 l 204 1022 l 204 317 q 235 181 204 229 q 326 112 267 132 q 469 92 386 92 q 613 112 553 92 q 703 181 672 132 q 735 317 735 229 l 735 1022 l 846 1022 l 846 317 q 819 159 846 222 q 744 59 793 96 q 625 7 694 22 q 469 -8 556 -8 z "},"Ȗ":{"ha":939,"x_min":93,"x_max":846,"o":"m 469 -8 q 314 7 383 -8 q 195 59 244 22 q 119 159 146 96 q 93 317 93 222 l 93 1022 l 204 1022 l 204 317 q 235 181 204 229 q 326 112 267 132 q 469 92 386 92 q 613 112 553 92 q 703 181 672 132 q 735 317 735 229 l 735 1022 l 846 1022 l 846 317 q 819 159 846 222 q 744 59 793 96 q 625 7 694 22 q 469 -8 556 -8 z "},"Ū":{"ha":939,"x_min":93,"x_max":846,"o":"m 469 -8 q 314 7 383 -8 q 195 59 244 22 q 119 159 146 96 q 93 317 93 222 l 93 1022 l 204 1022 l 204 317 q 235 181 204 229 q 326 112 267 132 q 469 92 386 92 q 613 112 553 92 q 703 181 672 132 q 735 317 735 229 l 735 1022 l 846 1022 l 846 317 q 819 159 846 222 q 744 59 793 96 q 625 7 694 22 q 469 -8 556 -8 z "},"Ṻ":{"ha":939,"x_min":93,"x_max":846,"o":"m 469 -8 q 314 7 383 -8 q 195 59 244 22 q 119 159 146 96 q 93 317 93 222 l 93 1022 l 204 1022 l 204 317 q 235 181 204 229 q 326 112 267 132 q 469 92 386 92 q 613 112 553 92 q 703 181 672 132 q 735 317 735 229 l 735 1022 l 846 1022 l 846 317 q 819 159 846 222 q 744 59 793 96 q 625 7 694 22 q 469 -8 556 -8 m 592 1310 q 569 1332 569 1310 l 569 1440 q 592 1463 569 1463 l 643 1463 q 658 1456 653 1463 q 664 1440 664 1450 l 664 1332 q 643 1310 664 1310 l 592 1310 m 264 1310 q 242 1332 242 1310 l 242 1440 q 264 1463 242 1463 l 315 1463 q 332 1456 326 1463 q 338 1440 338 1450 l 338 1332 q 315 1310 338 1310 l 264 1310 z "},"Ų":{"ha":939,"x_min":93,"x_max":846,"o":"m 469 -8 q 314 7 383 -8 q 195 59 244 22 q 119 159 146 96 q 93 317 93 222 l 93 1022 l 204 1022 l 204 317 q 235 181 204 229 q 326 112 267 132 q 469 92 386 92 q 613 112 553 92 q 703 181 672 132 q 735 317 735 229 l 735 1022 l 846 1022 l 846 317 q 819 159 846 222 q 744 59 793 96 q 625 7 694 22 q 469 -8 556 -8 z "},"Ů":{"ha":939,"x_min":93,"x_max":846,"o":"m 469 -8 q 314 7 383 -8 q 195 59 244 22 q 119 159 146 96 q 93 317 93 222 l 93 1022 l 204 1022 l 204 317 q 235 181 204 229 q 326 112 267 132 q 469 92 386 92 q 613 112 553 92 q 703 181 672 132 q 735 317 735 229 l 735 1022 l 846 1022 l 846 317 q 819 159 846 222 q 744 59 793 96 q 625 7 694 22 q 469 -8 556 -8 z "},"Ũ":{"ha":939,"x_min":93,"x_max":846,"o":"m 469 -8 q 314 7 383 -8 q 195 59 244 22 q 119 159 146 96 q 93 317 93 222 l 93 1022 l 204 1022 l 204 317 q 235 181 204 229 q 326 112 267 132 q 469 92 386 92 q 613 112 553 92 q 703 181 672 132 q 735 317 735 229 l 735 1022 l 846 1022 l 846 317 q 819 159 846 222 q 744 59 793 96 q 625 7 694 22 q 469 -8 556 -8 z "},"Ṹ":{"ha":939,"x_min":93,"x_max":846,"o":"m 469 -8 q 314 7 383 -8 q 195 59 244 22 q 119 159 146 96 q 93 317 93 222 l 93 1022 l 204 1022 l 204 317 q 235 181 204 229 q 326 112 267 132 q 469 92 386 92 q 613 112 553 92 q 703 181 672 132 q 735 317 735 229 l 735 1022 l 846 1022 l 846 317 q 819 159 846 222 q 744 59 793 96 q 625 7 694 22 q 469 -8 556 -8 z "},"V":{"ha":936,"x_min":47,"x_max":889,"o":"m 397 0 l 47 1022 l 161 1022 l 469 115 l 776 1022 l 889 1022 l 539 0 l 397 0 z "},"W":{"ha":1376,"x_min":47,"x_max":1329,"o":"m 310 0 l 47 1022 l 161 1022 l 381 151 l 633 1022 l 744 1022 l 996 151 l 1215 1022 l 1329 1022 l 1067 0 l 947 0 l 689 868 l 429 0 l 310 0 z "},"Ẃ":{"ha":1376,"x_min":47,"x_max":1329,"o":"m 310 0 l 47 1022 l 161 1022 l 381 151 l 633 1022 l 744 1022 l 996 151 l 1215 1022 l 1329 1022 l 1067 0 l 947 0 l 689 868 l 429 0 l 310 0 z "},"Ŵ":{"ha":1376,"x_min":47,"x_max":1329,"o":"m 310 0 l 47 1022 l 161 1022 l 381 151 l 633 1022 l 744 1022 l 996 151 l 1215 1022 l 1329 1022 l 1067 0 l 947 0 l 689 868 l 429 0 l 310 0 z "},"Ẅ":{"ha":1376,"x_min":47,"x_max":1329,"o":"m 310 0 l 47 1022 l 161 1022 l 381 151 l 633 1022 l 744 1022 l 996 151 l 1215 1022 l 1329 1022 l 1067 0 l 947 0 l 689 868 l 429 0 l 310 0 m 831 1129 q 808 1151 808 1129 l 808 1260 q 831 1282 808 1282 l 882 1282 q 897 1276 892 1282 q 903 1260 903 1269 l 903 1151 q 882 1129 903 1129 l 831 1129 m 503 1129 q 481 1151 481 1129 l 481 1260 q 503 1282 481 1282 l 554 1282 q 571 1276 565 1282 q 576 1260 576 1269 l 576 1151 q 554 1129 576 1129 l 503 1129 z "},"Ẁ":{"ha":1376,"x_min":47,"x_max":1329,"o":"m 310 0 l 47 1022 l 161 1022 l 381 151 l 633 1022 l 744 1022 l 996 151 l 1215 1022 l 1329 1022 l 1067 0 l 947 0 l 689 868 l 429 0 l 310 0 z "},"X":{"ha":865,"x_min":49,"x_max":817,"o":"m 693 0 l 49 1022 l 169 1022 l 814 0 l 693 0 m 53 0 l 386 535 l 442 440 l 174 0 l 53 0 m 479 474 l 426 574 l 696 1022 l 817 1022 l 479 474 z "},"Y":{"ha":858,"x_min":49,"x_max":808,"o":"m 374 0 l 374 339 l 49 1022 l 164 1022 l 431 450 l 697 1022 l 808 1022 l 485 339 l 485 0 l 374 0 z "},"Ý":{"ha":858,"x_min":49,"x_max":808,"o":"m 374 0 l 374 339 l 49 1022 l 164 1022 l 431 450 l 697 1022 l 808 1022 l 485 339 l 485 0 l 374 0 z "},"Ŷ":{"ha":858,"x_min":49,"x_max":808,"o":"m 374 0 l 374 339 l 49 1022 l 164 1022 l 431 450 l 697 1022 l 808 1022 l 485 339 l 485 0 l 374 0 z "},"Ÿ":{"ha":858,"x_min":49,"x_max":808,"o":"m 374 0 l 374 339 l 49 1022 l 164 1022 l 431 450 l 697 1022 l 808 1022 l 485 339 l 485 0 l 374 0 m 558 1129 q 536 1151 536 1129 l 536 1260 q 558 1282 536 1282 l 610 1282 q 625 1276 619 1282 q 631 1260 631 1269 l 631 1151 q 610 1129 631 1129 l 558 1129 m 231 1129 q 208 1151 208 1129 l 208 1260 q 231 1282 208 1282 l 282 1282 q 299 1276 293 1282 q 304 1260 304 1269 l 304 1151 q 282 1129 304 1129 l 231 1129 z "},"Ẏ":{"ha":858,"x_min":49,"x_max":808,"o":"m 374 0 l 374 339 l 49 1022 l 164 1022 l 431 450 l 697 1022 l 808 1022 l 485 339 l 485 0 l 374 0 z "},"Ỵ":{"ha":858,"x_min":49,"x_max":808,"o":"m 374 0 l 374 339 l 49 1022 l 164 1022 l 431 450 l 697 1022 l 808 1022 l 485 339 l 485 0 l 374 0 z "},"Ỳ":{"ha":858,"x_min":49,"x_max":808,"o":"m 374 0 l 374 339 l 49 1022 l 164 1022 l 431 450 l 697 1022 l 808 1022 l 485 339 l 485 0 l 374 0 z "},"Ỷ":{"ha":858,"x_min":49,"x_max":808,"o":"m 374 0 l 374 339 l 49 1022 l 164 1022 l 431 450 l 697 1022 l 808 1022 l 485 339 l 485 0 l 374 0 z "},"Ȳ":{"ha":858,"x_min":49,"x_max":808,"o":"m 374 0 l 374 339 l 49 1022 l 164 1022 l 431 450 l 697 1022 l 808 1022 l 485 339 l 485 0 l 374 0 z "},"Ỹ":{"ha":858,"x_min":49,"x_max":808,"o":"m 374 0 l 374 339 l 49 1022 l 164 1022 l 431 450 l 697 1022 l 808 1022 l 485 339 l 485 0 l 374 0 z "},"Z":{"ha":778,"x_min":60,"x_max":725,"o":"m 60 0 l 60 90 l 592 922 l 60 922 l 60 1022 l 725 1022 l 725 932 l 193 99 l 725 99 l 725 0 l 60 0 z "},"Ź":{"ha":778,"x_min":60,"x_max":725,"o":"m 60 0 l 60 90 l 592 922 l 60 922 l 60 1022 l 725 1022 l 725 932 l 193 99 l 725 99 l 725 0 l 60 0 z "},"Ž":{"ha":778,"x_min":60,"x_max":725,"o":"m 60 0 l 60 90 l 592 922 l 60 922 l 60 1022 l 725 1022 l 725 932 l 193 99 l 725 99 l 725 0 l 60 0 z "},"Ż":{"ha":778,"x_min":60,"x_max":725,"o":"m 60 0 l 60 90 l 592 922 l 60 922 l 60 1022 l 725 1022 l 725 932 l 193 99 l 725 99 l 725 0 l 60 0 z "},"Ẓ":{"ha":778,"x_min":60,"x_max":725,"o":"m 60 0 l 60 90 l 592 922 l 60 922 l 60 1022 l 725 1022 l 725 932 l 193 99 l 725 99 l 725 0 l 60 0 z "},"a":{"ha":757,"x_min":63,"x_max":656,"o":"m 250 -8 q 115 40 168 -8 q 63 178 63 89 l 63 231 q 120 372 63 318 q 294 426 178 426 l 546 426 l 546 518 q 530 597 546 564 q 473 647 514 629 q 354 665 432 665 l 124 665 l 124 731 q 237 746 172 739 q 389 753 301 753 q 539 731 479 754 q 627 656 599 707 q 656 524 656 606 l 656 0 l 571 0 l 550 85 q 516 65 544 79 q 444 34 488 51 q 349 4 400 17 q 250 -8 299 -8 m 296 74 q 353 79 321 72 q 418 95 385 86 q 480 114 451 104 q 526 131 508 124 q 546 138 544 138 l 546 371 l 319 361 q 206 322 240 358 q 172 229 172 286 l 172 196 q 191 124 172 151 q 238 86 210 97 q 296 74 267 75 z "},"á":{"ha":757,"x_min":63,"x_max":656,"o":"m 250 -8 q 115 40 168 -8 q 63 178 63 89 l 63 231 q 120 372 63 318 q 294 426 178 426 l 546 426 l 546 518 q 530 597 546 564 q 473 647 514 629 q 354 665 432 665 l 124 665 l 124 731 q 237 746 172 739 q 389 753 301 753 q 539 731 479 754 q 627 656 599 707 q 656 524 656 606 l 656 0 l 571 0 l 550 85 q 516 65 544 79 q 444 34 488 51 q 349 4 400 17 q 250 -8 299 -8 m 296 74 q 353 79 321 72 q 418 95 385 86 q 480 114 451 104 q 526 131 508 124 q 546 138 544 138 l 546 371 l 319 361 q 206 322 240 358 q 172 229 172 286 l 172 196 q 191 124 172 151 q 238 86 210 97 q 296 74 267 75 z "},"ă":{"ha":757,"x_min":63,"x_max":656,"o":"m 250 -8 q 115 40 168 -8 q 63 178 63 89 l 63 231 q 120 372 63 318 q 294 426 178 426 l 546 426 l 546 518 q 530 597 546 564 q 473 647 514 629 q 354 665 432 665 l 124 665 l 124 731 q 237 746 172 739 q 389 753 301 753 q 539 731 479 754 q 627 656 599 707 q 656 524 656 606 l 656 0 l 571 0 l 550 85 q 516 65 544 79 q 444 34 488 51 q 349 4 400 17 q 250 -8 299 -8 m 296 74 q 353 79 321 72 q 418 95 385 86 q 480 114 451 104 q 526 131 508 124 q 546 138 544 138 l 546 371 l 319 361 q 206 322 240 358 q 172 229 172 286 l 172 196 q 191 124 172 151 q 238 86 210 97 q 296 74 267 75 z "},"ắ":{"ha":757,"x_min":63,"x_max":656,"o":"m 250 -8 q 115 40 168 -8 q 63 178 63 89 l 63 231 q 120 372 63 318 q 294 426 178 426 l 546 426 l 546 518 q 530 597 546 564 q 473 647 514 629 q 354 665 432 665 l 124 665 l 124 731 q 237 746 172 739 q 389 753 301 753 q 539 731 479 754 q 627 656 599 707 q 656 524 656 606 l 656 0 l 571 0 l 550 85 q 516 65 544 79 q 444 34 488 51 q 349 4 400 17 q 250 -8 299 -8 m 296 74 q 353 79 321 72 q 418 95 385 86 q 480 114 451 104 q 526 131 508 124 q 546 138 544 138 l 546 371 l 319 361 q 206 322 240 358 q 172 229 172 286 l 172 196 q 191 124 172 151 q 238 86 210 97 q 296 74 267 75 m 238 1019 q 276 935 238 960 q 365 913 315 911 q 458 936 422 913 q 494 1019 494 960 l 550 1019 q 524 927 550 961 q 457 878 499 893 q 365 864 415 864 q 274 879 315 864 q 208 928 233 894 q 183 1019 183 963 l 238 1019 m 325 1029 l 469 1218 l 564 1218 l 390 1029 l 325 1029 z "},"ặ":{"ha":757,"x_min":63,"x_max":656,"o":"m 250 -8 q 115 40 168 -8 q 63 178 63 89 l 63 231 q 120 372 63 318 q 294 426 178 426 l 546 426 l 546 518 q 530 597 546 564 q 473 647 514 629 q 354 665 432 665 l 124 665 l 124 731 q 237 746 172 739 q 389 753 301 753 q 539 731 479 754 q 627 656 599 707 q 656 524 656 606 l 656 0 l 571 0 l 550 85 q 516 65 544 79 q 444 34 488 51 q 349 4 400 17 q 250 -8 299 -8 m 296 74 q 353 79 321 72 q 418 95 385 86 q 480 114 451 104 q 526 131 508 124 q 546 138 544 138 l 546 371 l 319 361 q 206 322 240 358 q 172 229 172 286 l 172 196 q 191 124 172 151 q 238 86 210 97 q 296 74 267 75 m 344 -292 q 322 -269 322 -292 l 322 -161 q 344 -139 322 -139 l 396 -139 q 413 -145 407 -139 q 418 -161 418 -151 l 418 -269 q 396 -292 418 -292 l 344 -292 z "},"ằ":{"ha":757,"x_min":63,"x_max":656,"o":"m 250 -8 q 115 40 168 -8 q 63 178 63 89 l 63 231 q 120 372 63 318 q 294 426 178 426 l 546 426 l 546 518 q 530 597 546 564 q 473 647 514 629 q 354 665 432 665 l 124 665 l 124 731 q 237 746 172 739 q 389 753 301 753 q 539 731 479 754 q 627 656 599 707 q 656 524 656 606 l 656 0 l 571 0 l 550 85 q 516 65 544 79 q 444 34 488 51 q 349 4 400 17 q 250 -8 299 -8 m 296 74 q 353 79 321 72 q 418 95 385 86 q 480 114 451 104 q 526 131 508 124 q 546 138 544 138 l 546 371 l 319 361 q 206 322 240 358 q 172 229 172 286 l 172 196 q 191 124 172 151 q 238 86 210 97 q 296 74 267 75 m 238 1019 q 276 935 238 960 q 365 913 315 911 q 458 936 422 913 q 494 1019 494 960 l 550 1019 q 524 927 550 961 q 457 878 499 893 q 365 864 415 864 q 274 879 315 864 q 208 928 233 894 q 183 1019 183 963 l 238 1019 m 356 1029 l 182 1218 l 276 1218 l 419 1029 l 356 1029 z "},"ẳ":{"ha":757,"x_min":63,"x_max":656,"o":"m 250 -8 q 115 40 168 -8 q 63 178 63 89 l 63 231 q 120 372 63 318 q 294 426 178 426 l 546 426 l 546 518 q 530 597 546 564 q 473 647 514 629 q 354 665 432 665 l 124 665 l 124 731 q 237 746 172 739 q 389 753 301 753 q 539 731 479 754 q 627 656 599 707 q 656 524 656 606 l 656 0 l 571 0 l 550 85 q 516 65 544 79 q 444 34 488 51 q 349 4 400 17 q 250 -8 299 -8 m 296 74 q 353 79 321 72 q 418 95 385 86 q 480 114 451 104 q 526 131 508 124 q 546 138 544 138 l 546 371 l 319 361 q 206 322 240 358 q 172 229 172 286 l 172 196 q 191 124 172 151 q 238 86 210 97 q 296 74 267 75 m 365 864 q 274 879 315 864 q 208 928 233 894 q 183 1019 183 963 l 238 1019 q 276 935 238 960 q 365 913 315 911 q 458 936 422 913 q 494 1019 494 960 l 550 1019 q 524 927 550 961 q 457 878 499 893 q 365 864 415 864 m 342 971 l 342 1022 q 404 1058 388 1036 q 421 1104 421 1081 q 406 1149 421 1132 q 354 1165 392 1165 q 329 1163 342 1165 q 304 1157 317 1161 l 304 1204 q 335 1212 319 1210 q 368 1214 351 1214 q 453 1184 426 1214 q 481 1107 481 1154 q 448 1027 481 1063 q 342 971 415 992 z "},"ẵ":{"ha":757,"x_min":63,"x_max":656,"o":"m 250 -8 q 115 40 168 -8 q 63 178 63 89 l 63 231 q 120 372 63 318 q 294 426 178 426 l 546 426 l 546 518 q 530 597 546 564 q 473 647 514 629 q 354 665 432 665 l 124 665 l 124 731 q 237 746 172 739 q 389 753 301 753 q 539 731 479 754 q 627 656 599 707 q 656 524 656 606 l 656 0 l 571 0 l 550 85 q 516 65 544 79 q 444 34 488 51 q 349 4 400 17 q 250 -8 299 -8 m 296 74 q 353 79 321 72 q 418 95 385 86 q 480 114 451 104 q 526 131 508 124 q 546 138 544 138 l 546 371 l 319 361 q 206 322 240 358 q 172 229 172 286 l 172 196 q 191 124 172 151 q 238 86 210 97 q 296 74 267 75 m 238 1019 q 276 935 238 960 q 365 913 315 911 q 458 936 422 913 q 494 1019 494 960 l 550 1019 q 524 927 550 961 q 457 878 499 893 q 365 864 415 864 q 274 879 315 864 q 208 928 233 894 q 183 1019 183 963 l 238 1019 m 150 1068 q 169 1139 151 1114 q 212 1174 186 1164 q 264 1183 238 1183 q 336 1169 303 1183 q 401 1140 369 1156 q 463 1125 432 1125 q 517 1141 496 1125 q 538 1186 538 1157 l 593 1186 q 578 1120 592 1146 q 539 1082 564 1094 q 478 1069 514 1069 q 408 1084 442 1069 q 343 1113 375 1099 q 279 1128 311 1128 q 228 1113 249 1128 q 207 1068 207 1099 l 150 1068 z "},"â":{"ha":757,"x_min":63,"x_max":656,"o":"m 250 -8 q 115 40 168 -8 q 63 178 63 89 l 63 231 q 120 372 63 318 q 294 426 178 426 l 546 426 l 546 518 q 530 597 546 564 q 473 647 514 629 q 354 665 432 665 l 124 665 l 124 731 q 237 746 172 739 q 389 753 301 753 q 539 731 479 754 q 627 656 599 707 q 656 524 656 606 l 656 0 l 571 0 l 550 85 q 516 65 544 79 q 444 34 488 51 q 349 4 400 17 q 250 -8 299 -8 m 296 74 q 353 79 321 72 q 418 95 385 86 q 480 114 451 104 q 526 131 508 124 q 546 138 544 138 l 546 371 l 319 361 q 206 322 240 358 q 172 229 172 286 l 172 196 q 191 124 172 151 q 238 86 210 97 q 296 74 267 75 z "},"ấ":{"ha":757,"x_min":63,"x_max":707,"o":"m 250 -8 q 115 40 168 -8 q 63 178 63 89 l 63 231 q 120 372 63 318 q 294 426 178 426 l 546 426 l 546 518 q 530 597 546 564 q 473 647 514 629 q 354 665 432 665 l 124 665 l 124 731 q 237 746 172 739 q 389 753 301 753 q 539 731 479 754 q 627 656 599 707 q 656 524 656 606 l 656 0 l 571 0 l 550 85 q 516 65 544 79 q 444 34 488 51 q 349 4 400 17 q 250 -8 299 -8 m 296 74 q 353 79 321 72 q 418 95 385 86 q 480 114 451 104 q 526 131 508 124 q 546 138 544 138 l 546 371 l 319 361 q 206 322 240 358 q 172 229 172 286 l 172 196 q 191 124 172 151 q 238 86 210 97 q 296 74 267 75 m 339 1013 l 418 1013 l 571 876 l 504 876 l 376 961 l 238 876 l 171 876 l 339 1013 m 613 1163 l 707 1163 l 556 983 l 492 983 l 613 1163 z "},"ậ":{"ha":757,"x_min":63,"x_max":656,"o":"m 250 -8 q 115 40 168 -8 q 63 178 63 89 l 63 231 q 120 372 63 318 q 294 426 178 426 l 546 426 l 546 518 q 530 597 546 564 q 473 647 514 629 q 354 665 432 665 l 124 665 l 124 731 q 237 746 172 739 q 389 753 301 753 q 539 731 479 754 q 627 656 599 707 q 656 524 656 606 l 656 0 l 571 0 l 550 85 q 516 65 544 79 q 444 34 488 51 q 349 4 400 17 q 250 -8 299 -8 m 296 74 q 353 79 321 72 q 418 95 385 86 q 480 114 451 104 q 526 131 508 124 q 546 138 544 138 l 546 371 l 319 361 q 206 322 240 358 q 172 229 172 286 l 172 196 q 191 124 172 151 q 238 86 210 97 q 296 74 267 75 m 344 -292 q 322 -269 322 -292 l 322 -161 q 344 -139 322 -139 l 396 -139 q 413 -145 407 -139 q 418 -161 418 -151 l 418 -269 q 396 -292 418 -292 l 344 -292 z "},"ầ":{"ha":757,"x_min":43,"x_max":656,"o":"m 250 -8 q 115 40 168 -8 q 63 178 63 89 l 63 231 q 120 372 63 318 q 294 426 178 426 l 546 426 l 546 518 q 530 597 546 564 q 473 647 514 629 q 354 665 432 665 l 124 665 l 124 731 q 237 746 172 739 q 389 753 301 753 q 539 731 479 754 q 627 656 599 707 q 656 524 656 606 l 656 0 l 571 0 l 550 85 q 516 65 544 79 q 444 34 488 51 q 349 4 400 17 q 250 -8 299 -8 m 296 74 q 353 79 321 72 q 418 95 385 86 q 480 114 451 104 q 526 131 508 124 q 546 138 544 138 l 546 371 l 319 361 q 206 322 240 358 q 172 229 172 286 l 172 196 q 191 124 172 151 q 238 86 210 97 q 296 74 267 75 m 339 1013 l 418 1013 l 571 876 l 504 876 l 376 961 l 238 876 l 171 876 l 339 1013 m 43 1163 l 138 1163 l 258 983 l 194 983 l 43 1163 z "},"ẩ":{"ha":757,"x_min":63,"x_max":656,"o":"m 250 -8 q 115 40 168 -8 q 63 178 63 89 l 63 231 q 120 372 63 318 q 294 426 178 426 l 546 426 l 546 518 q 530 597 546 564 q 473 647 514 629 q 354 665 432 665 l 124 665 l 124 731 q 237 746 172 739 q 389 753 301 753 q 539 731 479 754 q 627 656 599 707 q 656 524 656 606 l 656 0 l 571 0 l 550 85 q 516 65 544 79 q 444 34 488 51 q 349 4 400 17 q 250 -8 299 -8 m 296 74 q 353 79 321 72 q 418 95 385 86 q 480 114 451 104 q 526 131 508 124 q 546 138 544 138 l 546 371 l 319 361 q 206 322 240 358 q 172 229 172 286 l 172 196 q 191 124 172 151 q 238 86 210 97 q 296 74 267 75 m 171 876 l 339 1013 l 418 1013 l 571 876 l 504 876 l 376 961 l 238 876 l 171 876 m 524 949 l 524 999 q 578 1031 563 1011 q 593 1069 593 1050 q 580 1108 593 1094 q 535 1121 567 1121 q 510 1118 524 1121 q 486 1113 497 1115 l 486 1154 q 517 1162 501 1160 q 549 1164 532 1164 q 624 1140 600 1164 q 649 1074 649 1115 q 619 999 649 1032 q 524 949 589 967 z "},"ẫ":{"ha":757,"x_min":63,"x_max":656,"o":"m 250 -8 q 115 40 168 -8 q 63 178 63 89 l 63 231 q 120 372 63 318 q 294 426 178 426 l 546 426 l 546 518 q 530 597 546 564 q 473 647 514 629 q 354 665 432 665 l 124 665 l 124 731 q 237 746 172 739 q 389 753 301 753 q 539 731 479 754 q 627 656 599 707 q 656 524 656 606 l 656 0 l 571 0 l 550 85 q 516 65 544 79 q 444 34 488 51 q 349 4 400 17 q 250 -8 299 -8 m 296 74 q 353 79 321 72 q 418 95 385 86 q 480 114 451 104 q 526 131 508 124 q 546 138 544 138 l 546 371 l 319 361 q 206 322 240 358 q 172 229 172 286 l 172 196 q 191 124 172 151 q 238 86 210 97 q 296 74 267 75 m 150 1078 q 169 1149 151 1124 q 212 1183 186 1174 q 264 1193 238 1193 q 336 1178 303 1193 q 400 1149 369 1164 q 463 1135 431 1135 q 517 1150 496 1135 q 538 1196 538 1165 l 593 1196 q 578 1130 592 1156 q 539 1091 564 1104 q 478 1078 514 1078 q 406 1093 440 1078 q 340 1122 372 1108 q 274 1136 307 1136 q 227 1122 247 1136 q 207 1078 207 1107 l 150 1078 m 418 1013 l 571 876 l 504 876 l 376 961 l 238 876 l 171 876 l 339 1013 l 418 1013 z "},"ȁ":{"ha":757,"x_min":63,"x_max":656,"o":"m 250 -8 q 115 40 168 -8 q 63 178 63 89 l 63 231 q 120 372 63 318 q 294 426 178 426 l 546 426 l 546 518 q 530 597 546 564 q 473 647 514 629 q 354 665 432 665 l 124 665 l 124 731 q 237 746 172 739 q 389 753 301 753 q 539 731 479 754 q 627 656 599 707 q 656 524 656 606 l 656 0 l 571 0 l 550 85 q 516 65 544 79 q 444 34 488 51 q 349 4 400 17 q 250 -8 299 -8 m 296 74 q 353 79 321 72 q 418 95 385 86 q 480 114 451 104 q 526 131 508 124 q 546 138 544 138 l 546 371 l 319 361 q 206 322 240 358 q 172 229 172 286 l 172 196 q 191 124 172 151 q 238 86 210 97 q 296 74 267 75 m 472 876 l 299 1065 l 393 1065 l 538 876 l 472 876 m 269 876 l 96 1065 l 190 1065 l 335 876 l 269 876 z "},"ä":{"ha":757,"x_min":63,"x_max":656,"o":"m 250 -8 q 115 40 168 -8 q 63 178 63 89 l 63 231 q 120 372 63 318 q 294 426 178 426 l 546 426 l 546 518 q 530 597 546 564 q 473 647 514 629 q 354 665 432 665 l 124 665 l 124 731 q 237 746 172 739 q 389 753 301 753 q 539 731 479 754 q 627 656 599 707 q 656 524 656 606 l 656 0 l 571 0 l 550 85 q 516 65 544 79 q 444 34 488 51 q 349 4 400 17 q 250 -8 299 -8 m 296 74 q 353 79 321 72 q 418 95 385 86 q 480 114 451 104 q 526 131 508 124 q 546 138 544 138 l 546 371 l 319 361 q 206 322 240 358 q 172 229 172 286 l 172 196 q 191 124 172 151 q 238 86 210 97 q 296 74 267 75 m 483 907 q 461 929 461 907 l 461 1038 q 483 1060 461 1060 l 533 1060 q 550 1053 544 1060 q 556 1038 556 1047 l 556 929 q 533 907 556 907 l 483 907 m 213 907 q 190 929 190 907 l 190 1038 q 213 1060 190 1060 l 263 1060 q 279 1053 274 1060 q 285 1038 285 1047 l 285 929 q 263 907 285 907 l 213 907 z "},"ạ":{"ha":757,"x_min":63,"x_max":656,"o":"m 250 -8 q 115 40 168 -8 q 63 178 63 89 l 63 231 q 120 372 63 318 q 294 426 178 426 l 546 426 l 546 518 q 530 597 546 564 q 473 647 514 629 q 354 665 432 665 l 124 665 l 124 731 q 237 746 172 739 q 389 753 301 753 q 539 731 479 754 q 627 656 599 707 q 656 524 656 606 l 656 0 l 571 0 l 550 85 q 516 65 544 79 q 444 34 488 51 q 349 4 400 17 q 250 -8 299 -8 m 296 74 q 353 79 321 72 q 418 95 385 86 q 480 114 451 104 q 526 131 508 124 q 546 138 544 138 l 546 371 l 319 361 q 206 322 240 358 q 172 229 172 286 l 172 196 q 191 124 172 151 q 238 86 210 97 q 296 74 267 75 m 344 -292 q 322 -269 322 -292 l 322 -161 q 344 -139 322 -139 l 396 -139 q 413 -145 407 -139 q 418 -161 418 -151 l 418 -269 q 396 -292 418 -292 l 344 -292 z "},"à":{"ha":757,"x_min":63,"x_max":656,"o":"m 250 -8 q 115 40 168 -8 q 63 178 63 89 l 63 231 q 120 372 63 318 q 294 426 178 426 l 546 426 l 546 518 q 530 597 546 564 q 473 647 514 629 q 354 665 432 665 l 124 665 l 124 731 q 237 746 172 739 q 389 753 301 753 q 539 731 479 754 q 627 656 599 707 q 656 524 656 606 l 656 0 l 571 0 l 550 85 q 516 65 544 79 q 444 34 488 51 q 349 4 400 17 q 250 -8 299 -8 m 296 74 q 353 79 321 72 q 418 95 385 86 q 480 114 451 104 q 526 131 508 124 q 546 138 544 138 l 546 371 l 319 361 q 206 322 240 358 q 172 229 172 286 l 172 196 q 191 124 172 151 q 238 86 210 97 q 296 74 267 75 z "},"ả":{"ha":757,"x_min":63,"x_max":656,"o":"m 250 -8 q 115 40 168 -8 q 63 178 63 89 l 63 231 q 120 372 63 318 q 294 426 178 426 l 546 426 l 546 518 q 530 597 546 564 q 473 647 514 629 q 354 665 432 665 l 124 665 l 124 731 q 237 746 172 739 q 389 753 301 753 q 539 731 479 754 q 627 656 599 707 q 656 524 656 606 l 656 0 l 571 0 l 550 85 q 516 65 544 79 q 444 34 488 51 q 349 4 400 17 q 250 -8 299 -8 m 296 74 q 353 79 321 72 q 418 95 385 86 q 480 114 451 104 q 526 131 508 124 q 546 138 544 138 l 546 371 l 319 361 q 206 322 240 358 q 172 229 172 286 l 172 196 q 191 124 172 151 q 238 86 210 97 q 296 74 267 75 m 350 838 l 350 889 q 411 924 394 901 q 428 971 428 947 q 413 1015 428 999 q 361 1032 399 1032 q 337 1030 350 1032 q 311 1024 324 1028 l 311 1071 q 342 1078 326 1076 q 375 1079 358 1079 q 461 1050 433 1079 q 489 972 489 1021 q 456 893 489 928 q 350 838 422 858 z "},"ȃ":{"ha":757,"x_min":63,"x_max":656,"o":"m 250 -8 q 115 40 168 -8 q 63 178 63 89 l 63 231 q 120 372 63 318 q 294 426 178 426 l 546 426 l 546 518 q 530 597 546 564 q 473 647 514 629 q 354 665 432 665 l 124 665 l 124 731 q 237 746 172 739 q 389 753 301 753 q 539 731 479 754 q 627 656 599 707 q 656 524 656 606 l 656 0 l 571 0 l 550 85 q 516 65 544 79 q 444 34 488 51 q 349 4 400 17 q 250 -8 299 -8 m 296 74 q 353 79 321 72 q 418 95 385 86 q 480 114 451 104 q 526 131 508 124 q 546 138 544 138 l 546 371 l 319 361 q 206 322 240 358 q 172 229 172 286 l 172 196 q 191 124 172 151 q 238 86 210 97 q 296 74 267 75 z "},"ā":{"ha":757,"x_min":63,"x_max":656,"o":"m 250 -8 q 115 40 168 -8 q 63 178 63 89 l 63 231 q 120 372 63 318 q 294 426 178 426 l 546 426 l 546 518 q 530 597 546 564 q 473 647 514 629 q 354 665 432 665 l 124 665 l 124 731 q 237 746 172 739 q 389 753 301 753 q 539 731 479 754 q 627 656 599 707 q 656 524 656 606 l 656 0 l 571 0 l 550 85 q 516 65 544 79 q 444 34 488 51 q 349 4 400 17 q 250 -8 299 -8 m 296 74 q 353 79 321 72 q 418 95 385 86 q 480 114 451 104 q 526 131 508 124 q 546 138 544 138 l 546 371 l 319 361 q 206 322 240 358 q 172 229 172 286 l 172 196 q 191 124 172 151 q 238 86 210 97 q 296 74 267 75 z "},"ą":{"ha":757,"x_min":63,"x_max":692,"o":"m 250 -8 q 115 40 168 -8 q 63 178 63 89 l 63 231 q 120 372 63 318 q 294 426 178 426 l 546 426 l 546 518 q 530 597 546 564 q 473 647 514 629 q 354 665 432 665 l 124 665 l 124 731 q 237 746 172 739 q 389 753 301 753 q 539 731 479 754 q 627 656 599 707 q 656 524 656 606 l 656 0 l 571 0 l 550 85 q 516 65 544 79 q 444 34 488 51 q 349 4 400 17 q 250 -8 299 -8 m 296 74 q 353 79 321 72 q 418 95 385 86 q 480 114 451 104 q 526 131 508 124 q 546 138 544 138 l 546 371 l 319 361 q 206 322 240 358 q 172 229 172 286 l 172 196 q 191 124 172 151 q 238 86 210 97 q 296 74 267 75 z "},"å":{"ha":757,"x_min":63,"x_max":656,"o":"m 250 -8 q 115 40 168 -8 q 63 178 63 89 l 63 231 q 120 372 63 318 q 294 426 178 426 l 546 426 l 546 518 q 530 597 546 564 q 473 647 514 629 q 354 665 432 665 l 124 665 l 124 731 q 237 746 172 739 q 389 753 301 753 q 539 731 479 754 q 627 656 599 707 q 656 524 656 606 l 656 0 l 571 0 l 550 85 q 516 65 544 79 q 444 34 488 51 q 349 4 400 17 q 250 -8 299 -8 m 296 74 q 353 79 321 72 q 418 95 385 86 q 480 114 451 104 q 526 131 508 124 q 546 138 544 138 l 546 371 l 319 361 q 206 322 240 358 q 172 229 172 286 l 172 196 q 191 124 172 151 q 238 86 210 97 q 296 74 267 75 z "},"ǻ":{"ha":757,"x_min":63,"x_max":656,"o":"m 250 -8 q 115 40 168 -8 q 63 178 63 89 l 63 231 q 120 372 63 318 q 294 426 178 426 l 546 426 l 546 518 q 530 597 546 564 q 473 647 514 629 q 354 665 432 665 l 124 665 l 124 731 q 237 746 172 739 q 389 753 301 753 q 539 731 479 754 q 627 656 599 707 q 656 524 656 606 l 656 0 l 571 0 l 550 85 q 516 65 544 79 q 444 34 488 51 q 349 4 400 17 q 250 -8 299 -8 m 296 74 q 353 79 321 72 q 418 95 385 86 q 480 114 451 104 q 526 131 508 124 q 546 138 544 138 l 546 371 l 319 361 q 206 322 240 358 q 172 229 172 286 l 172 196 q 191 124 172 151 q 238 86 210 97 q 296 74 267 75 z "},"ã":{"ha":757,"x_min":63,"x_max":656,"o":"m 250 -8 q 115 40 168 -8 q 63 178 63 89 l 63 231 q 120 372 63 318 q 294 426 178 426 l 546 426 l 546 518 q 530 597 546 564 q 473 647 514 629 q 354 665 432 665 l 124 665 l 124 731 q 237 746 172 739 q 389 753 301 753 q 539 731 479 754 q 627 656 599 707 q 656 524 656 606 l 656 0 l 571 0 l 550 85 q 516 65 544 79 q 444 34 488 51 q 349 4 400 17 q 250 -8 299 -8 m 296 74 q 353 79 321 72 q 418 95 385 86 q 480 114 451 104 q 526 131 508 124 q 546 138 544 138 l 546 371 l 319 361 q 206 322 240 358 q 172 229 172 286 l 172 196 q 191 124 172 151 q 238 86 210 97 q 296 74 267 75 z "},"æ":{"ha":1224,"x_min":64,"x_max":1140,"o":"m 254 -8 q 149 16 192 -8 q 85 83 106 40 q 64 182 64 126 l 64 228 q 90 328 64 286 q 166 395 115 371 q 292 419 217 419 l 547 419 l 547 519 q 531 594 547 561 q 476 646 515 626 q 367 665 436 665 l 125 665 l 125 731 q 233 747 178 740 q 376 753 289 753 q 522 723 457 754 q 611 626 586 692 q 702 724 639 696 q 854 751 765 751 q 1015 729 951 751 q 1109 653 1078 707 q 1140 503 1140 599 q 1083 376 1140 410 q 922 343 1026 343 l 656 343 q 673 208 656 261 q 723 127 690 156 q 799 88 756 99 q 896 78 843 78 l 1121 78 l 1121 11 q 985 -4 1057 0 q 850 -8 913 -8 q 724 13 775 -8 q 640 69 672 35 q 588 142 607 104 q 501 69 553 103 q 388 13 450 35 q 254 -8 325 -8 m 297 74 q 440 106 369 74 q 565 197 510 139 q 553 260 560 219 q 546 358 547 301 l 310 353 q 204 315 235 351 q 174 229 174 278 l 174 197 q 192 124 174 151 q 238 85 210 96 q 297 74 267 74 m 656 417 l 919 417 q 983 424 956 417 q 1025 449 1010 431 q 1040 506 1040 468 q 1022 599 1040 564 q 961 649 1003 633 q 849 665 919 665 q 732 645 774 665 q 674 572 690 625 q 656 417 657 518 z "},"ǽ":{"ha":1224,"x_min":64,"x_max":1140,"o":"m 254 -8 q 149 16 192 -8 q 85 83 106 40 q 64 182 64 126 l 64 228 q 90 328 64 286 q 166 395 115 371 q 292 419 217 419 l 547 419 l 547 519 q 531 594 547 561 q 476 646 515 626 q 367 665 436 665 l 125 665 l 125 731 q 233 747 178 740 q 376 753 289 753 q 522 723 457 754 q 611 626 586 692 q 702 724 639 696 q 854 751 765 751 q 1015 729 951 751 q 1109 653 1078 707 q 1140 503 1140 599 q 1083 376 1140 410 q 922 343 1026 343 l 656 343 q 673 208 656 261 q 723 127 690 156 q 799 88 756 99 q 896 78 843 78 l 1121 78 l 1121 11 q 985 -4 1057 0 q 850 -8 913 -8 q 724 13 775 -8 q 640 69 672 35 q 588 142 607 104 q 501 69 553 103 q 388 13 450 35 q 254 -8 325 -8 m 297 74 q 440 106 369 74 q 565 197 510 139 q 553 260 560 219 q 546 358 547 301 l 310 353 q 204 315 235 351 q 174 229 174 278 l 174 197 q 192 124 174 151 q 238 85 210 96 q 297 74 267 74 m 656 417 l 919 417 q 983 424 956 417 q 1025 449 1010 431 q 1040 506 1040 468 q 1022 599 1040 564 q 961 649 1003 633 q 849 665 919 665 q 732 645 774 665 q 674 572 690 625 q 656 417 657 518 z "},"b":{"ha":803,"x_min":106,"x_max":724,"o":"m 463 -8 q 365 5 410 -8 q 282 37 319 18 q 215 75 244 56 l 194 0 l 106 0 l 106 1060 l 215 1060 l 215 674 q 335 728 268 704 q 458 751 401 751 q 606 714 547 751 q 694 592 664 676 q 724 365 724 507 q 697 166 724 250 q 613 37 671 82 q 463 -8 556 -8 m 428 83 q 530 115 489 83 q 592 210 571 146 q 614 369 614 274 q 590 553 614 492 q 524 638 565 615 q 428 660 482 660 q 316 642 365 660 q 215 597 267 625 l 215 143 q 310 103 258 122 q 428 83 363 83 z "},"ḃ":{"ha":803,"x_min":106,"x_max":724,"o":"m 463 -8 q 365 5 410 -8 q 282 37 319 18 q 215 75 244 56 l 194 0 l 106 0 l 106 1060 l 215 1060 l 215 674 q 335 728 268 704 q 458 751 401 751 q 606 714 547 751 q 694 592 664 676 q 724 365 724 507 q 697 166 724 250 q 613 37 671 82 q 463 -8 556 -8 m 428 83 q 530 115 489 83 q 592 210 571 146 q 614 369 614 274 q 590 553 614 492 q 524 638 565 615 q 428 660 482 660 q 316 642 365 660 q 215 597 267 625 l 215 143 q 310 103 258 122 q 428 83 363 83 z "},"c":{"ha":681,"x_min":79,"x_max":635,"o":"m 375 -8 q 258 8 313 -8 q 164 67 204 25 q 101 182 124 108 q 79 369 79 256 q 100 559 79 485 q 160 675 121 633 q 254 733 199 717 q 378 750 310 750 q 499 745 433 750 q 624 731 564 740 l 624 665 l 407 665 q 288 642 336 665 q 214 553 239 618 q 189 367 189 489 q 215 186 189 249 q 290 101 242 124 q 408 78 339 78 l 635 78 l 635 14 q 560 3 603 8 q 471 -6 518 -3 q 375 -8 424 -8 z "},"ć":{"ha":681,"x_min":79,"x_max":635,"o":"m 375 -8 q 258 8 313 -8 q 164 67 204 25 q 101 182 124 108 q 79 369 79 256 q 100 559 79 485 q 160 675 121 633 q 254 733 199 717 q 378 750 310 750 q 499 745 433 750 q 624 731 564 740 l 624 665 l 407 665 q 288 642 336 665 q 214 553 239 618 q 189 367 189 489 q 215 186 189 249 q 290 101 242 124 q 408 78 339 78 l 635 78 l 635 14 q 560 3 603 8 q 471 -6 518 -3 q 375 -8 424 -8 z "},"č":{"ha":681,"x_min":79,"x_max":635,"o":"m 375 -8 q 258 8 313 -8 q 164 67 204 25 q 101 182 124 108 q 79 369 79 256 q 100 559 79 485 q 160 675 121 633 q 254 733 199 717 q 378 750 310 750 q 499 745 433 750 q 624 731 564 740 l 624 665 l 407 665 q 288 642 336 665 q 214 553 239 618 q 189 367 189 489 q 215 186 189 249 q 290 101 242 124 q 408 78 339 78 l 635 78 l 635 14 q 560 3 603 8 q 471 -6 518 -3 q 375 -8 424 -8 z "},"ç":{"ha":681,"x_min":79,"x_max":635,"o":"m 375 -8 q 258 8 313 -8 q 164 67 204 25 q 101 182 124 108 q 79 369 79 256 q 100 559 79 485 q 160 675 121 633 q 254 733 199 717 q 378 750 310 750 q 499 745 433 750 q 624 731 564 740 l 624 665 l 407 665 q 288 642 336 665 q 214 553 239 618 q 189 367 189 489 q 215 186 189 249 q 290 101 242 124 q 408 78 339 78 l 635 78 l 635 14 q 560 3 603 8 q 471 -6 518 -3 q 375 -8 424 -8 z "},"ḉ":{"ha":681,"x_min":79,"x_max":635,"o":"m 375 -8 q 258 8 313 -8 q 164 67 204 25 q 101 182 124 108 q 79 369 79 256 q 100 559 79 485 q 160 675 121 633 q 254 733 199 717 q 378 750 310 750 q 499 745 433 750 q 624 731 564 740 l 624 665 l 407 665 q 288 642 336 665 q 214 553 239 618 q 189 367 189 489 q 215 186 189 249 q 290 101 242 124 q 408 78 339 78 l 635 78 l 635 14 q 560 3 603 8 q 471 -6 518 -3 q 375 -8 424 -8 z "},"ĉ":{"ha":681,"x_min":79,"x_max":635,"o":"m 375 -8 q 258 8 313 -8 q 164 67 204 25 q 101 182 124 108 q 79 369 79 256 q 100 559 79 485 q 160 675 121 633 q 254 733 199 717 q 378 750 310 750 q 499 745 433 750 q 624 731 564 740 l 624 665 l 407 665 q 288 642 336 665 q 214 553 239 618 q 189 367 189 489 q 215 186 189 249 q 290 101 242 124 q 408 78 339 78 l 635 78 l 635 14 q 560 3 603 8 q 471 -6 518 -3 q 375 -8 424 -8 z "},"ċ":{"ha":681,"x_min":79,"x_max":635,"o":"m 375 -8 q 258 8 313 -8 q 164 67 204 25 q 101 182 124 108 q 79 369 79 256 q 100 559 79 485 q 160 675 121 633 q 254 733 199 717 q 378 750 310 750 q 499 745 433 750 q 624 731 564 740 l 624 665 l 407 665 q 288 642 336 665 q 214 553 239 618 q 189 367 189 489 q 215 186 189 249 q 290 101 242 124 q 408 78 339 78 l 635 78 l 635 14 q 560 3 603 8 q 471 -6 518 -3 q 375 -8 424 -8 z "},"d":{"ha":799,"x_min":79,"x_max":697,"o":"m 346 -8 q 195 31 254 -8 q 108 153 136 71 q 79 365 79 236 q 107 588 79 503 q 196 713 135 674 q 360 751 257 751 q 482 738 422 751 q 588 707 542 724 l 588 1060 l 697 1060 l 697 0 l 608 0 l 588 75 q 526 38 567 57 q 437 5 485 18 q 346 -8 389 -8 m 378 82 q 494 102 442 82 q 588 144 546 122 l 588 629 q 492 655 538 644 q 389 665 446 665 q 274 639 318 665 q 209 548 229 613 q 189 369 189 483 q 208 203 189 267 q 268 110 226 139 q 378 82 310 82 z "},"ð":{"ha":801,"x_min":79,"x_max":722,"o":"m 400 -8 q 259 8 319 -8 q 158 66 199 25 q 99 181 118 107 q 79 367 79 254 q 100 556 79 483 q 160 669 121 629 q 258 725 200 710 q 388 740 315 740 q 500 728 451 740 q 583 684 549 715 q 638 599 618 653 q 675 535 656 567 q 708 465 694 504 q 722 372 722 425 q 702 181 722 256 q 642 66 682 107 q 542 8 603 25 q 400 -8 481 -8 m 400 82 q 491 92 451 82 q 557 131 531 101 q 597 217 583 160 q 611 368 611 274 q 597 519 611 463 q 557 604 583 576 q 491 642 531 632 q 400 651 451 651 q 308 642 347 651 q 243 604 269 632 q 203 519 217 576 q 189 368 189 463 q 203 217 189 274 q 243 131 217 160 q 308 92 269 101 q 400 82 347 82 m 722 371 l 622 403 q 594 680 622 569 q 513 856 567 790 q 382 954 460 922 q 206 994 304 986 l 206 1065 q 426 1019 331 1057 q 588 903 522 982 q 688 694 654 824 q 722 371 722 564 m 254 810 l 239 850 l 704 1032 l 721 990 l 254 810 z "},"ď":{"ha":799,"x_min":79,"x_max":893,"o":"m 346 -8 q 195 31 254 -8 q 108 153 136 71 q 79 365 79 236 q 107 588 79 503 q 196 713 135 674 q 360 751 257 751 q 482 738 422 751 q 588 707 542 724 l 588 1060 l 697 1060 l 697 0 l 608 0 l 588 75 q 526 38 567 57 q 437 5 485 18 q 346 -8 389 -8 m 378 82 q 494 102 442 82 q 588 144 546 122 l 588 629 q 492 655 538 644 q 389 665 446 665 q 274 639 318 665 q 209 548 229 613 q 189 369 189 483 q 208 203 189 267 q 268 110 226 139 q 378 82 310 82 m 799 808 l 790 1004 l 790 1088 l 892 1088 l 892 1004 l 883 808 l 799 808 z "},"đ":{"ha":799,"x_min":79,"x_max":793,"o":"m 394 874 l 394 922 l 793 922 l 793 874 l 394 874 m 346 -8 q 195 31 254 -8 q 108 153 136 71 q 79 365 79 236 q 107 588 79 503 q 196 713 135 674 q 360 751 257 751 q 482 738 422 751 q 588 707 542 724 l 588 1060 l 697 1060 l 697 0 l 608 0 l 588 75 q 526 38 567 57 q 437 5 485 18 q 346 -8 389 -8 m 378 82 q 494 102 442 82 q 588 144 546 122 l 588 629 q 492 655 538 644 q 389 665 446 665 q 274 639 318 665 q 209 548 229 613 q 189 369 189 483 q 208 203 189 267 q 268 110 226 139 q 378 82 310 82 z "},"ḋ":{"ha":799,"x_min":79,"x_max":697,"o":"m 346 -8 q 195 31 254 -8 q 108 153 136 71 q 79 365 79 236 q 107 588 79 503 q 196 713 135 674 q 360 751 257 751 q 482 738 422 751 q 588 707 542 724 l 588 1060 l 697 1060 l 697 0 l 608 0 l 588 75 q 526 38 567 57 q 437 5 485 18 q 346 -8 389 -8 m 378 82 q 494 102 442 82 q 588 144 546 122 l 588 629 q 492 655 538 644 q 389 665 446 665 q 274 639 318 665 q 209 548 229 613 q 189 369 189 483 q 208 203 189 267 q 268 110 226 139 q 378 82 310 82 z "},"ḍ":{"ha":799,"x_min":79,"x_max":697,"o":"m 346 -8 q 195 31 254 -8 q 108 153 136 71 q 79 365 79 236 q 107 588 79 503 q 196 713 135 674 q 360 751 257 751 q 482 738 422 751 q 588 707 542 724 l 588 1060 l 697 1060 l 697 0 l 608 0 l 588 75 q 526 38 567 57 q 437 5 485 18 q 346 -8 389 -8 m 378 82 q 494 102 442 82 q 588 144 546 122 l 588 629 q 492 655 538 644 q 389 665 446 665 q 274 639 318 665 q 209 548 229 613 q 189 369 189 483 q 208 203 189 267 q 268 110 226 139 q 378 82 310 82 m 368 -292 q 346 -269 346 -292 l 346 -161 q 368 -139 346 -139 l 419 -139 q 436 -145 431 -139 q 442 -161 442 -151 l 442 -269 q 419 -292 442 -292 l 368 -292 z "},"ḏ":{"ha":799,"x_min":79,"x_max":697,"o":"m 346 -8 q 195 31 254 -8 q 108 153 136 71 q 79 365 79 236 q 107 588 79 503 q 196 713 135 674 q 360 751 257 751 q 482 738 422 751 q 588 707 542 724 l 588 1060 l 697 1060 l 697 0 l 608 0 l 588 75 q 526 38 567 57 q 437 5 485 18 q 346 -8 389 -8 m 378 82 q 494 102 442 82 q 588 144 546 122 l 588 629 q 492 655 538 644 q 389 665 446 665 q 274 639 318 665 q 209 548 229 613 q 189 369 189 483 q 208 203 189 267 q 268 110 226 139 q 378 82 310 82 z "},"e":{"ha":751,"x_min":79,"x_max":672,"o":"m 389 -8 q 205 26 272 -8 q 108 144 138 61 q 79 372 79 228 q 109 602 79 519 q 207 718 139 685 q 390 751 275 751 q 551 729 489 751 q 642 653 613 707 q 672 506 672 600 q 647 401 672 440 q 573 344 621 361 q 460 326 525 326 l 189 326 q 208 181 190 236 q 274 102 226 126 q 415 78 322 78 l 654 78 l 654 11 q 529 -3 590 3 q 389 -8 468 -8 m 188 399 l 451 399 q 544 422 514 399 q 574 504 574 444 q 555 603 574 568 q 497 653 536 639 q 390 668 457 668 q 268 645 313 668 q 206 564 224 622 q 188 399 188 506 z "},"é":{"ha":751,"x_min":79,"x_max":672,"o":"m 389 -8 q 205 26 272 -8 q 108 144 138 61 q 79 372 79 228 q 109 602 79 519 q 207 718 139 685 q 390 751 275 751 q 551 729 489 751 q 642 653 613 707 q 672 506 672 600 q 647 401 672 440 q 573 344 621 361 q 460 326 525 326 l 189 326 q 208 181 190 236 q 274 102 226 126 q 415 78 322 78 l 654 78 l 654 11 q 529 -3 590 3 q 389 -8 468 -8 m 188 399 l 451 399 q 544 422 514 399 q 574 504 574 444 q 555 603 574 568 q 497 653 536 639 q 390 668 457 668 q 268 645 313 668 q 206 564 224 622 q 188 399 188 506 z "},"ĕ":{"ha":751,"x_min":79,"x_max":672,"o":"m 389 -8 q 205 26 272 -8 q 108 144 138 61 q 79 372 79 228 q 109 602 79 519 q 207 718 139 685 q 390 751 275 751 q 551 729 489 751 q 642 653 613 707 q 672 506 672 600 q 647 401 672 440 q 573 344 621 361 q 460 326 525 326 l 189 326 q 208 181 190 236 q 274 102 226 126 q 415 78 322 78 l 654 78 l 654 11 q 529 -3 590 3 q 389 -8 468 -8 m 188 399 l 451 399 q 544 422 514 399 q 574 504 574 444 q 555 603 574 568 q 497 653 536 639 q 390 668 457 668 q 268 645 313 668 q 206 564 224 622 q 188 399 188 506 z "},"ě":{"ha":751,"x_min":79,"x_max":672,"o":"m 389 -8 q 205 26 272 -8 q 108 144 138 61 q 79 372 79 228 q 109 602 79 519 q 207 718 139 685 q 390 751 275 751 q 551 729 489 751 q 642 653 613 707 q 672 506 672 600 q 647 401 672 440 q 573 344 621 361 q 460 326 525 326 l 189 326 q 208 181 190 236 q 274 102 226 126 q 415 78 322 78 l 654 78 l 654 11 q 529 -3 590 3 q 389 -8 468 -8 m 188 399 l 451 399 q 544 422 514 399 q 574 504 574 444 q 555 603 574 568 q 497 653 536 639 q 390 668 457 668 q 268 645 313 668 q 206 564 224 622 q 188 399 188 506 z "},"ḝ":{"ha":751,"x_min":79,"x_max":672,"o":"m 389 -8 q 205 26 272 -8 q 108 144 138 61 q 79 372 79 228 q 109 602 79 519 q 207 718 139 685 q 390 751 275 751 q 551 729 489 751 q 642 653 613 707 q 672 506 672 600 q 647 401 672 440 q 573 344 621 361 q 460 326 525 326 l 189 326 q 208 181 190 236 q 274 102 226 126 q 415 78 322 78 l 654 78 l 654 11 q 529 -3 590 3 q 389 -8 468 -8 m 188 399 l 451 399 q 544 422 514 399 q 574 504 574 444 q 555 603 574 568 q 497 653 536 639 q 390 668 457 668 q 268 645 313 668 q 206 564 224 622 q 188 399 188 506 z "},"ê":{"ha":751,"x_min":79,"x_max":672,"o":"m 389 -8 q 205 26 272 -8 q 108 144 138 61 q 79 372 79 228 q 109 602 79 519 q 207 718 139 685 q 390 751 275 751 q 551 729 489 751 q 642 653 613 707 q 672 506 672 600 q 647 401 672 440 q 573 344 621 361 q 460 326 525 326 l 189 326 q 208 181 190 236 q 274 102 226 126 q 415 78 322 78 l 654 78 l 654 11 q 529 -3 590 3 q 389 -8 468 -8 m 188 399 l 451 399 q 544 422 514 399 q 574 504 574 444 q 555 603 574 568 q 497 653 536 639 q 390 668 457 668 q 268 645 313 668 q 206 564 224 622 q 188 399 188 506 z "},"ế":{"ha":751,"x_min":79,"x_max":707,"o":"m 389 -8 q 205 26 272 -8 q 108 144 138 61 q 79 372 79 228 q 109 602 79 519 q 207 718 139 685 q 390 751 275 751 q 551 729 489 751 q 642 653 613 707 q 672 506 672 600 q 647 401 672 440 q 573 344 621 361 q 460 326 525 326 l 189 326 q 208 181 190 236 q 274 102 226 126 q 415 78 322 78 l 654 78 l 654 11 q 529 -3 590 3 q 389 -8 468 -8 m 188 399 l 451 399 q 544 422 514 399 q 574 504 574 444 q 555 603 574 568 q 497 653 536 639 q 390 668 457 668 q 268 645 313 668 q 206 564 224 622 q 188 399 188 506 m 339 1013 l 418 1013 l 571 876 l 504 876 l 376 961 l 238 876 l 171 876 l 339 1013 m 613 1163 l 707 1163 l 556 983 l 492 983 l 613 1163 z "},"ệ":{"ha":751,"x_min":79,"x_max":672,"o":"m 389 -8 q 205 26 272 -8 q 108 144 138 61 q 79 372 79 228 q 109 602 79 519 q 207 718 139 685 q 390 751 275 751 q 551 729 489 751 q 642 653 613 707 q 672 506 672 600 q 647 401 672 440 q 573 344 621 361 q 460 326 525 326 l 189 326 q 208 181 190 236 q 274 102 226 126 q 415 78 322 78 l 654 78 l 654 11 q 529 -3 590 3 q 389 -8 468 -8 m 188 399 l 451 399 q 544 422 514 399 q 574 504 574 444 q 555 603 574 568 q 497 653 536 639 q 390 668 457 668 q 268 645 313 668 q 206 564 224 622 q 188 399 188 506 m 344 -292 q 322 -269 322 -292 l 322 -161 q 344 -139 322 -139 l 396 -139 q 413 -145 407 -139 q 418 -161 418 -151 l 418 -269 q 396 -292 418 -292 l 344 -292 z "},"ề":{"ha":751,"x_min":43,"x_max":672,"o":"m 389 -8 q 205 26 272 -8 q 108 144 138 61 q 79 372 79 228 q 109 602 79 519 q 207 718 139 685 q 390 751 275 751 q 551 729 489 751 q 642 653 613 707 q 672 506 672 600 q 647 401 672 440 q 573 344 621 361 q 460 326 525 326 l 189 326 q 208 181 190 236 q 274 102 226 126 q 415 78 322 78 l 654 78 l 654 11 q 529 -3 590 3 q 389 -8 468 -8 m 188 399 l 451 399 q 544 422 514 399 q 574 504 574 444 q 555 603 574 568 q 497 653 536 639 q 390 668 457 668 q 268 645 313 668 q 206 564 224 622 q 188 399 188 506 m 339 1013 l 418 1013 l 571 876 l 504 876 l 376 961 l 238 876 l 171 876 l 339 1013 m 43 1163 l 138 1163 l 258 983 l 194 983 l 43 1163 z "},"ể":{"ha":751,"x_min":79,"x_max":672,"o":"m 389 -8 q 205 26 272 -8 q 108 144 138 61 q 79 372 79 228 q 109 602 79 519 q 207 718 139 685 q 390 751 275 751 q 551 729 489 751 q 642 653 613 707 q 672 506 672 600 q 647 401 672 440 q 573 344 621 361 q 460 326 525 326 l 189 326 q 208 181 190 236 q 274 102 226 126 q 415 78 322 78 l 654 78 l 654 11 q 529 -3 590 3 q 389 -8 468 -8 m 188 399 l 451 399 q 544 422 514 399 q 574 504 574 444 q 555 603 574 568 q 497 653 536 639 q 390 668 457 668 q 268 645 313 668 q 206 564 224 622 q 188 399 188 506 m 171 876 l 339 1013 l 418 1013 l 571 876 l 504 876 l 376 961 l 238 876 l 171 876 m 524 949 l 524 999 q 578 1031 563 1011 q 593 1069 593 1050 q 580 1108 593 1094 q 535 1121 567 1121 q 510 1118 524 1121 q 486 1113 497 1115 l 486 1154 q 517 1162 501 1160 q 549 1164 532 1164 q 624 1140 600 1164 q 649 1074 649 1115 q 619 999 649 1032 q 524 949 589 967 z "},"ễ":{"ha":751,"x_min":79,"x_max":672,"o":"m 389 -8 q 205 26 272 -8 q 108 144 138 61 q 79 372 79 228 q 109 602 79 519 q 207 718 139 685 q 390 751 275 751 q 551 729 489 751 q 642 653 613 707 q 672 506 672 600 q 647 401 672 440 q 573 344 621 361 q 460 326 525 326 l 189 326 q 208 181 190 236 q 274 102 226 126 q 415 78 322 78 l 654 78 l 654 11 q 529 -3 590 3 q 389 -8 468 -8 m 188 399 l 451 399 q 544 422 514 399 q 574 504 574 444 q 555 603 574 568 q 497 653 536 639 q 390 668 457 668 q 268 645 313 668 q 206 564 224 622 q 188 399 188 506 m 150 1078 q 169 1149 151 1124 q 212 1183 186 1174 q 264 1193 238 1193 q 336 1178 303 1193 q 400 1149 369 1164 q 463 1135 431 1135 q 517 1150 496 1135 q 538 1196 538 1165 l 593 1196 q 578 1130 592 1156 q 539 1091 564 1104 q 478 1078 514 1078 q 406 1093 440 1078 q 340 1122 372 1108 q 274 1136 307 1136 q 227 1122 247 1136 q 207 1078 207 1107 l 150 1078 m 418 1013 l 571 876 l 504 876 l 376 961 l 238 876 l 171 876 l 339 1013 l 418 1013 z "},"ȅ":{"ha":751,"x_min":79,"x_max":672,"o":"m 389 -8 q 205 26 272 -8 q 108 144 138 61 q 79 372 79 228 q 109 602 79 519 q 207 718 139 685 q 390 751 275 751 q 551 729 489 751 q 642 653 613 707 q 672 506 672 600 q 647 401 672 440 q 573 344 621 361 q 460 326 525 326 l 189 326 q 208 181 190 236 q 274 102 226 126 q 415 78 322 78 l 654 78 l 654 11 q 529 -3 590 3 q 389 -8 468 -8 m 188 399 l 451 399 q 544 422 514 399 q 574 504 574 444 q 555 603 574 568 q 497 653 536 639 q 390 668 457 668 q 268 645 313 668 q 206 564 224 622 q 188 399 188 506 m 472 876 l 299 1065 l 393 1065 l 538 876 l 472 876 m 269 876 l 96 1065 l 190 1065 l 335 876 l 269 876 z "},"ë":{"ha":751,"x_min":79,"x_max":672,"o":"m 389 -8 q 205 26 272 -8 q 108 144 138 61 q 79 372 79 228 q 109 602 79 519 q 207 718 139 685 q 390 751 275 751 q 551 729 489 751 q 642 653 613 707 q 672 506 672 600 q 647 401 672 440 q 573 344 621 361 q 460 326 525 326 l 189 326 q 208 181 190 236 q 274 102 226 126 q 415 78 322 78 l 654 78 l 654 11 q 529 -3 590 3 q 389 -8 468 -8 m 188 399 l 451 399 q 544 422 514 399 q 574 504 574 444 q 555 603 574 568 q 497 653 536 639 q 390 668 457 668 q 268 645 313 668 q 206 564 224 622 q 188 399 188 506 m 483 907 q 461 929 461 907 l 461 1038 q 483 1060 461 1060 l 533 1060 q 550 1053 544 1060 q 556 1038 556 1047 l 556 929 q 533 907 556 907 l 483 907 m 213 907 q 190 929 190 907 l 190 1038 q 213 1060 190 1060 l 263 1060 q 279 1053 274 1060 q 285 1038 285 1047 l 285 929 q 263 907 285 907 l 213 907 z "},"ė":{"ha":751,"x_min":79,"x_max":672,"o":"m 389 -8 q 205 26 272 -8 q 108 144 138 61 q 79 372 79 228 q 109 602 79 519 q 207 718 139 685 q 390 751 275 751 q 551 729 489 751 q 642 653 613 707 q 672 506 672 600 q 647 401 672 440 q 573 344 621 361 q 460 326 525 326 l 189 326 q 208 181 190 236 q 274 102 226 126 q 415 78 322 78 l 654 78 l 654 11 q 529 -3 590 3 q 389 -8 468 -8 m 188 399 l 451 399 q 544 422 514 399 q 574 504 574 444 q 555 603 574 568 q 497 653 536 639 q 390 668 457 668 q 268 645 313 668 q 206 564 224 622 q 188 399 188 506 z "},"ẹ":{"ha":751,"x_min":79,"x_max":672,"o":"m 389 -8 q 205 26 272 -8 q 108 144 138 61 q 79 372 79 228 q 109 602 79 519 q 207 718 139 685 q 390 751 275 751 q 551 729 489 751 q 642 653 613 707 q 672 506 672 600 q 647 401 672 440 q 573 344 621 361 q 460 326 525 326 l 189 326 q 208 181 190 236 q 274 102 226 126 q 415 78 322 78 l 654 78 l 654 11 q 529 -3 590 3 q 389 -8 468 -8 m 188 399 l 451 399 q 544 422 514 399 q 574 504 574 444 q 555 603 574 568 q 497 653 536 639 q 390 668 457 668 q 268 645 313 668 q 206 564 224 622 q 188 399 188 506 m 344 -292 q 322 -269 322 -292 l 322 -161 q 344 -139 322 -139 l 396 -139 q 413 -145 407 -139 q 418 -161 418 -151 l 418 -269 q 396 -292 418 -292 l 344 -292 z "},"è":{"ha":751,"x_min":79,"x_max":672,"o":"m 389 -8 q 205 26 272 -8 q 108 144 138 61 q 79 372 79 228 q 109 602 79 519 q 207 718 139 685 q 390 751 275 751 q 551 729 489 751 q 642 653 613 707 q 672 506 672 600 q 647 401 672 440 q 573 344 621 361 q 460 326 525 326 l 189 326 q 208 181 190 236 q 274 102 226 126 q 415 78 322 78 l 654 78 l 654 11 q 529 -3 590 3 q 389 -8 468 -8 m 188 399 l 451 399 q 544 422 514 399 q 574 504 574 444 q 555 603 574 568 q 497 653 536 639 q 390 668 457 668 q 268 645 313 668 q 206 564 224 622 q 188 399 188 506 z "},"ẻ":{"ha":751,"x_min":79,"x_max":672,"o":"m 389 -8 q 205 26 272 -8 q 108 144 138 61 q 79 372 79 228 q 109 602 79 519 q 207 718 139 685 q 390 751 275 751 q 551 729 489 751 q 642 653 613 707 q 672 506 672 600 q 647 401 672 440 q 573 344 621 361 q 460 326 525 326 l 189 326 q 208 181 190 236 q 274 102 226 126 q 415 78 322 78 l 654 78 l 654 11 q 529 -3 590 3 q 389 -8 468 -8 m 188 399 l 451 399 q 544 422 514 399 q 574 504 574 444 q 555 603 574 568 q 497 653 536 639 q 390 668 457 668 q 268 645 313 668 q 206 564 224 622 q 188 399 188 506 m 350 838 l 350 889 q 411 924 394 901 q 428 971 428 947 q 413 1015 428 999 q 361 1032 399 1032 q 337 1030 350 1032 q 311 1024 324 1028 l 311 1071 q 342 1078 326 1076 q 375 1079 358 1079 q 461 1050 433 1079 q 489 972 489 1021 q 456 893 489 928 q 350 838 422 858 z "},"ȇ":{"ha":751,"x_min":79,"x_max":672,"o":"m 389 -8 q 205 26 272 -8 q 108 144 138 61 q 79 372 79 228 q 109 602 79 519 q 207 718 139 685 q 390 751 275 751 q 551 729 489 751 q 642 653 613 707 q 672 506 672 600 q 647 401 672 440 q 573 344 621 361 q 460 326 525 326 l 189 326 q 208 181 190 236 q 274 102 226 126 q 415 78 322 78 l 654 78 l 654 11 q 529 -3 590 3 q 389 -8 468 -8 m 188 399 l 451 399 q 544 422 514 399 q 574 504 574 444 q 555 603 574 568 q 497 653 536 639 q 390 668 457 668 q 268 645 313 668 q 206 564 224 622 q 188 399 188 506 z "},"ē":{"ha":751,"x_min":79,"x_max":672,"o":"m 389 -8 q 205 26 272 -8 q 108 144 138 61 q 79 372 79 228 q 109 602 79 519 q 207 718 139 685 q 390 751 275 751 q 551 729 489 751 q 642 653 613 707 q 672 506 672 600 q 647 401 672 440 q 573 344 621 361 q 460 326 525 326 l 189 326 q 208 181 190 236 q 274 102 226 126 q 415 78 322 78 l 654 78 l 654 11 q 529 -3 590 3 q 389 -8 468 -8 m 188 399 l 451 399 q 544 422 514 399 q 574 504 574 444 q 555 603 574 568 q 497 653 536 639 q 390 668 457 668 q 268 645 313 668 q 206 564 224 622 q 188 399 188 506 z "},"ḗ":{"ha":751,"x_min":79,"x_max":672,"o":"m 389 -8 q 205 26 272 -8 q 108 144 138 61 q 79 372 79 228 q 109 602 79 519 q 207 718 139 685 q 390 751 275 751 q 551 729 489 751 q 642 653 613 707 q 672 506 672 600 q 647 401 672 440 q 573 344 621 361 q 460 326 525 326 l 189 326 q 208 181 190 236 q 274 102 226 126 q 415 78 322 78 l 654 78 l 654 11 q 529 -3 590 3 q 389 -8 468 -8 m 188 399 l 451 399 q 544 422 514 399 q 574 504 574 444 q 555 603 574 568 q 497 653 536 639 q 390 668 457 668 q 268 645 313 668 q 206 564 224 622 q 188 399 188 506 z "},"ḕ":{"ha":751,"x_min":79,"x_max":672,"o":"m 389 -8 q 205 26 272 -8 q 108 144 138 61 q 79 372 79 228 q 109 602 79 519 q 207 718 139 685 q 390 751 275 751 q 551 729 489 751 q 642 653 613 707 q 672 506 672 600 q 647 401 672 440 q 573 344 621 361 q 460 326 525 326 l 189 326 q 208 181 190 236 q 274 102 226 126 q 415 78 322 78 l 654 78 l 654 11 q 529 -3 590 3 q 389 -8 468 -8 m 188 399 l 451 399 q 544 422 514 399 q 574 504 574 444 q 555 603 574 568 q 497 653 536 639 q 390 668 457 668 q 268 645 313 668 q 206 564 224 622 q 188 399 188 506 z "},"ę":{"ha":751,"x_min":79,"x_max":690,"o":"m 389 -8 q 205 26 272 -8 q 108 144 138 61 q 79 372 79 228 q 109 602 79 519 q 207 718 139 685 q 390 751 275 751 q 551 729 489 751 q 642 653 613 707 q 672 506 672 600 q 647 401 672 440 q 573 344 621 361 q 460 326 525 326 l 189 326 q 208 181 190 236 q 274 102 226 126 q 415 78 322 78 l 654 78 l 654 11 q 529 -3 590 3 q 389 -8 468 -8 m 188 399 l 451 399 q 544 422 514 399 q 574 504 574 444 q 555 603 574 568 q 497 653 536 639 q 390 668 457 668 q 268 645 313 668 q 206 564 224 622 q 188 399 188 506 z "},"ẽ":{"ha":751,"x_min":79,"x_max":672,"o":"m 389 -8 q 205 26 272 -8 q 108 144 138 61 q 79 372 79 228 q 109 602 79 519 q 207 718 139 685 q 390 751 275 751 q 551 729 489 751 q 642 653 613 707 q 672 506 672 600 q 647 401 672 440 q 573 344 621 361 q 460 326 525 326 l 189 326 q 208 181 190 236 q 274 102 226 126 q 415 78 322 78 l 654 78 l 654 11 q 529 -3 590 3 q 389 -8 468 -8 m 188 399 l 451 399 q 544 422 514 399 q 574 504 574 444 q 555 603 574 568 q 497 653 536 639 q 390 668 457 668 q 268 645 313 668 q 206 564 224 622 q 188 399 188 506 z "},"ə":{"ha":751,"x_min":79,"x_max":672,"o":"m 363 751 q 547 717 479 751 q 643 599 614 682 q 672 371 672 515 q 642 141 672 224 q 544 25 613 58 q 361 -8 476 -8 q 201 14 263 -8 q 109 90 139 36 q 79 238 79 143 q 105 342 79 303 q 178 399 131 382 q 292 417 226 417 l 563 417 q 543 562 561 507 q 477 641 525 617 q 336 665 429 665 l 97 665 l 97 732 q 222 746 161 740 q 363 751 283 751 m 564 344 l 300 344 q 208 322 238 344 q 178 239 178 299 q 197 140 178 175 q 255 90 215 104 q 361 75 294 75 q 483 98 439 75 q 546 179 528 121 q 564 344 564 238 z "},"f":{"ha":511,"x_min":32,"x_max":501,"o":"m 146 0 l 146 651 l 32 651 l 32 722 l 146 742 l 146 826 q 165 959 146 906 q 231 1040 185 1013 q 358 1068 276 1068 q 441 1063 407 1068 q 501 1054 475 1058 l 501 976 l 378 976 q 301 960 328 976 q 265 912 275 944 q 256 832 256 879 l 256 742 l 486 742 l 486 651 l 256 651 l 256 0 l 146 0 z "},"ḟ":{"ha":511,"x_min":32,"x_max":501,"o":"m 146 0 l 146 651 l 32 651 l 32 722 l 146 742 l 146 826 q 165 959 146 906 q 231 1040 185 1013 q 358 1068 276 1068 q 441 1063 407 1068 q 501 1054 475 1058 l 501 976 l 378 976 q 301 960 328 976 q 265 912 275 944 q 256 832 256 879 l 256 742 l 486 742 l 486 651 l 256 651 l 256 0 l 146 0 z "},"g":{"ha":800,"x_min":43,"x_max":768,"o":"m 288 -340 q 160 -320 215 -340 q 74 -259 106 -300 q 43 -157 43 -218 l 43 -124 q 78 -17 43 -60 q 168 48 114 26 q 279 69 222 69 l 307 25 q 229 12 265 25 q 170 -31 193 -1 q 147 -106 147 -60 l 147 -136 q 192 -231 147 -203 q 313 -260 236 -260 l 485 -260 q 616 -228 568 -260 q 664 -128 664 -196 l 664 -100 q 649 -33 664 -61 q 598 10 633 -6 q 499 25 563 25 l 275 25 q 141 62 189 25 q 93 157 93 99 q 126 244 93 213 q 218 289 158 276 q 138 345 167 310 q 97 422 108 381 q 86 504 86 463 q 121 643 86 590 q 220 719 156 696 q 372 743 285 743 l 768 743 l 768 681 l 601 667 q 642 634 619 654 q 680 577 664 614 q 696 476 696 540 q 672 368 696 419 q 590 284 647 317 q 433 251 533 251 l 315 251 q 223 234 257 251 q 189 172 189 217 q 214 125 189 139 q 267 111 239 111 l 513 111 q 655 89 599 111 q 740 22 711 67 q 768 -93 768 -24 l 768 -124 q 699 -283 768 -225 q 494 -340 631 -340 l 288 -340 m 339 336 l 422 336 q 530 358 493 336 q 581 414 567 379 q 594 489 594 449 q 574 588 594 551 q 518 641 554 625 q 435 657 482 657 l 356 657 q 231 622 276 657 q 186 499 186 586 q 227 374 186 413 q 339 336 268 336 z "},"ğ":{"ha":800,"x_min":43,"x_max":768,"o":"m 288 -340 q 160 -320 215 -340 q 74 -259 106 -300 q 43 -157 43 -218 l 43 -124 q 78 -17 43 -60 q 168 48 114 26 q 279 69 222 69 l 307 25 q 229 12 265 25 q 170 -31 193 -1 q 147 -106 147 -60 l 147 -136 q 192 -231 147 -203 q 313 -260 236 -260 l 485 -260 q 616 -228 568 -260 q 664 -128 664 -196 l 664 -100 q 649 -33 664 -61 q 598 10 633 -6 q 499 25 563 25 l 275 25 q 141 62 189 25 q 93 157 93 99 q 126 244 93 213 q 218 289 158 276 q 138 345 167 310 q 97 422 108 381 q 86 504 86 463 q 121 643 86 590 q 220 719 156 696 q 372 743 285 743 l 768 743 l 768 681 l 601 667 q 642 634 619 654 q 680 577 664 614 q 696 476 696 540 q 672 368 696 419 q 590 284 647 317 q 433 251 533 251 l 315 251 q 223 234 257 251 q 189 172 189 217 q 214 125 189 139 q 267 111 239 111 l 513 111 q 655 89 599 111 q 740 22 711 67 q 768 -93 768 -24 l 768 -124 q 699 -283 768 -225 q 494 -340 631 -340 l 288 -340 m 339 336 l 422 336 q 530 358 493 336 q 581 414 567 379 q 594 489 594 449 q 574 588 594 551 q 518 641 554 625 q 435 657 482 657 l 356 657 q 231 622 276 657 q 186 499 186 586 q 227 374 186 413 q 339 336 268 336 z "},"ǧ":{"ha":800,"x_min":43,"x_max":768,"o":"m 288 -340 q 160 -320 215 -340 q 74 -259 106 -300 q 43 -157 43 -218 l 43 -124 q 78 -17 43 -60 q 168 48 114 26 q 279 69 222 69 l 307 25 q 229 12 265 25 q 170 -31 193 -1 q 147 -106 147 -60 l 147 -136 q 192 -231 147 -203 q 313 -260 236 -260 l 485 -260 q 616 -228 568 -260 q 664 -128 664 -196 l 664 -100 q 649 -33 664 -61 q 598 10 633 -6 q 499 25 563 25 l 275 25 q 141 62 189 25 q 93 157 93 99 q 126 244 93 213 q 218 289 158 276 q 138 345 167 310 q 97 422 108 381 q 86 504 86 463 q 121 643 86 590 q 220 719 156 696 q 372 743 285 743 l 768 743 l 768 681 l 601 667 q 642 634 619 654 q 680 577 664 614 q 696 476 696 540 q 672 368 696 419 q 590 284 647 317 q 433 251 533 251 l 315 251 q 223 234 257 251 q 189 172 189 217 q 214 125 189 139 q 267 111 239 111 l 513 111 q 655 89 599 111 q 740 22 711 67 q 768 -93 768 -24 l 768 -124 q 699 -283 768 -225 q 494 -340 631 -340 l 288 -340 m 339 336 l 422 336 q 530 358 493 336 q 581 414 567 379 q 594 489 594 449 q 574 588 594 551 q 518 641 554 625 q 435 657 482 657 l 356 657 q 231 622 276 657 q 186 499 186 586 q 227 374 186 413 q 339 336 268 336 z "},"ĝ":{"ha":800,"x_min":43,"x_max":768,"o":"m 288 -340 q 160 -320 215 -340 q 74 -259 106 -300 q 43 -157 43 -218 l 43 -124 q 78 -17 43 -60 q 168 48 114 26 q 279 69 222 69 l 307 25 q 229 12 265 25 q 170 -31 193 -1 q 147 -106 147 -60 l 147 -136 q 192 -231 147 -203 q 313 -260 236 -260 l 485 -260 q 616 -228 568 -260 q 664 -128 664 -196 l 664 -100 q 649 -33 664 -61 q 598 10 633 -6 q 499 25 563 25 l 275 25 q 141 62 189 25 q 93 157 93 99 q 126 244 93 213 q 218 289 158 276 q 138 345 167 310 q 97 422 108 381 q 86 504 86 463 q 121 643 86 590 q 220 719 156 696 q 372 743 285 743 l 768 743 l 768 681 l 601 667 q 642 634 619 654 q 680 577 664 614 q 696 476 696 540 q 672 368 696 419 q 590 284 647 317 q 433 251 533 251 l 315 251 q 223 234 257 251 q 189 172 189 217 q 214 125 189 139 q 267 111 239 111 l 513 111 q 655 89 599 111 q 740 22 711 67 q 768 -93 768 -24 l 768 -124 q 699 -283 768 -225 q 494 -340 631 -340 l 288 -340 m 339 336 l 422 336 q 530 358 493 336 q 581 414 567 379 q 594 489 594 449 q 574 588 594 551 q 518 641 554 625 q 435 657 482 657 l 356 657 q 231 622 276 657 q 186 499 186 586 q 227 374 186 413 q 339 336 268 336 z "},"ģ":{"ha":800,"x_min":43,"x_max":768,"o":"m 288 -340 q 160 -320 215 -340 q 74 -259 106 -300 q 43 -157 43 -218 l 43 -124 q 78 -17 43 -60 q 168 48 114 26 q 279 69 222 69 l 307 25 q 229 12 265 25 q 170 -31 193 -1 q 147 -106 147 -60 l 147 -136 q 192 -231 147 -203 q 313 -260 236 -260 l 485 -260 q 616 -228 568 -260 q 664 -128 664 -196 l 664 -100 q 649 -33 664 -61 q 598 10 633 -6 q 499 25 563 25 l 275 25 q 141 62 189 25 q 93 157 93 99 q 126 244 93 213 q 218 289 158 276 q 138 345 167 310 q 97 422 108 381 q 86 504 86 463 q 121 643 86 590 q 220 719 156 696 q 372 743 285 743 l 768 743 l 768 681 l 601 667 q 642 634 619 654 q 680 577 664 614 q 696 476 696 540 q 672 368 696 419 q 590 284 647 317 q 433 251 533 251 l 315 251 q 223 234 257 251 q 189 172 189 217 q 214 125 189 139 q 267 111 239 111 l 513 111 q 655 89 599 111 q 740 22 711 67 q 768 -93 768 -24 l 768 -124 q 699 -283 768 -225 q 494 -340 631 -340 l 288 -340 m 339 336 l 422 336 q 530 358 493 336 q 581 414 567 379 q 594 489 594 449 q 574 588 594 551 q 518 641 554 625 q 435 657 482 657 l 356 657 q 231 622 276 657 q 186 499 186 586 q 227 374 186 413 q 339 336 268 336 m 328 853 q 340 966 328 924 q 385 1027 353 1008 q 479 1046 418 1046 l 532 1046 l 532 1001 l 490 994 q 438 979 460 990 q 406 940 417 968 q 396 853 396 913 l 328 853 z "},"ġ":{"ha":800,"x_min":43,"x_max":768,"o":"m 288 -340 q 160 -320 215 -340 q 74 -259 106 -300 q 43 -157 43 -218 l 43 -124 q 78 -17 43 -60 q 168 48 114 26 q 279 69 222 69 l 307 25 q 229 12 265 25 q 170 -31 193 -1 q 147 -106 147 -60 l 147 -136 q 192 -231 147 -203 q 313 -260 236 -260 l 485 -260 q 616 -228 568 -260 q 664 -128 664 -196 l 664 -100 q 649 -33 664 -61 q 598 10 633 -6 q 499 25 563 25 l 275 25 q 141 62 189 25 q 93 157 93 99 q 126 244 93 213 q 218 289 158 276 q 138 345 167 310 q 97 422 108 381 q 86 504 86 463 q 121 643 86 590 q 220 719 156 696 q 372 743 285 743 l 768 743 l 768 681 l 601 667 q 642 634 619 654 q 680 577 664 614 q 696 476 696 540 q 672 368 696 419 q 590 284 647 317 q 433 251 533 251 l 315 251 q 223 234 257 251 q 189 172 189 217 q 214 125 189 139 q 267 111 239 111 l 513 111 q 655 89 599 111 q 740 22 711 67 q 768 -93 768 -24 l 768 -124 q 699 -283 768 -225 q 494 -340 631 -340 l 288 -340 m 339 336 l 422 336 q 530 358 493 336 q 581 414 567 379 q 594 489 594 449 q 574 588 594 551 q 518 641 554 625 q 435 657 482 657 l 356 657 q 231 622 276 657 q 186 499 186 586 q 227 374 186 413 q 339 336 268 336 z "},"ḡ":{"ha":800,"x_min":43,"x_max":768,"o":"m 288 -340 q 160 -320 215 -340 q 74 -259 106 -300 q 43 -157 43 -218 l 43 -124 q 78 -17 43 -60 q 168 48 114 26 q 279 69 222 69 l 307 25 q 229 12 265 25 q 170 -31 193 -1 q 147 -106 147 -60 l 147 -136 q 192 -231 147 -203 q 313 -260 236 -260 l 485 -260 q 616 -228 568 -260 q 664 -128 664 -196 l 664 -100 q 649 -33 664 -61 q 598 10 633 -6 q 499 25 563 25 l 275 25 q 141 62 189 25 q 93 157 93 99 q 126 244 93 213 q 218 289 158 276 q 138 345 167 310 q 97 422 108 381 q 86 504 86 463 q 121 643 86 590 q 220 719 156 696 q 372 743 285 743 l 768 743 l 768 681 l 601 667 q 642 634 619 654 q 680 577 664 614 q 696 476 696 540 q 672 368 696 419 q 590 284 647 317 q 433 251 533 251 l 315 251 q 223 234 257 251 q 189 172 189 217 q 214 125 189 139 q 267 111 239 111 l 513 111 q 655 89 599 111 q 740 22 711 67 q 768 -93 768 -24 l 768 -124 q 699 -283 768 -225 q 494 -340 631 -340 l 288 -340 m 339 336 l 422 336 q 530 358 493 336 q 581 414 567 379 q 594 489 594 449 q 574 588 594 551 q 518 641 554 625 q 435 657 482 657 l 356 657 q 231 622 276 657 q 186 499 186 586 q 227 374 186 413 q 339 336 268 336 z "},"h":{"ha":817,"x_min":106,"x_max":715,"o":"m 106 0 l 106 1060 l 215 1060 l 215 660 q 338 726 267 697 q 488 754 410 754 q 616 721 565 754 q 691 631 667 688 q 715 504 715 574 l 715 0 l 606 0 l 606 493 q 587 576 606 540 q 533 633 568 613 q 450 654 499 654 q 365 645 404 654 q 290 620 326 636 q 215 582 254 604 l 215 0 l 106 0 z "},"ħ":{"ha":817,"x_min":4,"x_max":715,"o":"m 4 874 l 4 922 l 404 922 l 404 874 l 4 874 m 106 0 l 106 1060 l 215 1060 l 215 660 q 338 726 267 697 q 488 754 410 754 q 616 721 565 754 q 691 631 667 688 q 715 504 715 574 l 715 0 l 606 0 l 606 493 q 587 576 606 540 q 533 633 568 613 q 450 654 499 654 q 365 645 404 654 q 290 620 326 636 q 215 582 254 604 l 215 0 l 106 0 z "},"ḫ":{"ha":817,"x_min":106,"x_max":715,"o":"m 106 0 l 106 1060 l 215 1060 l 215 660 q 338 726 267 697 q 488 754 410 754 q 616 721 565 754 q 691 631 667 688 q 715 504 715 574 l 715 0 l 606 0 l 606 493 q 587 576 606 540 q 533 633 568 613 q 450 654 499 654 q 365 645 404 654 q 290 620 326 636 q 215 582 254 604 l 215 0 l 106 0 z "},"ĥ":{"ha":817,"x_min":21,"x_max":715,"o":"m 106 0 l 106 1060 l 215 1060 l 215 660 q 338 726 267 697 q 488 754 410 754 q 616 721 565 754 q 691 631 667 688 q 715 504 715 574 l 715 0 l 606 0 l 606 493 q 587 576 606 540 q 533 633 568 613 q 450 654 499 654 q 365 645 404 654 q 290 620 326 636 q 215 582 254 604 l 215 0 l 106 0 z "},"ḥ":{"ha":817,"x_min":106,"x_max":715,"o":"m 106 0 l 106 1060 l 215 1060 l 215 660 q 338 726 267 697 q 488 754 410 754 q 616 721 565 754 q 691 631 667 688 q 715 504 715 574 l 715 0 l 606 0 l 606 493 q 587 576 606 540 q 533 633 568 613 q 450 654 499 654 q 365 645 404 654 q 290 620 326 636 q 215 582 254 604 l 215 0 l 106 0 m 379 -292 q 357 -269 357 -292 l 357 -161 q 379 -139 357 -139 l 431 -139 q 447 -145 442 -139 q 453 -161 453 -151 l 453 -269 q 431 -292 453 -292 l 379 -292 z "},"i":{"ha":321,"x_min":100,"x_max":221,"o":"m 122 874 q 100 896 100 874 l 100 1004 q 122 1026 100 1026 l 200 1026 q 216 1020 211 1026 q 221 1004 221 1014 l 221 896 q 200 874 221 874 l 122 874 m 106 0 l 106 742 l 215 742 l 215 0 l 106 0 z "},"ı":{"ha":317,"x_min":106,"x_max":215,"o":"m 106 0 l 106 742 l 215 742 l 215 0 l 106 0 z "},"í":{"ha":317,"x_min":106,"x_max":353,"o":"m 106 0 l 106 742 l 215 742 l 215 0 l 106 0 z "},"ĭ":{"ha":317,"x_min":-31,"x_max":335,"o":"m 106 0 l 106 742 l 215 742 l 215 0 l 106 0 z "},"î":{"ha":317,"x_min":-44,"x_max":356,"o":"m 106 0 l 106 742 l 215 742 l 215 0 l 106 0 z "},"ȉ":{"ha":317,"x_min":-119,"x_max":322,"o":"m 106 0 l 106 742 l 215 742 l 215 0 l 106 0 m 257 876 l 83 1065 l 178 1065 l 322 876 l 257 876 m 54 876 l -119 1065 l -25 1065 l 119 876 l 54 876 z "},"ï":{"ha":317,"x_min":-25,"x_max":340,"o":"m 106 0 l 106 742 l 215 742 l 215 0 l 106 0 m 268 907 q 246 929 246 907 l 246 1038 q 268 1060 246 1060 l 318 1060 q 335 1053 329 1060 q 340 1038 340 1047 l 340 929 q 318 907 340 907 l 268 907 m -3 907 q -25 929 -25 907 l -25 1038 q -3 1060 -25 1060 l 47 1060 q 64 1053 58 1060 q 69 1038 69 1047 l 69 929 q 47 907 69 907 l -3 907 z "},"ḯ":{"ha":317,"x_min":-25,"x_max":349,"o":"m 106 0 l 106 742 l 215 742 l 215 0 l 106 0 m 268 907 q 246 929 246 907 l 246 1038 q 268 1060 246 1060 l 318 1060 q 335 1053 329 1060 q 340 1038 340 1047 l 340 929 q 318 907 340 907 l 268 907 m -3 907 q -25 929 -25 907 l -25 1038 q -3 1060 -25 1060 l 47 1060 q 64 1053 58 1060 q 69 1038 69 1047 l 69 929 q 47 907 69 907 l -3 907 z "},"ị":{"ha":321,"x_min":100,"x_max":221,"o":"m 122 874 q 100 896 100 874 l 100 1004 q 122 1026 100 1026 l 200 1026 q 216 1020 211 1026 q 221 1004 221 1014 l 221 896 q 200 874 221 874 l 122 874 m 106 0 l 106 742 l 215 742 l 215 0 l 106 0 m 129 -292 q 107 -269 107 -292 l 107 -161 q 129 -139 107 -139 l 181 -139 q 197 -145 192 -139 q 203 -161 203 -151 l 203 -269 q 181 -292 203 -292 l 129 -292 z "},"ì":{"ha":317,"x_min":-19,"x_max":219,"o":"m 106 0 l 106 742 l 215 742 l 215 0 l 106 0 z "},"ỉ":{"ha":317,"x_min":97,"x_max":274,"o":"m 106 0 l 106 742 l 215 742 l 215 0 l 106 0 m 135 838 l 135 889 q 196 924 179 901 q 213 971 213 947 q 198 1015 213 999 q 146 1032 183 1032 q 122 1030 135 1032 q 96 1024 108 1028 l 96 1071 q 127 1078 111 1076 q 160 1079 143 1079 q 246 1050 218 1079 q 274 972 274 1021 q 240 893 274 928 q 135 838 207 858 z "},"ȋ":{"ha":317,"x_min":-26,"x_max":339,"o":"m 106 0 l 106 742 l 215 742 l 215 0 l 106 0 z "},"ī":{"ha":317,"x_min":-26,"x_max":342,"o":"m 106 0 l 106 742 l 215 742 l 215 0 l 106 0 z "},"į":{"ha":321,"x_min":68,"x_max":251,"o":"m 122 874 q 100 896 100 874 l 100 1004 q 122 1026 100 1026 l 200 1026 q 216 1020 211 1026 q 221 1004 221 1014 l 221 896 q 200 874 221 874 l 122 874 m 106 0 l 106 742 l 215 742 l 215 0 l 106 0 z "},"ĩ":{"ha":317,"x_min":-68,"x_max":421,"o":"m 106 0 l 106 742 l 215 742 l 215 0 l 106 0 z "},"j":{"ha":321,"x_min":99,"x_max":221,"o":"m 121 874 q 99 896 99 874 l 99 1004 q 121 1026 99 1026 l 200 1026 q 216 1020 211 1026 q 221 1004 221 1014 l 221 896 q 200 874 221 874 l 121 874 m 106 -329 l 106 742 l 215 742 l 215 24 q 207 -171 215 -76 q 188 -329 199 -265 l 106 -329 z "},"ȷ":{"ha":321,"x_min":106,"x_max":215,"o":"m 106 -329 l 106 742 l 215 742 l 215 24 q 207 -171 215 -76 q 188 -329 199 -265 l 106 -329 z "},"ĵ":{"ha":321,"x_min":-44,"x_max":356,"o":"m 106 -329 l 106 742 l 215 742 l 215 24 q 207 -171 215 -76 q 188 -329 199 -265 l 106 -329 z "},"k":{"ha":703,"x_min":106,"x_max":681,"o":"m 106 0 l 106 1060 l 215 1060 l 215 446 l 321 446 l 547 742 l 664 742 l 403 396 l 681 0 l 564 0 l 317 347 l 215 347 l 215 0 l 106 0 z "},"ķ":{"ha":703,"x_min":106,"x_max":681,"o":"m 106 0 l 106 1060 l 215 1060 l 215 446 l 321 446 l 547 742 l 664 742 l 403 396 l 681 0 l 564 0 l 317 347 l 215 347 l 215 0 l 106 0 m 242 -281 l 242 -236 l 283 -229 q 337 -213 315 -224 q 368 -174 358 -203 q 378 -87 378 -146 l 446 -87 q 433 -199 446 -157 q 388 -261 421 -242 q 294 -281 356 -281 l 242 -281 z "},"ĸ":{"ha":703,"x_min":106,"x_max":681,"o":"m 106 0 l 106 750 l 215 750 l 215 440 l 318 440 l 544 742 l 664 742 l 403 389 l 681 0 l 563 0 l 318 340 l 215 340 l 215 0 l 106 0 z "},"l":{"ha":408,"x_min":106,"x_max":394,"o":"m 300 -1 q 193 22 236 -1 q 128 97 150 44 q 106 238 106 149 l 106 1060 l 215 1060 l 215 251 q 228 151 215 185 q 264 103 240 117 q 319 86 288 90 l 394 78 l 394 -1 l 300 -1 z "},"ĺ":{"ha":408,"x_min":106,"x_max":394,"o":"m 300 -1 q 193 22 236 -1 q 128 97 150 44 q 106 238 106 149 l 106 1060 l 215 1060 l 215 251 q 228 151 215 185 q 264 103 240 117 q 319 86 288 90 l 394 78 l 394 -1 l 300 -1 z "},"ľ":{"ha":408,"x_min":106,"x_max":410,"o":"m 300 -1 q 193 22 236 -1 q 128 97 150 44 q 106 238 106 149 l 106 1060 l 215 1060 l 215 251 q 228 151 215 185 q 264 103 240 117 q 319 86 288 90 l 394 78 l 394 -1 l 300 -1 m 317 808 l 308 1004 l 308 1088 l 410 1088 l 410 1004 l 401 808 l 317 808 z "},"ļ":{"ha":408,"x_min":106,"x_max":394,"o":"m 300 -1 q 193 22 236 -1 q 128 97 150 44 q 106 238 106 149 l 106 1060 l 215 1060 l 215 251 q 228 151 215 185 q 264 103 240 117 q 319 86 288 90 l 394 78 l 394 -1 l 300 -1 m 115 -281 l 115 -236 l 157 -229 q 210 -213 189 -224 q 242 -174 232 -203 q 251 -87 251 -146 l 319 -87 q 307 -199 319 -157 q 262 -261 294 -242 q 168 -281 229 -281 l 115 -281 z "},"ŀ":{"ha":447,"x_min":106,"x_max":439,"o":"m 300 -1 q 193 22 236 -1 q 128 97 150 44 q 106 238 106 149 l 106 1060 l 215 1060 l 215 251 q 228 151 215 185 q 264 103 240 117 q 319 86 288 90 l 394 78 l 394 -1 l 300 -1 z "},"ḷ":{"ha":408,"x_min":106,"x_max":394,"o":"m 300 -1 q 193 22 236 -1 q 128 97 150 44 q 106 238 106 149 l 106 1060 l 215 1060 l 215 251 q 228 151 215 185 q 264 103 240 117 q 319 86 288 90 l 394 78 l 394 -1 l 300 -1 m 200 -292 q 178 -269 178 -292 l 178 -161 q 200 -139 178 -139 l 251 -139 q 268 -145 263 -139 q 274 -161 274 -151 l 274 -269 q 251 -292 274 -292 l 200 -292 z "},"ḻ":{"ha":408,"x_min":42,"x_max":410,"o":"m 300 -1 q 193 22 236 -1 q 128 97 150 44 q 106 238 106 149 l 106 1060 l 215 1060 l 215 251 q 228 151 215 185 q 264 103 240 117 q 319 86 288 90 l 394 78 l 394 -1 l 300 -1 z "},"ł":{"ha":408,"x_min":4,"x_max":394,"o":"m 4 494 l 4 560 l 106 597 l 215 633 l 357 683 l 357 618 l 215 568 l 106 532 l 4 494 m 300 -1 q 193 22 236 -1 q 128 97 150 44 q 106 238 106 149 l 106 1060 l 215 1060 l 215 251 q 228 151 215 185 q 264 103 240 117 q 319 86 288 90 l 394 78 l 394 -1 l 300 -1 z "},"m":{"ha":1317,"x_min":106,"x_max":1217,"o":"m 106 0 l 106 742 l 192 742 l 215 660 q 340 726 271 699 q 493 754 408 754 q 612 723 563 754 q 686 644 661 692 q 770 694 721 669 q 876 737 819 719 q 985 754 932 754 q 1117 720 1065 754 q 1192 628 1168 686 q 1217 500 1217 571 l 1217 0 l 1107 0 l 1107 492 q 1088 576 1107 539 q 1035 633 1069 613 q 950 654 1000 654 q 822 631 888 654 q 701 574 757 607 q 712 533 708 553 q 715 490 715 513 l 715 0 l 606 0 l 606 492 q 587 576 606 539 q 534 633 568 613 q 450 654 500 654 q 365 645 404 654 q 290 620 325 636 q 215 582 254 604 l 215 0 l 106 0 z "},"ṁ":{"ha":1317,"x_min":106,"x_max":1217,"o":"m 106 0 l 106 742 l 192 742 l 215 660 q 340 726 271 699 q 493 754 408 754 q 612 723 563 754 q 686 644 661 692 q 770 694 721 669 q 876 737 819 719 q 985 754 932 754 q 1117 720 1065 754 q 1192 628 1168 686 q 1217 500 1217 571 l 1217 0 l 1107 0 l 1107 492 q 1088 576 1107 539 q 1035 633 1069 613 q 950 654 1000 654 q 822 631 888 654 q 701 574 757 607 q 712 533 708 553 q 715 490 715 513 l 715 0 l 606 0 l 606 492 q 587 576 606 539 q 534 633 568 613 q 450 654 500 654 q 365 645 404 654 q 290 620 325 636 q 215 582 254 604 l 215 0 l 106 0 z "},"ṃ":{"ha":1317,"x_min":106,"x_max":1217,"o":"m 106 0 l 106 742 l 192 742 l 215 660 q 340 726 271 699 q 493 754 408 754 q 612 723 563 754 q 686 644 661 692 q 770 694 721 669 q 876 737 819 719 q 985 754 932 754 q 1117 720 1065 754 q 1192 628 1168 686 q 1217 500 1217 571 l 1217 0 l 1107 0 l 1107 492 q 1088 576 1107 539 q 1035 633 1069 613 q 950 654 1000 654 q 822 631 888 654 q 701 574 757 607 q 712 533 708 553 q 715 490 715 513 l 715 0 l 606 0 l 606 492 q 587 576 606 539 q 534 633 568 613 q 450 654 500 654 q 365 645 404 654 q 290 620 325 636 q 215 582 254 604 l 215 0 l 106 0 m 628 -292 q 606 -269 606 -292 l 606 -161 q 628 -139 606 -139 l 679 -139 q 696 -145 690 -139 q 701 -161 701 -151 l 701 -269 q 679 -292 701 -292 l 628 -292 z "},"n":{"ha":817,"x_min":106,"x_max":715,"o":"m 106 0 l 106 742 l 192 742 l 215 660 q 339 726 268 697 q 486 754 410 754 q 618 719 568 754 q 692 628 668 685 q 715 504 715 571 l 715 0 l 606 0 l 606 492 q 587 576 606 539 q 534 633 568 613 q 450 654 500 654 q 365 645 404 654 q 290 620 325 636 q 215 582 254 604 l 215 0 l 106 0 z "},"ń":{"ha":817,"x_min":106,"x_max":715,"o":"m 106 0 l 106 742 l 192 742 l 215 660 q 339 726 268 697 q 486 754 410 754 q 618 719 568 754 q 692 628 668 685 q 715 504 715 571 l 715 0 l 606 0 l 606 492 q 587 576 606 539 q 534 633 568 613 q 450 654 500 654 q 365 645 404 654 q 290 620 325 636 q 215 582 254 604 l 215 0 l 106 0 z "},"ň":{"ha":817,"x_min":106,"x_max":715,"o":"m 106 0 l 106 742 l 192 742 l 215 660 q 339 726 268 697 q 486 754 410 754 q 618 719 568 754 q 692 628 668 685 q 715 504 715 571 l 715 0 l 606 0 l 606 492 q 587 576 606 539 q 534 633 568 613 q 450 654 500 654 q 365 645 404 654 q 290 620 325 636 q 215 582 254 604 l 215 0 l 106 0 z "},"ņ":{"ha":817,"x_min":106,"x_max":715,"o":"m 106 0 l 106 742 l 192 742 l 215 660 q 339 726 268 697 q 486 754 410 754 q 618 719 568 754 q 692 628 668 685 q 715 504 715 571 l 715 0 l 606 0 l 606 492 q 587 576 606 539 q 534 633 568 613 q 450 654 500 654 q 365 645 404 654 q 290 620 325 636 q 215 582 254 604 l 215 0 l 106 0 m 293 -281 l 293 -236 l 335 -229 q 388 -213 367 -224 q 419 -174 410 -203 q 429 -87 429 -146 l 497 -87 q 485 -199 497 -157 q 440 -261 472 -242 q 346 -281 407 -281 l 293 -281 z "},"ṅ":{"ha":817,"x_min":106,"x_max":715,"o":"m 106 0 l 106 742 l 192 742 l 215 660 q 339 726 268 697 q 486 754 410 754 q 618 719 568 754 q 692 628 668 685 q 715 504 715 571 l 715 0 l 606 0 l 606 492 q 587 576 606 539 q 534 633 568 613 q 450 654 500 654 q 365 645 404 654 q 290 620 325 636 q 215 582 254 604 l 215 0 l 106 0 m 376 -292 q 354 -269 354 -292 l 354 -161 q 376 -139 354 -139 l 428 -139 q 444 -145 439 -139 q 450 -161 450 -151 l 450 -269 q 428 -292 450 -292 l 376 -292 z "},"ṇ":{"ha":817,"x_min":106,"x_max":715,"o":"m 106 0 l 106 742 l 192 742 l 215 660 q 339 726 268 697 q 486 754 410 754 q 618 719 568 754 q 692 628 668 685 q 715 504 715 571 l 715 0 l 606 0 l 606 492 q 587 576 606 539 q 534 633 568 613 q 450 654 500 654 q 365 645 404 654 q 290 620 325 636 q 215 582 254 604 l 215 0 l 106 0 m 376 -292 q 354 -269 354 -292 l 354 -161 q 376 -139 354 -139 l 428 -139 q 444 -145 439 -139 q 450 -161 450 -151 l 450 -269 q 428 -292 450 -292 l 376 -292 z "},"ŋ":{"ha":817,"x_min":106,"x_max":715,"o":"m 447 -329 q 528 -251 492 -294 q 585 -147 564 -207 q 606 -4 606 -86 l 606 261 l 715 261 l 715 -1 q 692 -153 715 -90 q 628 -258 668 -215 q 536 -329 588 -301 l 447 -329 m 106 0 l 106 742 l 192 742 l 215 660 q 339 726 268 697 q 486 754 410 754 q 618 719 568 754 q 692 628 668 685 q 715 504 715 571 l 715 0 l 606 0 l 606 492 q 587 576 606 539 q 534 633 568 613 q 450 654 500 654 q 365 645 404 654 q 290 620 325 636 q 215 582 254 604 l 215 0 l 106 0 z "},"ṉ":{"ha":817,"x_min":106,"x_max":715,"o":"m 106 0 l 106 742 l 192 742 l 215 660 q 339 726 268 697 q 486 754 410 754 q 618 719 568 754 q 692 628 668 685 q 715 504 715 571 l 715 0 l 606 0 l 606 492 q 587 576 606 539 q 534 633 568 613 q 450 654 500 654 q 365 645 404 654 q 290 620 325 636 q 215 582 254 604 l 215 0 l 106 0 z "},"ñ":{"ha":817,"x_min":106,"x_max":715,"o":"m 106 0 l 106 742 l 192 742 l 215 660 q 339 726 268 697 q 486 754 410 754 q 618 719 568 754 q 692 628 668 685 q 715 504 715 571 l 715 0 l 606 0 l 606 492 q 587 576 606 539 q 534 633 568 613 q 450 654 500 654 q 365 645 404 654 q 290 620 325 636 q 215 582 254 604 l 215 0 l 106 0 z "},"o":{"ha":801,"x_min":79,"x_max":722,"o":"m 400 -8 q 259 8 319 -8 q 158 67 199 25 q 99 183 118 108 q 79 372 79 257 q 99 563 79 489 q 158 678 118 638 q 259 735 199 719 q 400 751 319 751 q 541 735 481 751 q 642 677 601 718 q 702 562 682 636 q 722 372 722 488 q 702 181 722 256 q 642 66 682 107 q 542 8 603 25 q 400 -8 481 -8 m 400 82 q 491 92 451 82 q 557 131 531 101 q 597 218 583 160 q 611 372 611 276 q 597 526 611 469 q 557 613 583 583 q 491 651 531 642 q 400 661 451 661 q 308 651 347 661 q 243 613 269 642 q 203 526 217 583 q 189 372 189 469 q 203 218 189 276 q 243 131 217 160 q 308 92 269 101 q 400 82 347 82 z "},"ó":{"ha":801,"x_min":79,"x_max":722,"o":"m 400 -8 q 259 8 319 -8 q 158 67 199 25 q 99 183 118 108 q 79 372 79 257 q 99 563 79 489 q 158 678 118 638 q 259 735 199 719 q 400 751 319 751 q 541 735 481 751 q 642 677 601 718 q 702 562 682 636 q 722 372 722 488 q 702 181 722 256 q 642 66 682 107 q 542 8 603 25 q 400 -8 481 -8 m 400 82 q 491 92 451 82 q 557 131 531 101 q 597 218 583 160 q 611 372 611 276 q 597 526 611 469 q 557 613 583 583 q 491 651 531 642 q 400 661 451 661 q 308 651 347 661 q 243 613 269 642 q 203 526 217 583 q 189 372 189 469 q 203 218 189 276 q 243 131 217 160 q 308 92 269 101 q 400 82 347 82 z "},"ŏ":{"ha":801,"x_min":79,"x_max":722,"o":"m 400 -8 q 259 8 319 -8 q 158 67 199 25 q 99 183 118 108 q 79 372 79 257 q 99 563 79 489 q 158 678 118 638 q 259 735 199 719 q 400 751 319 751 q 541 735 481 751 q 642 677 601 718 q 702 562 682 636 q 722 372 722 488 q 702 181 722 256 q 642 66 682 107 q 542 8 603 25 q 400 -8 481 -8 m 400 82 q 491 92 451 82 q 557 131 531 101 q 597 218 583 160 q 611 372 611 276 q 597 526 611 469 q 557 613 583 583 q 491 651 531 642 q 400 661 451 661 q 308 651 347 661 q 243 613 269 642 q 203 526 217 583 q 189 372 189 469 q 203 218 189 276 q 243 131 217 160 q 308 92 269 101 q 400 82 347 82 z "},"ô":{"ha":801,"x_min":79,"x_max":722,"o":"m 400 -8 q 259 8 319 -8 q 158 67 199 25 q 99 183 118 108 q 79 372 79 257 q 99 563 79 489 q 158 678 118 638 q 259 735 199 719 q 400 751 319 751 q 541 735 481 751 q 642 677 601 718 q 702 562 682 636 q 722 372 722 488 q 702 181 722 256 q 642 66 682 107 q 542 8 603 25 q 400 -8 481 -8 m 400 82 q 491 92 451 82 q 557 131 531 101 q 597 218 583 160 q 611 372 611 276 q 597 526 611 469 q 557 613 583 583 q 491 651 531 642 q 400 661 451 661 q 308 651 347 661 q 243 613 269 642 q 203 526 217 583 q 189 372 189 469 q 203 218 189 276 q 243 131 217 160 q 308 92 269 101 q 400 82 347 82 z "},"ố":{"ha":801,"x_min":79,"x_max":732,"o":"m 400 -8 q 259 8 319 -8 q 158 67 199 25 q 99 183 118 108 q 79 372 79 257 q 99 563 79 489 q 158 678 118 638 q 259 735 199 719 q 400 751 319 751 q 541 735 481 751 q 642 677 601 718 q 702 562 682 636 q 722 372 722 488 q 702 181 722 256 q 642 66 682 107 q 542 8 603 25 q 400 -8 481 -8 m 400 82 q 491 92 451 82 q 557 131 531 101 q 597 218 583 160 q 611 372 611 276 q 597 526 611 469 q 557 613 583 583 q 491 651 531 642 q 400 661 451 661 q 308 651 347 661 q 243 613 269 642 q 203 526 217 583 q 189 372 189 469 q 203 218 189 276 q 243 131 217 160 q 308 92 269 101 q 400 82 347 82 m 364 1013 l 443 1013 l 596 876 l 529 876 l 401 961 l 263 876 l 196 876 l 364 1013 m 638 1163 l 732 1163 l 581 983 l 517 983 l 638 1163 z "},"ộ":{"ha":801,"x_min":79,"x_max":722,"o":"m 400 -8 q 259 8 319 -8 q 158 67 199 25 q 99 183 118 108 q 79 372 79 257 q 99 563 79 489 q 158 678 118 638 q 259 735 199 719 q 400 751 319 751 q 541 735 481 751 q 642 677 601 718 q 702 562 682 636 q 722 372 722 488 q 702 181 722 256 q 642 66 682 107 q 542 8 603 25 q 400 -8 481 -8 m 400 82 q 491 92 451 82 q 557 131 531 101 q 597 218 583 160 q 611 372 611 276 q 597 526 611 469 q 557 613 583 583 q 491 651 531 642 q 400 661 451 661 q 308 651 347 661 q 243 613 269 642 q 203 526 217 583 q 189 372 189 469 q 203 218 189 276 q 243 131 217 160 q 308 92 269 101 q 400 82 347 82 m 369 -292 q 347 -269 347 -292 l 347 -161 q 369 -139 347 -139 l 421 -139 q 438 -145 432 -139 q 443 -161 443 -151 l 443 -269 q 421 -292 443 -292 l 369 -292 z "},"ồ":{"ha":801,"x_min":68,"x_max":722,"o":"m 400 -8 q 259 8 319 -8 q 158 67 199 25 q 99 183 118 108 q 79 372 79 257 q 99 563 79 489 q 158 678 118 638 q 259 735 199 719 q 400 751 319 751 q 541 735 481 751 q 642 677 601 718 q 702 562 682 636 q 722 372 722 488 q 702 181 722 256 q 642 66 682 107 q 542 8 603 25 q 400 -8 481 -8 m 400 82 q 491 92 451 82 q 557 131 531 101 q 597 218 583 160 q 611 372 611 276 q 597 526 611 469 q 557 613 583 583 q 491 651 531 642 q 400 661 451 661 q 308 651 347 661 q 243 613 269 642 q 203 526 217 583 q 189 372 189 469 q 203 218 189 276 q 243 131 217 160 q 308 92 269 101 q 400 82 347 82 m 364 1013 l 443 1013 l 596 876 l 529 876 l 401 961 l 263 876 l 196 876 l 364 1013 m 68 1163 l 163 1163 l 283 983 l 219 983 l 68 1163 z "},"ổ":{"ha":801,"x_min":79,"x_max":722,"o":"m 400 -8 q 259 8 319 -8 q 158 67 199 25 q 99 183 118 108 q 79 372 79 257 q 99 563 79 489 q 158 678 118 638 q 259 735 199 719 q 400 751 319 751 q 541 735 481 751 q 642 677 601 718 q 702 562 682 636 q 722 372 722 488 q 702 181 722 256 q 642 66 682 107 q 542 8 603 25 q 400 -8 481 -8 m 400 82 q 491 92 451 82 q 557 131 531 101 q 597 218 583 160 q 611 372 611 276 q 597 526 611 469 q 557 613 583 583 q 491 651 531 642 q 400 661 451 661 q 308 651 347 661 q 243 613 269 642 q 203 526 217 583 q 189 372 189 469 q 203 218 189 276 q 243 131 217 160 q 308 92 269 101 q 400 82 347 82 m 196 876 l 364 1013 l 443 1013 l 596 876 l 529 876 l 401 961 l 263 876 l 196 876 m 549 949 l 549 999 q 603 1031 588 1011 q 618 1069 618 1050 q 605 1108 618 1094 q 560 1121 592 1121 q 535 1118 549 1121 q 511 1113 522 1115 l 511 1154 q 542 1162 526 1160 q 574 1164 557 1164 q 649 1140 625 1164 q 674 1074 674 1115 q 644 999 674 1032 q 549 949 614 967 z "},"ỗ":{"ha":801,"x_min":79,"x_max":722,"o":"m 400 -8 q 259 8 319 -8 q 158 67 199 25 q 99 183 118 108 q 79 372 79 257 q 99 563 79 489 q 158 678 118 638 q 259 735 199 719 q 400 751 319 751 q 541 735 481 751 q 642 677 601 718 q 702 562 682 636 q 722 372 722 488 q 702 181 722 256 q 642 66 682 107 q 542 8 603 25 q 400 -8 481 -8 m 400 82 q 491 92 451 82 q 557 131 531 101 q 597 218 583 160 q 611 372 611 276 q 597 526 611 469 q 557 613 583 583 q 491 651 531 642 q 400 661 451 661 q 308 651 347 661 q 243 613 269 642 q 203 526 217 583 q 189 372 189 469 q 203 218 189 276 q 243 131 217 160 q 308 92 269 101 q 400 82 347 82 m 175 1078 q 194 1149 176 1124 q 237 1183 211 1174 q 289 1193 263 1193 q 361 1178 328 1193 q 425 1149 394 1164 q 488 1135 456 1135 q 542 1150 521 1135 q 563 1196 563 1165 l 618 1196 q 603 1130 617 1156 q 564 1091 589 1104 q 503 1078 539 1078 q 431 1093 465 1078 q 365 1122 397 1108 q 299 1136 332 1136 q 252 1122 272 1136 q 232 1078 232 1107 l 175 1078 m 443 1013 l 596 876 l 529 876 l 401 961 l 263 876 l 196 876 l 364 1013 l 443 1013 z "},"ȍ":{"ha":801,"x_min":79,"x_max":722,"o":"m 400 -8 q 259 8 319 -8 q 158 67 199 25 q 99 183 118 108 q 79 372 79 257 q 99 563 79 489 q 158 678 118 638 q 259 735 199 719 q 400 751 319 751 q 541 735 481 751 q 642 677 601 718 q 702 562 682 636 q 722 372 722 488 q 702 181 722 256 q 642 66 682 107 q 542 8 603 25 q 400 -8 481 -8 m 400 82 q 491 92 451 82 q 557 131 531 101 q 597 218 583 160 q 611 372 611 276 q 597 526 611 469 q 557 613 583 583 q 491 651 531 642 q 400 661 451 661 q 308 651 347 661 q 243 613 269 642 q 203 526 217 583 q 189 372 189 469 q 203 218 189 276 q 243 131 217 160 q 308 92 269 101 q 400 82 347 82 m 496 876 l 322 1065 l 417 1065 l 561 876 l 496 876 m 293 876 l 119 1065 l 214 1065 l 358 876 l 293 876 z "},"ö":{"ha":801,"x_min":79,"x_max":722,"o":"m 400 -8 q 259 8 319 -8 q 158 67 199 25 q 99 183 118 108 q 79 372 79 257 q 99 563 79 489 q 158 678 118 638 q 259 735 199 719 q 400 751 319 751 q 541 735 481 751 q 642 677 601 718 q 702 562 682 636 q 722 372 722 488 q 702 181 722 256 q 642 66 682 107 q 542 8 603 25 q 400 -8 481 -8 m 400 82 q 491 92 451 82 q 557 131 531 101 q 597 218 583 160 q 611 372 611 276 q 597 526 611 469 q 557 613 583 583 q 491 651 531 642 q 400 661 451 661 q 308 651 347 661 q 243 613 269 642 q 203 526 217 583 q 189 372 189 469 q 203 218 189 276 q 243 131 217 160 q 308 92 269 101 q 400 82 347 82 m 508 907 q 486 929 486 907 l 486 1038 q 508 1060 486 1060 l 558 1060 q 575 1053 569 1060 q 581 1038 581 1047 l 581 929 q 558 907 581 907 l 508 907 m 238 907 q 215 929 215 907 l 215 1038 q 238 1060 215 1060 l 288 1060 q 304 1053 299 1060 q 310 1038 310 1047 l 310 929 q 288 907 310 907 l 238 907 z "},"ȫ":{"ha":801,"x_min":79,"x_max":722,"o":"m 400 -8 q 259 8 319 -8 q 158 67 199 25 q 99 183 118 108 q 79 372 79 257 q 99 563 79 489 q 158 678 118 638 q 259 735 199 719 q 400 751 319 751 q 541 735 481 751 q 642 677 601 718 q 702 562 682 636 q 722 372 722 488 q 702 181 722 256 q 642 66 682 107 q 542 8 603 25 q 400 -8 481 -8 m 400 82 q 491 92 451 82 q 557 131 531 101 q 597 218 583 160 q 611 372 611 276 q 597 526 611 469 q 557 613 583 583 q 491 651 531 642 q 400 661 451 661 q 308 651 347 661 q 243 613 269 642 q 203 526 217 583 q 189 372 189 469 q 203 218 189 276 q 243 131 217 160 q 308 92 269 101 q 400 82 347 82 m 508 907 q 486 929 486 907 l 486 1038 q 508 1060 486 1060 l 558 1060 q 575 1053 569 1060 q 581 1038 581 1047 l 581 929 q 558 907 581 907 l 508 907 m 238 907 q 215 929 215 907 l 215 1038 q 238 1060 215 1060 l 288 1060 q 304 1053 299 1060 q 310 1038 310 1047 l 310 929 q 288 907 310 907 l 238 907 z "},"ȱ":{"ha":801,"x_min":79,"x_max":722,"o":"m 400 -8 q 259 8 319 -8 q 158 67 199 25 q 99 183 118 108 q 79 372 79 257 q 99 563 79 489 q 158 678 118 638 q 259 735 199 719 q 400 751 319 751 q 541 735 481 751 q 642 677 601 718 q 702 562 682 636 q 722 372 722 488 q 702 181 722 256 q 642 66 682 107 q 542 8 603 25 q 400 -8 481 -8 m 400 82 q 491 92 451 82 q 557 131 531 101 q 597 218 583 160 q 611 372 611 276 q 597 526 611 469 q 557 613 583 583 q 491 651 531 642 q 400 661 451 661 q 308 651 347 661 q 243 613 269 642 q 203 526 217 583 q 189 372 189 469 q 203 218 189 276 q 243 131 217 160 q 308 92 269 101 q 400 82 347 82 z "},"ọ":{"ha":801,"x_min":79,"x_max":722,"o":"m 400 -8 q 259 8 319 -8 q 158 67 199 25 q 99 183 118 108 q 79 372 79 257 q 99 563 79 489 q 158 678 118 638 q 259 735 199 719 q 400 751 319 751 q 541 735 481 751 q 642 677 601 718 q 702 562 682 636 q 722 372 722 488 q 702 181 722 256 q 642 66 682 107 q 542 8 603 25 q 400 -8 481 -8 m 400 82 q 491 92 451 82 q 557 131 531 101 q 597 218 583 160 q 611 372 611 276 q 597 526 611 469 q 557 613 583 583 q 491 651 531 642 q 400 661 451 661 q 308 651 347 661 q 243 613 269 642 q 203 526 217 583 q 189 372 189 469 q 203 218 189 276 q 243 131 217 160 q 308 92 269 101 q 400 82 347 82 m 369 -292 q 347 -269 347 -292 l 347 -161 q 369 -139 347 -139 l 421 -139 q 438 -145 432 -139 q 443 -161 443 -151 l 443 -269 q 421 -292 443 -292 l 369 -292 z "},"ò":{"ha":801,"x_min":79,"x_max":722,"o":"m 400 -8 q 259 8 319 -8 q 158 67 199 25 q 99 183 118 108 q 79 372 79 257 q 99 563 79 489 q 158 678 118 638 q 259 735 199 719 q 400 751 319 751 q 541 735 481 751 q 642 677 601 718 q 702 562 682 636 q 722 372 722 488 q 702 181 722 256 q 642 66 682 107 q 542 8 603 25 q 400 -8 481 -8 m 400 82 q 491 92 451 82 q 557 131 531 101 q 597 218 583 160 q 611 372 611 276 q 597 526 611 469 q 557 613 583 583 q 491 651 531 642 q 400 661 451 661 q 308 651 347 661 q 243 613 269 642 q 203 526 217 583 q 189 372 189 469 q 203 218 189 276 q 243 131 217 160 q 308 92 269 101 q 400 82 347 82 z "},"ỏ":{"ha":801,"x_min":79,"x_max":722,"o":"m 400 -8 q 259 8 319 -8 q 158 67 199 25 q 99 183 118 108 q 79 372 79 257 q 99 563 79 489 q 158 678 118 638 q 259 735 199 719 q 400 751 319 751 q 541 735 481 751 q 642 677 601 718 q 702 562 682 636 q 722 372 722 488 q 702 181 722 256 q 642 66 682 107 q 542 8 603 25 q 400 -8 481 -8 m 400 82 q 491 92 451 82 q 557 131 531 101 q 597 218 583 160 q 611 372 611 276 q 597 526 611 469 q 557 613 583 583 q 491 651 531 642 q 400 661 451 661 q 308 651 347 661 q 243 613 269 642 q 203 526 217 583 q 189 372 189 469 q 203 218 189 276 q 243 131 217 160 q 308 92 269 101 q 400 82 347 82 m 375 838 l 375 889 q 436 924 419 901 q 453 971 453 947 q 438 1015 453 999 q 386 1032 424 1032 q 362 1030 375 1032 q 336 1024 349 1028 l 336 1071 q 367 1078 351 1076 q 400 1079 383 1079 q 486 1050 458 1079 q 514 972 514 1021 q 481 893 514 928 q 375 838 447 858 z "},"ơ":{"ha":801,"x_min":79,"x_max":767,"o":"m 400 -8 q 259 8 319 -8 q 158 67 199 25 q 99 183 118 108 q 79 372 79 257 q 99 563 79 489 q 158 678 118 638 q 259 735 199 719 q 400 751 319 751 q 541 735 481 751 q 642 677 601 718 q 702 562 682 636 q 722 372 722 488 q 702 181 722 256 q 642 66 682 107 q 542 8 603 25 q 400 -8 481 -8 m 400 82 q 491 92 451 82 q 557 131 531 101 q 597 218 583 160 q 611 372 611 276 q 597 526 611 469 q 557 613 583 583 q 491 651 531 642 q 400 661 451 661 q 308 651 347 661 q 243 613 269 642 q 203 526 217 583 q 189 372 189 469 q 203 218 189 276 q 243 131 217 160 q 308 92 269 101 q 400 82 347 82 m 447 679 l 447 742 l 576 742 q 656 776 625 742 q 686 899 686 810 l 767 899 q 742 769 767 818 q 679 700 718 721 q 593 679 640 679 l 447 679 z "},"ớ":{"ha":801,"x_min":79,"x_max":767,"o":"m 400 -8 q 259 8 319 -8 q 158 67 199 25 q 99 183 118 108 q 79 372 79 257 q 99 563 79 489 q 158 678 118 638 q 259 735 199 719 q 400 751 319 751 q 541 735 481 751 q 642 677 601 718 q 702 562 682 636 q 722 372 722 488 q 702 181 722 256 q 642 66 682 107 q 542 8 603 25 q 400 -8 481 -8 m 400 82 q 491 92 451 82 q 557 131 531 101 q 597 218 583 160 q 611 372 611 276 q 597 526 611 469 q 557 613 583 583 q 491 651 531 642 q 400 661 451 661 q 308 651 347 661 q 243 613 269 642 q 203 526 217 583 q 189 372 189 469 q 203 218 189 276 q 243 131 217 160 q 308 92 269 101 q 400 82 347 82 m 447 679 l 447 742 l 576 742 q 656 776 625 742 q 686 899 686 810 l 767 899 q 742 769 767 818 q 679 700 718 721 q 593 679 640 679 l 447 679 z "},"ợ":{"ha":801,"x_min":79,"x_max":767,"o":"m 400 -8 q 259 8 319 -8 q 158 67 199 25 q 99 183 118 108 q 79 372 79 257 q 99 563 79 489 q 158 678 118 638 q 259 735 199 719 q 400 751 319 751 q 541 735 481 751 q 642 677 601 718 q 702 562 682 636 q 722 372 722 488 q 702 181 722 256 q 642 66 682 107 q 542 8 603 25 q 400 -8 481 -8 m 400 82 q 491 92 451 82 q 557 131 531 101 q 597 218 583 160 q 611 372 611 276 q 597 526 611 469 q 557 613 583 583 q 491 651 531 642 q 400 661 451 661 q 308 651 347 661 q 243 613 269 642 q 203 526 217 583 q 189 372 189 469 q 203 218 189 276 q 243 131 217 160 q 308 92 269 101 q 400 82 347 82 m 447 679 l 447 742 l 576 742 q 656 776 625 742 q 686 899 686 810 l 767 899 q 742 769 767 818 q 679 700 718 721 q 593 679 640 679 l 447 679 m 383 -292 q 361 -269 361 -292 l 361 -161 q 383 -139 361 -139 l 435 -139 q 451 -145 446 -139 q 457 -161 457 -151 l 457 -269 q 435 -292 457 -292 l 383 -292 z "},"ờ":{"ha":801,"x_min":79,"x_max":767,"o":"m 400 -8 q 259 8 319 -8 q 158 67 199 25 q 99 183 118 108 q 79 372 79 257 q 99 563 79 489 q 158 678 118 638 q 259 735 199 719 q 400 751 319 751 q 541 735 481 751 q 642 677 601 718 q 702 562 682 636 q 722 372 722 488 q 702 181 722 256 q 642 66 682 107 q 542 8 603 25 q 400 -8 481 -8 m 400 82 q 491 92 451 82 q 557 131 531 101 q 597 218 583 160 q 611 372 611 276 q 597 526 611 469 q 557 613 583 583 q 491 651 531 642 q 400 661 451 661 q 308 651 347 661 q 243 613 269 642 q 203 526 217 583 q 189 372 189 469 q 203 218 189 276 q 243 131 217 160 q 308 92 269 101 q 400 82 347 82 m 447 679 l 447 742 l 576 742 q 656 776 625 742 q 686 899 686 810 l 767 899 q 742 769 767 818 q 679 700 718 721 q 593 679 640 679 l 447 679 z "},"ở":{"ha":801,"x_min":79,"x_max":767,"o":"m 400 -8 q 259 8 319 -8 q 158 67 199 25 q 99 183 118 108 q 79 372 79 257 q 99 563 79 489 q 158 678 118 638 q 259 735 199 719 q 400 751 319 751 q 541 735 481 751 q 642 677 601 718 q 702 562 682 636 q 722 372 722 488 q 702 181 722 256 q 642 66 682 107 q 542 8 603 25 q 400 -8 481 -8 m 400 82 q 491 92 451 82 q 557 131 531 101 q 597 218 583 160 q 611 372 611 276 q 597 526 611 469 q 557 613 583 583 q 491 651 531 642 q 400 661 451 661 q 308 651 347 661 q 243 613 269 642 q 203 526 217 583 q 189 372 189 469 q 203 218 189 276 q 243 131 217 160 q 308 92 269 101 q 400 82 347 82 m 447 679 l 447 742 l 576 742 q 656 776 625 742 q 686 899 686 810 l 767 899 q 742 769 767 818 q 679 700 718 721 q 593 679 640 679 l 447 679 m 378 838 l 378 889 q 439 924 422 901 q 456 971 456 947 q 441 1015 456 999 q 389 1032 426 1032 q 365 1030 378 1032 q 339 1024 351 1028 l 339 1071 q 370 1078 354 1076 q 403 1079 386 1079 q 489 1050 461 1079 q 517 972 517 1021 q 483 893 517 928 q 378 838 450 858 z "},"ỡ":{"ha":801,"x_min":79,"x_max":767,"o":"m 400 -8 q 259 8 319 -8 q 158 67 199 25 q 99 183 118 108 q 79 372 79 257 q 99 563 79 489 q 158 678 118 638 q 259 735 199 719 q 400 751 319 751 q 541 735 481 751 q 642 677 601 718 q 702 562 682 636 q 722 372 722 488 q 702 181 722 256 q 642 66 682 107 q 542 8 603 25 q 400 -8 481 -8 m 400 82 q 491 92 451 82 q 557 131 531 101 q 597 218 583 160 q 611 372 611 276 q 597 526 611 469 q 557 613 583 583 q 491 651 531 642 q 400 661 451 661 q 308 651 347 661 q 243 613 269 642 q 203 526 217 583 q 189 372 189 469 q 203 218 189 276 q 243 131 217 160 q 308 92 269 101 q 400 82 347 82 m 447 679 l 447 742 l 576 742 q 656 776 625 742 q 686 899 686 810 l 767 899 q 742 769 767 818 q 679 700 718 721 q 593 679 640 679 l 447 679 z "},"ő":{"ha":801,"x_min":79,"x_max":722,"o":"m 400 -8 q 259 8 319 -8 q 158 67 199 25 q 99 183 118 108 q 79 372 79 257 q 99 563 79 489 q 158 678 118 638 q 259 735 199 719 q 400 751 319 751 q 541 735 481 751 q 642 677 601 718 q 702 562 682 636 q 722 372 722 488 q 702 181 722 256 q 642 66 682 107 q 542 8 603 25 q 400 -8 481 -8 m 400 82 q 491 92 451 82 q 557 131 531 101 q 597 218 583 160 q 611 372 611 276 q 597 526 611 469 q 557 613 583 583 q 491 651 531 642 q 400 661 451 661 q 308 651 347 661 q 243 613 269 642 q 203 526 217 583 q 189 372 189 469 q 203 218 189 276 q 243 131 217 160 q 308 92 269 101 q 400 82 347 82 z "},"ȏ":{"ha":801,"x_min":79,"x_max":722,"o":"m 400 -8 q 259 8 319 -8 q 158 67 199 25 q 99 183 118 108 q 79 372 79 257 q 99 563 79 489 q 158 678 118 638 q 259 735 199 719 q 400 751 319 751 q 541 735 481 751 q 642 677 601 718 q 702 562 682 636 q 722 372 722 488 q 702 181 722 256 q 642 66 682 107 q 542 8 603 25 q 400 -8 481 -8 m 400 82 q 491 92 451 82 q 557 131 531 101 q 597 218 583 160 q 611 372 611 276 q 597 526 611 469 q 557 613 583 583 q 491 651 531 642 q 400 661 451 661 q 308 651 347 661 q 243 613 269 642 q 203 526 217 583 q 189 372 189 469 q 203 218 189 276 q 243 131 217 160 q 308 92 269 101 q 400 82 347 82 z "},"ō":{"ha":801,"x_min":79,"x_max":722,"o":"m 400 -8 q 259 8 319 -8 q 158 67 199 25 q 99 183 118 108 q 79 372 79 257 q 99 563 79 489 q 158 678 118 638 q 259 735 199 719 q 400 751 319 751 q 541 735 481 751 q 642 677 601 718 q 702 562 682 636 q 722 372 722 488 q 702 181 722 256 q 642 66 682 107 q 542 8 603 25 q 400 -8 481 -8 m 400 82 q 491 92 451 82 q 557 131 531 101 q 597 218 583 160 q 611 372 611 276 q 597 526 611 469 q 557 613 583 583 q 491 651 531 642 q 400 661 451 661 q 308 651 347 661 q 243 613 269 642 q 203 526 217 583 q 189 372 189 469 q 203 218 189 276 q 243 131 217 160 q 308 92 269 101 q 400 82 347 82 z "},"ṓ":{"ha":801,"x_min":79,"x_max":722,"o":"m 400 -8 q 259 8 319 -8 q 158 67 199 25 q 99 183 118 108 q 79 372 79 257 q 99 563 79 489 q 158 678 118 638 q 259 735 199 719 q 400 751 319 751 q 541 735 481 751 q 642 677 601 718 q 702 562 682 636 q 722 372 722 488 q 702 181 722 256 q 642 66 682 107 q 542 8 603 25 q 400 -8 481 -8 m 400 82 q 491 92 451 82 q 557 131 531 101 q 597 218 583 160 q 611 372 611 276 q 597 526 611 469 q 557 613 583 583 q 491 651 531 642 q 400 661 451 661 q 308 651 347 661 q 243 613 269 642 q 203 526 217 583 q 189 372 189 469 q 203 218 189 276 q 243 131 217 160 q 308 92 269 101 q 400 82 347 82 z "},"ṑ":{"ha":801,"x_min":79,"x_max":722,"o":"m 400 -8 q 259 8 319 -8 q 158 67 199 25 q 99 183 118 108 q 79 372 79 257 q 99 563 79 489 q 158 678 118 638 q 259 735 199 719 q 400 751 319 751 q 541 735 481 751 q 642 677 601 718 q 702 562 682 636 q 722 372 722 488 q 702 181 722 256 q 642 66 682 107 q 542 8 603 25 q 400 -8 481 -8 m 400 82 q 491 92 451 82 q 557 131 531 101 q 597 218 583 160 q 611 372 611 276 q 597 526 611 469 q 557 613 583 583 q 491 651 531 642 q 400 661 451 661 q 308 651 347 661 q 243 613 269 642 q 203 526 217 583 q 189 372 189 469 q 203 218 189 276 q 243 131 217 160 q 308 92 269 101 q 400 82 347 82 z "},"ǫ":{"ha":801,"x_min":79,"x_max":722,"o":"m 400 -8 q 259 8 319 -8 q 158 67 199 25 q 99 183 118 108 q 79 372 79 257 q 99 563 79 489 q 158 678 118 638 q 259 735 199 719 q 400 751 319 751 q 541 735 481 751 q 642 677 601 718 q 702 562 682 636 q 722 372 722 488 q 702 181 722 256 q 642 66 682 107 q 542 8 603 25 q 400 -8 481 -8 m 400 82 q 491 92 451 82 q 557 131 531 101 q 597 218 583 160 q 611 372 611 276 q 597 526 611 469 q 557 613 583 583 q 491 651 531 642 q 400 661 451 661 q 308 651 347 661 q 243 613 269 642 q 203 526 217 583 q 189 372 189 469 q 203 218 189 276 q 243 131 217 160 q 308 92 269 101 q 400 82 347 82 z "},"ø":{"ha":801,"x_min":71,"x_max":729,"o":"m 71 0 l 669 742 l 729 742 l 131 0 l 71 0 m 400 -8 q 259 8 319 -8 q 158 67 199 25 q 99 183 118 108 q 79 372 79 257 q 99 563 79 489 q 158 678 118 638 q 259 735 199 719 q 400 751 319 751 q 541 735 481 751 q 642 677 601 718 q 702 562 682 636 q 722 372 722 488 q 702 181 722 256 q 642 66 682 107 q 542 8 603 25 q 400 -8 481 -8 m 400 82 q 491 92 451 82 q 557 131 531 101 q 597 218 583 160 q 611 372 611 276 q 597 526 611 469 q 557 613 583 583 q 491 651 531 642 q 400 661 451 661 q 308 651 347 661 q 243 613 269 642 q 203 526 217 583 q 189 372 189 469 q 203 218 189 276 q 243 131 217 160 q 308 92 269 101 q 400 82 347 82 z "},"ǿ":{"ha":801,"x_min":71,"x_max":729,"o":"m 71 0 l 669 742 l 729 742 l 131 0 l 71 0 m 400 -8 q 259 8 319 -8 q 158 67 199 25 q 99 183 118 108 q 79 372 79 257 q 99 563 79 489 q 158 678 118 638 q 259 735 199 719 q 400 751 319 751 q 541 735 481 751 q 642 677 601 718 q 702 562 682 636 q 722 372 722 488 q 702 181 722 256 q 642 66 682 107 q 542 8 603 25 q 400 -8 481 -8 m 400 82 q 491 92 451 82 q 557 131 531 101 q 597 218 583 160 q 611 372 611 276 q 597 526 611 469 q 557 613 583 583 q 491 651 531 642 q 400 661 451 661 q 308 651 347 661 q 243 613 269 642 q 203 526 217 583 q 189 372 189 469 q 203 218 189 276 q 243 131 217 160 q 308 92 269 101 q 400 82 347 82 z "},"õ":{"ha":801,"x_min":79,"x_max":722,"o":"m 400 -8 q 259 8 319 -8 q 158 67 199 25 q 99 183 118 108 q 79 372 79 257 q 99 563 79 489 q 158 678 118 638 q 259 735 199 719 q 400 751 319 751 q 541 735 481 751 q 642 677 601 718 q 702 562 682 636 q 722 372 722 488 q 702 181 722 256 q 642 66 682 107 q 542 8 603 25 q 400 -8 481 -8 m 400 82 q 491 92 451 82 q 557 131 531 101 q 597 218 583 160 q 611 372 611 276 q 597 526 611 469 q 557 613 583 583 q 491 651 531 642 q 400 661 451 661 q 308 651 347 661 q 243 613 269 642 q 203 526 217 583 q 189 372 189 469 q 203 218 189 276 q 243 131 217 160 q 308 92 269 101 q 400 82 347 82 z "},"ṍ":{"ha":801,"x_min":79,"x_max":722,"o":"m 400 -8 q 259 8 319 -8 q 158 67 199 25 q 99 183 118 108 q 79 372 79 257 q 99 563 79 489 q 158 678 118 638 q 259 735 199 719 q 400 751 319 751 q 541 735 481 751 q 642 677 601 718 q 702 562 682 636 q 722 372 722 488 q 702 181 722 256 q 642 66 682 107 q 542 8 603 25 q 400 -8 481 -8 m 400 82 q 491 92 451 82 q 557 131 531 101 q 597 218 583 160 q 611 372 611 276 q 597 526 611 469 q 557 613 583 583 q 491 651 531 642 q 400 661 451 661 q 308 651 347 661 q 243 613 269 642 q 203 526 217 583 q 189 372 189 469 q 203 218 189 276 q 243 131 217 160 q 308 92 269 101 q 400 82 347 82 z "},"ṏ":{"ha":801,"x_min":79,"x_max":722,"o":"m 400 -8 q 259 8 319 -8 q 158 67 199 25 q 99 183 118 108 q 79 372 79 257 q 99 563 79 489 q 158 678 118 638 q 259 735 199 719 q 400 751 319 751 q 541 735 481 751 q 642 677 601 718 q 702 562 682 636 q 722 372 722 488 q 702 181 722 256 q 642 66 682 107 q 542 8 603 25 q 400 -8 481 -8 m 400 82 q 491 92 451 82 q 557 131 531 101 q 597 218 583 160 q 611 372 611 276 q 597 526 611 469 q 557 613 583 583 q 491 651 531 642 q 400 661 451 661 q 308 651 347 661 q 243 613 269 642 q 203 526 217 583 q 189 372 189 469 q 203 218 189 276 q 243 131 217 160 q 308 92 269 101 q 400 82 347 82 m 522 1125 q 500 1147 500 1125 l 500 1256 q 522 1278 500 1278 l 572 1278 q 589 1272 583 1278 q 594 1256 594 1265 l 594 1147 q 572 1125 594 1125 l 522 1125 m 251 1125 q 229 1147 229 1125 l 229 1256 q 251 1278 229 1278 l 301 1278 q 318 1272 313 1278 q 324 1256 324 1265 l 324 1147 q 301 1125 324 1125 l 251 1125 z "},"ȭ":{"ha":801,"x_min":79,"x_max":722,"o":"m 400 -8 q 259 8 319 -8 q 158 67 199 25 q 99 183 118 108 q 79 372 79 257 q 99 563 79 489 q 158 678 118 638 q 259 735 199 719 q 400 751 319 751 q 541 735 481 751 q 642 677 601 718 q 702 562 682 636 q 722 372 722 488 q 702 181 722 256 q 642 66 682 107 q 542 8 603 25 q 400 -8 481 -8 m 400 82 q 491 92 451 82 q 557 131 531 101 q 597 218 583 160 q 611 372 611 276 q 597 526 611 469 q 557 613 583 583 q 491 651 531 642 q 400 661 451 661 q 308 651 347 661 q 243 613 269 642 q 203 526 217 583 q 189 372 189 469 q 203 218 189 276 q 243 131 217 160 q 308 92 269 101 q 400 82 347 82 z "},"œ":{"ha":1279,"x_min":79,"x_max":1200,"o":"m 397 -8 q 257 8 317 -8 q 158 67 197 25 q 99 183 118 108 q 79 372 79 257 q 99 563 79 489 q 158 678 118 638 q 259 735 199 719 q 400 751 319 751 q 533 735 475 751 q 628 677 590 718 q 685 562 665 636 q 704 372 704 488 q 685 181 704 256 q 628 66 667 107 q 531 8 589 25 q 397 -8 474 -8 m 400 78 q 491 88 451 78 q 557 127 531 97 q 597 216 583 157 q 611 372 611 275 q 597 529 611 471 q 557 617 583 588 q 491 656 531 646 q 400 665 451 665 q 308 656 347 665 q 243 617 269 646 q 203 529 217 588 q 189 372 189 471 q 203 216 189 275 q 243 127 217 157 q 308 88 269 97 q 400 78 347 78 m 910 -8 q 749 30 813 -8 q 655 151 686 68 q 624 372 624 235 q 651 590 624 506 q 740 713 678 674 q 907 751 801 751 q 1067 731 1003 751 q 1166 656 1132 711 q 1200 496 1200 601 q 1174 399 1200 438 q 1103 344 1149 361 q 1000 326 1058 326 l 715 326 q 769 136 717 194 q 938 78 821 78 l 1181 78 l 1181 11 q 1054 -3 1119 3 q 910 -8 989 -8 m 714 399 l 979 399 q 1043 407 1017 399 q 1085 440 1069 415 q 1100 506 1100 464 q 1079 610 1100 575 q 1015 656 1058 644 q 907 668 972 668 q 791 640 833 668 q 731 553 749 613 q 714 399 714 493 z "},"p":{"ha":803,"x_min":106,"x_max":724,"o":"m 106 -329 l 106 742 l 194 742 l 215 665 q 280 703 240 683 q 366 738 319 724 q 458 751 413 751 q 581 720 531 751 q 664 636 632 689 q 710 515 696 583 q 724 372 724 447 q 695 162 724 247 q 608 33 667 76 q 458 -10 550 -10 q 333 10 396 -10 q 215 61 269 31 l 215 -329 l 106 -329 m 428 83 q 522 110 481 83 q 589 199 564 136 q 614 372 614 263 q 588 540 614 476 q 519 631 561 603 q 428 660 478 660 q 310 640 364 660 q 215 597 257 619 l 215 143 q 319 100 264 117 q 428 83 374 83 z "},"ṗ":{"ha":803,"x_min":106,"x_max":724,"o":"m 106 -329 l 106 742 l 194 742 l 215 665 q 280 703 240 683 q 366 738 319 724 q 458 751 413 751 q 581 720 531 751 q 664 636 632 689 q 710 515 696 583 q 724 372 724 447 q 695 162 724 247 q 608 33 667 76 q 458 -10 550 -10 q 333 10 396 -10 q 215 61 269 31 l 215 -329 l 106 -329 m 428 83 q 522 110 481 83 q 589 199 564 136 q 614 372 614 263 q 588 540 614 476 q 519 631 561 603 q 428 660 478 660 q 310 640 364 660 q 215 597 257 619 l 215 143 q 319 100 264 117 q 428 83 374 83 z "},"þ":{"ha":803,"x_min":106,"x_max":724,"o":"m 106 -329 l 106 1060 l 215 1060 l 215 665 q 280 703 240 683 q 366 738 319 724 q 458 751 413 751 q 579 720 529 751 q 662 636 629 689 q 709 515 694 583 q 724 372 724 447 q 694 162 724 247 q 607 33 665 76 q 458 -10 549 -10 q 333 10 396 -10 q 215 61 269 31 l 215 -329 l 106 -329 m 428 83 q 522 110 481 83 q 589 198 564 136 q 614 368 614 260 q 588 538 614 474 q 519 631 561 603 q 428 660 478 660 q 310 640 364 660 q 215 597 257 619 l 215 143 q 319 100 264 117 q 428 83 374 83 z "},"q":{"ha":799,"x_min":79,"x_max":697,"o":"m 588 -329 l 588 75 q 469 15 535 39 q 343 -8 404 -8 q 188 34 246 -8 q 104 161 129 76 q 79 372 79 246 q 108 585 79 500 q 199 710 138 669 q 357 751 261 751 q 486 749 424 751 q 603 741 549 746 q 697 732 657 736 l 697 -329 l 588 -329 m 369 82 q 481 99 426 82 q 588 144 536 115 l 588 665 l 382 665 q 267 629 308 665 q 207 528 225 593 q 189 375 189 463 q 208 206 189 271 q 265 112 226 142 q 369 82 304 82 z "},"r":{"ha":572,"x_min":106,"x_max":539,"o":"m 106 0 l 106 742 l 189 742 l 215 613 q 327 711 265 672 q 469 750 389 750 q 506 749 489 750 q 539 743 524 747 l 539 631 q 500 635 521 633 q 458 638 479 638 q 367 625 407 638 q 290 588 326 613 q 215 526 254 563 l 215 0 l 106 0 z "},"ŕ":{"ha":572,"x_min":106,"x_max":539,"o":"m 106 0 l 106 742 l 189 742 l 215 613 q 327 711 265 672 q 469 750 389 750 q 506 749 489 750 q 539 743 524 747 l 539 631 q 500 635 521 633 q 458 638 479 638 q 367 625 407 638 q 290 588 326 613 q 215 526 254 563 l 215 0 l 106 0 z "},"ř":{"ha":572,"x_min":97,"x_max":539,"o":"m 106 0 l 106 742 l 189 742 l 215 613 q 327 711 265 672 q 469 750 389 750 q 506 749 489 750 q 539 743 524 747 l 539 631 q 500 635 521 633 q 458 638 479 638 q 367 625 407 638 q 290 588 326 613 q 215 526 254 563 l 215 0 l 106 0 z "},"ŗ":{"ha":572,"x_min":44,"x_max":539,"o":"m 106 0 l 106 742 l 189 742 l 215 613 q 327 711 265 672 q 469 750 389 750 q 506 749 489 750 q 539 743 524 747 l 539 631 q 500 635 521 633 q 458 638 479 638 q 367 625 407 638 q 290 588 326 613 q 215 526 254 563 l 215 0 l 106 0 m 46 -281 l 46 -236 l 88 -229 q 141 -213 119 -224 q 172 -174 163 -203 q 182 -87 182 -146 l 250 -87 q 238 -199 250 -157 q 192 -261 225 -242 q 99 -281 160 -281 l 46 -281 z "}}}
